<?xml version="1.0" encoding="UTF-8"?>
<svg version="1.1" xmlns="http://www.w3.org/2000/svg" width="100" height="100">
<path d="M0 0 C6.74718315 1.12453053 6.74718315 1.12453053 9.296875 3.44140625 C9.85826172 3.93890381 10.41964844 4.43640137 10.99804688 4.94897461 C11.57619141 5.48143799 12.15433594 6.01390137 12.75 6.5625 C13.98321479 7.66015904 15.21759632 8.75650863 16.453125 9.8515625 C17.35514648 10.65835449 17.35514648 10.65835449 18.27539062 11.48144531 C21.37596693 14.21156771 24.62724991 16.74765298 27.8671875 19.30859375 C30.61965233 21.49140927 33.31304079 23.73729751 36 26 C35.77905239 29.71593713 35.07869463 30.9205932 32.41015625 33.61328125 C31.30476237 34.52587971 30.18817703 35.42504138 29.0625 36.3125 C28.47637939 36.79033936 27.89025879 37.26817871 27.28637695 37.76049805 C25.53329621 39.18533834 23.76759881 40.59323936 22 42 C21.07445313 42.7528125 20.14890625 43.505625 19.1953125 44.28125 C16.81386225 46.21015052 14.41102008 48.10827655 12 50 C11.25621094 50.60199219 10.51242188 51.20398438 9.74609375 51.82421875 C9.04613281 52.37722656 8.34617188 52.93023437 7.625 53.5 C6.71621094 54.22703125 6.71621094 54.22703125 5.7890625 54.96875 C4 56 4 56 0 56 C0 51.05 0 46.1 0 41 C-13.62409803 42.0931911 -26.7919435 43.68699828 -37.12109375 53.59765625 C-40.49543135 57.912038 -42.2885919 62.83997557 -44 68 C-45.32 68 -46.64 68 -48 68 C-48.98815069 54.30313354 -44.57671148 41.27645799 -36.03515625 30.52734375 C-28.82753951 22.72017842 -18.1942045 16.33890358 -7.35546875 15.890625 C-4.90341315 15.87690721 -2.4511742 15.93284454 0 16 C0 10.72 0 5.44 0 0 Z " fill="#000000" transform="translate(56,22)"/>
</svg>
