<svg width="130" height="41" viewBox="0 0 130 41" fill="none" xmlns="http://www.w3.org/2000/svg">
              <path d="M0 24.503H16.2199V40.7142H14.5326V26.1903H0V24.503ZM22.877 40.7142V23.6663L21.1896 22.8191V40.7142H22.877ZM26.2064 24.8063L24.519 24.435V40.7142H26.2064V24.8063ZM19.5476 40.7142V21.1614H0V22.8487H17.8602V40.7125H19.5476V40.7142ZM18.1391 19.5106L17.461 18.7332L16.9747 17.8233H0V19.5106H18.1391ZM16.0979 16.1708L15.6482 15.3271L15.5192 14.4834H0V16.1708H16.0979Z" fill="#6D6E71"></path>
              <path d="M40.7349 26.1192H30.1296C25.5155 26.1192 21.6056 24.648 18.8236 21.8677C16.167 19.2112 14.7063 15.5244 14.5808 11.1753L14.5703 9.71976C14.5703 7.56698 14.5721 1.88957 14.5721 0.00174314H16.2594V10.5617C16.2594 14.7208 17.5581 18.2158 20.0159 20.6719C22.4755 23.1297 25.9705 24.4301 30.1279 24.4301H40.7331V26.1175L40.7349 26.1192ZM31.4003 21.1147C30.154 21.1147 28.892 21.0136 27.6613 20.8044C25.7247 20.4732 23.7724 19.7376 22.3604 18.3291C22.2384 18.2071 22.1199 18.0799 22.0083 17.9491C20.5946 16.3141 19.9845 14.1055 19.7422 11.9998C19.6394 11.1021 19.5766 10.1974 19.5749 9.29443C19.5749 9.25957 19.5749 9.22296 19.5749 9.18287V0H17.8893V9.29443C17.8893 10.1887 17.9485 11.0829 18.0427 11.9702C18.271 14.1386 18.8166 16.3175 20.0438 18.1513C20.3732 18.6429 20.748 19.1031 21.1664 19.5214C22.6445 20.9996 24.6248 21.8363 26.6311 22.3157C28.172 22.6835 29.8176 22.802 31.4003 22.802H40.7349V21.1147H31.4003ZM30.1296 14.4838C28.6026 14.4838 27.623 14.2171 27.0495 13.6418C26.476 13.0683 26.2075 12.0887 26.2075 10.5617V0H24.5202V10.5617C24.5202 12.5663 24.9455 13.9242 25.8572 14.8341C26.7671 15.7458 28.125 16.1711 30.1296 16.1711H40.7349V14.4838H30.1296ZM32.6694 17.7992C32.5177 17.7992 32.366 17.7975 32.2144 17.7922C30.6072 17.7556 28.9983 17.7504 27.4295 17.4018C27.0564 17.3199 26.6904 17.2135 26.333 17.0723C25.7316 16.8353 25.1616 16.4413 24.7049 15.9829C24.3232 15.6011 23.9327 15.0416 23.7079 14.5517C23.5022 14.1055 23.3244 13.6505 23.218 13.1712C23.1047 12.6569 23.0263 12.1445 22.9635 11.6233C22.8241 10.4013 22.8903 9.25434 22.8903 8.02542V0H21.203V7.18349L21.2169 8.6913C21.2361 9.42168 21.2657 10.1521 21.3128 10.8824C21.3372 11.2485 21.3651 11.6163 21.4104 11.9824C21.5307 12.9899 21.7172 14.0009 22.0902 14.9579C22.411 15.7841 22.8816 16.5511 23.5126 17.1804C24.0826 17.7522 24.7694 18.1949 25.5103 18.5104C26.4394 18.9079 27.5009 19.1101 28.498 19.2547C29.2127 19.3576 29.9378 19.3925 30.6578 19.4256C31.3271 19.4569 32 19.4901 32.6711 19.4901H40.7349V17.8027H32.6711L32.6694 17.7992Z" fill="#F04E30"></path>
              <path d="M109.725 14.306L109.728 16.2827L113.57 16.267L113.565 26.372H115.617V16.267H119.363V14.306H109.723H109.725ZM44.5977 14.2746V26.3703H46.6842L46.6807 16.3821H48.9904C50.4842 16.3821 51.4674 16.8841 51.4674 18.6429V26.3703H53.5452V17.4593C53.9304 16.973 55.0007 16.4553 56.0989 16.4413C57.5108 16.4413 58.6021 17.2013 58.5759 18.4913V26.3685H60.6555V18.4913C60.7758 16.0021 58.7188 14.2729 56.2854 14.2729C55.0861 14.2432 53.4668 14.4873 52.6266 15.4164C51.7567 14.5465 50.7963 14.2729 48.6679 14.2729H44.5977V14.2746ZM67.2167 24.5766C65.5084 24.5051 64.5514 23.895 64.3143 22.0595C64.3056 21.9479 64.3265 21.1984 64.3265 21.0816C64.8007 21.0816 71.6303 21.0816 72.216 21.0816C72.2125 20.6981 72.2108 19.8213 72.1864 19.2025C72.1253 18.0032 71.8308 16.8144 71.0498 15.8853C70.1817 14.8237 69.0051 14.3286 67.2167 14.292C67.126 14.292 66.9604 14.3025 66.8367 14.3077C64.581 14.3827 62.308 15.7981 62.308 18.9933V21.2942C62.308 25.4185 64.9697 26.501 67.2742 26.501C70.37 26.501 71.8395 24.7474 72.0818 22.9554C72.0818 22.9554 70.7151 22.9502 70.0632 22.9502C69.4967 24.2489 68.6408 24.533 67.2167 24.5748M64.3509 18.7423V18.7492C64.4172 17.5029 65.3933 16.4396 67.1225 16.3786C67.6437 16.3681 68.6548 16.4256 69.3712 17.1421C69.8906 17.8341 70.0283 18.296 70.0998 19.0682C70.0998 19.0682 64.9976 19.0647 64.3422 19.0647C64.3422 18.9497 64.3387 19.0525 64.3509 18.744M127.937 20.2605V24.3918C127.937 24.3918 126.623 24.3813 125.303 24.3813C125.004 24.3813 124.676 24.3813 124.42 24.3569C123.783 24.2994 122.64 24.0118 122.669 22.6016C122.697 21.5749 123.4 20.977 124.613 20.8009L127.937 20.2605ZM124.264 18.9584C121.796 19.3367 120.618 20.6109 120.618 22.7515C120.618 24.3691 121.299 25.422 122.751 26.0181C123.267 26.2308 123.991 26.3319 124.692 26.3546C124.895 26.3615 124.899 26.3493 125.145 26.3493C127.198 26.3493 129.168 26.3493 129.999 26.3493V18.0119C129.999 15.7057 128.5 14.2729 125.844 14.2729H125.303L122.099 14.2885C122.099 14.2885 122.099 16.0944 122.099 16.3908C122.79 16.3908 123.307 16.3855 125.157 16.3733H125.873C127.707 16.4239 127.815 17.2536 127.887 18.0346L127.894 18.3849L124.266 18.9567L124.264 18.9584ZM79.654 14.2746H74.3566V26.3737C76.1816 26.3668 78.4198 26.372 79.1153 26.3737C79.2949 26.3737 79.5058 26.365 79.6801 26.3528C82.9171 26.1332 84.9636 24.2663 84.9305 20.4715C84.9305 16.0125 82.558 14.3356 79.654 14.2729M79.6714 24.2733C79.4797 24.2785 79.3838 24.2889 79.2635 24.2889H76.4344V16.3803C76.4344 16.3803 77.367 16.3733 78.7841 16.3803C79.0543 16.3803 79.3541 16.3803 79.654 16.4099C81.1008 16.518 82.8457 17.0305 82.8753 20.4994C82.8474 23.3999 81.1182 24.2367 79.6731 24.2733M98.5095 14.2763V26.3685H100.559V16.3507C100.559 16.3507 102.4 16.3193 104.049 16.3507C105.85 16.3507 106.19 17.339 106.19 19.0194V26.3685H108.268V17.8306C108.268 15.4774 106.549 14.2746 104.288 14.2746H98.5095V14.2763ZM93.9512 20.2588V24.39C93.9512 24.39 92.6369 24.3796 91.3173 24.3796C91.0175 24.3796 90.6898 24.3796 90.4336 24.3552C89.7973 24.2977 88.6538 24.01 88.6834 22.5998C88.7113 21.5731 89.4138 20.9752 90.627 20.7992L93.9512 20.2588ZM90.2784 18.9567C87.8101 19.3349 86.6318 20.6092 86.6318 22.7497C86.6318 24.3674 87.3133 25.4202 88.7636 26.0164C89.2796 26.2291 90.003 26.3302 90.7037 26.3528C90.9077 26.3598 90.9112 26.3476 91.157 26.3476C93.2104 26.3476 95.1801 26.3476 96.0099 26.3476V18.0101C96.0099 15.704 94.5125 14.2711 91.8542 14.2711H91.3138L88.11 14.2868C88.11 14.2868 88.11 16.0927 88.11 16.389C88.8002 16.389 89.318 16.3838 91.1674 16.3716H91.8839C93.7176 16.4221 93.824 17.2519 93.8972 18.0328L93.9042 18.3832L90.2767 18.9549L90.2784 18.9567Z" fill="#6D6E71"></path>
            </svg>