<?xml version="1.0" encoding="utf-8"?>
<!-- Generator: Adobe Illustrator 25.2.1, SVG Export Plug-In . SVG Version: 6.00 Build 0)  -->
<svg version="1.1" id="Layer_1" xmlns="http://www.w3.org/2000/svg" xmlns:xlink="http://www.w3.org/1999/xlink" x="0px" y="0px"
	 viewBox="0 0 5520 2044" style="enable-background:new 0 0 5520 2044;" xml:space="preserve">
<style type="text/css">
	.st0{fill:#00B1AC;}
	.st1{fill:#472D7A;}
	.st2{fill:#67276E;}
	.st3{fill:#F79647;}
	.st4{fill:#0BA557;}
	.st5{fill:#7C7580;}
	.st6{fill:#214E9C;}
	.st7{fill:url(#SVGID_1_);}
	.st8{fill-rule:evenodd;clip-rule:evenodd;fill:url(#SVGID_2_);}
	.st9{fill-rule:evenodd;clip-rule:evenodd;fill:url(#SVGID_3_);}
	.st10{fill-rule:evenodd;clip-rule:evenodd;fill:url(#SVGID_4_);}
	.st11{fill:none;stroke:#595A5C;stroke-width:13;stroke-miterlimit:10;}
	.st12{fill:#7E3A93;}
	.st13{fill:#211E1F;}
</style>
<polyline id="XMLID_00000080181188725558340210000007976506267474352532_" class="st0" points="57.9,1819.6 16.6,1819.6 
	16.6,1808.7 30.2,1808.7 30.2,1723.9 16.6,1723.9 16.6,1713.1 57.9,1713.1 57.9,1723.9 44.3,1723.9 44.3,1808.7 57.9,1808.7 
	57.9,1819.6 "/>
<path id="XMLID_00000097494704972270236110000001799221536654421915_" class="st0" d="M97.6,1821.2c-7.3,0-13-2.1-17.2-6.3
	c-4.1-4.1-6.2-10.8-6.2-19.8v-44.3h-9.1v-11.1h9.1v-23h13.4v23h24.7v11.1H87.7v38c0,4.1,0.1,7.2,0.2,9.4c0.2,2.2,0.7,4.2,1.7,6.2
	c0.8,1.7,2.1,3,3.9,3.8c1.8,0.9,4.2,1.3,7.4,1.3c2.2,0,4.3-0.3,6.3-1c2-0.7,3.6-1.2,4.4-1.6h0.8v12.1c-2.5,0.7-5.1,1.3-7.7,1.7
	C102.2,1821,99.8,1821.2,97.6,1821.2"/>
<path id="XMLID_00000172434985979217027840000016099474717611312567_" class="st0" d="M191.6,1821.2c-7.3,0-13-2.1-17.2-6.3
	c-4.1-4.1-6.2-10.8-6.2-19.8v-44.3h-9.1v-11.1h9.1v-23h13.4v23h24.7v11.1h-24.7v38c0,4.1,0.1,7.2,0.2,9.4c0.1,2.2,0.7,4.2,1.7,6.2
	c0.8,1.7,2.1,3,3.9,3.8c1.8,0.9,4.2,1.3,7.4,1.3c2.2,0,4.3-0.3,6.3-1c2-0.7,3.5-1.2,4.4-1.6h0.8v12.1c-2.5,0.7-5.1,1.3-7.7,1.7
	C196.2,1821,193.8,1821.2,191.6,1821.2"/>
<path id="XMLID_00000105384549541239266040000002085076655676984463_" class="st0" d="M259.7,1811.1c-1.1,0.8-2.6,2-4.4,3.4
	c-1.8,1.5-3.6,2.6-5.4,3.5c-2.3,1.2-4.7,2.2-6.9,2.8c-2.2,0.7-5.4,1-9.3,1c-3.3,0-6.5-0.6-9.4-1.8c-3-1.2-5.5-3-7.8-5.2
	c-2.2-2.2-3.9-4.9-5.2-8.1c-1.3-3.2-1.9-6.6-1.9-10.2c0-5.5,1.2-10.3,3.5-14.1c2.3-3.9,6-7,11.1-9.3c4.5-2.1,9.8-3.5,15.9-4.2
	c6.1-0.8,12.7-1.4,19.7-1.8v-2.6c0-3.1-0.5-5.7-1.4-7.6c-1-1.9-2.3-3.4-4-4.4c-1.7-1.1-3.8-1.8-6.3-2.2c-2.5-0.4-5-0.6-7.6-0.6
	c-3.1,0-6.8,0.5-11,1.4c-4.2,0.9-8.4,2.3-12.5,4.1h-0.8v-13.7c2.5-0.7,6-1.5,10.6-2.3s9.2-1.3,13.7-1.3c5.5,0,10.1,0.4,13.9,1.3
	c3.8,0.9,7.1,2.4,10.2,4.6c2.9,2.2,5,5,6.5,8.5c1.4,3.5,2.2,7.8,2.2,12.7v54.6h-13.4v-8.4 M259.7,1799.9v-22.1
	c-3.2,0.2-7.2,0.7-12.1,1.2c-4.9,0.5-8.9,1.2-11.9,2.1c-3.6,1.1-6.5,2.8-8.9,5c-2.3,2.3-3.5,5.4-3.5,9.5c0,4.6,1.3,8.1,3.9,10.4
	s6.3,3.5,11.3,3.5c4.2,0,8.1-0.9,11.5-2.8C253.5,1804.8,256.7,1802.6,259.7,1799.9z"/>
<polyline id="XMLID_00000176038079946997656370000016258349246287871161_" class="st0" points="357.3,1819.6 339.6,1819.6 
	309.8,1781 304.5,1786.2 304.5,1819.6 291.1,1819.6 291.1,1708.3 304.5,1708.3 304.5,1773.5 336.1,1739.7 352.9,1739.7 
	320.1,1773.1 357.3,1819.6 "/>
<path id="XMLID_00000134209771564021374480000008460089725804113035_" class="st0" d="M398.7,1821.5c-12.7,0-22.6-3.6-29.7-10.8
	c-7-7.2-10.5-17.4-10.5-30.6c0-13,3.4-23.4,10.2-31.1c6.8-7.7,15.7-11.6,26.8-11.6c5,0,9.4,0.7,13.2,2.2c3.8,1.4,7.1,3.7,10,6.7
	c2.8,3.1,5,6.8,6.6,11.2c1.5,4.4,2.3,9.8,2.3,16.2v7.3h-55.4c0,9.4,2.3,16.4,7,21.3c4.7,4.9,11.1,7.4,19.4,7.4c3,0,5.8-0.4,8.7-1
	s5.4-1.5,7.7-2.6c2.4-1.1,4.5-2.2,6.2-3.2c1.7-1,3.1-2,4.1-2.9h0.8v14.6c-1.5,0.6-3.5,1.4-5.8,2.3c-2.3,0.9-4.4,1.7-6.3,2.2
	c-2.6,0.7-5,1.2-7.1,1.7C404.7,1821.3,402,1821.5,398.7,1821.5 M414.5,1770.8c-0.1-3.6-0.6-6.8-1.3-9.4c-0.8-2.6-1.8-4.9-3.3-6.6
	c-1.5-2-3.6-3.5-6-4.6c-2.5-1-5.5-1.5-9.1-1.5c-3.6,0-6.6,0.6-9.1,1.6c-2.5,1-4.7,2.6-6.8,4.7c-2,2.1-3.5,4.4-4.6,7
	c-1,2.5-1.7,5.5-2,8.9h42.2V1770.8z"/>
<path id="XMLID_00000005231414610896363760000009180967538887955851_" class="st0" d="M464,1821.6c-5.4,0-10.3-0.7-14.9-2.2
	c-4.7-1.4-8.5-3-11.6-4.6v-15.1h0.7l4.1,3c1.5,1.1,3.6,2.2,6.2,3.4c2.3,1,4.8,2,7.6,2.8c2.7,0.8,5.6,1.2,8.6,1.2
	c2.2,0,4.4-0.2,6.8-0.7c2.4-0.5,4.2-1.1,5.5-1.9c1.7-1.1,2.8-2.3,3.6-3.5s1.1-3.1,1.1-5.6c0-3.2-0.9-5.6-2.6-7.3
	c-1.7-1.6-4.8-3-9.2-4.1c-1.7-0.4-3.9-0.9-6.7-1.5c-2.8-0.6-5.4-1.2-7.6-1.8c-6.1-1.8-10.5-4.5-13.3-8.2c-2.8-3.7-4.1-8.2-4.1-13.4
	c0-7.2,2.7-13,8.1-17.6c5.4-4.6,12.7-6.8,21.7-6.8c4.4,0,8.9,0.6,13.3,1.6c4.5,1.1,8.2,2.5,11.3,4.2v14.4h-0.7
	c-3.4-2.7-7.3-4.9-11.5-6.5c-4.2-1.6-8.5-2.3-12.7-2.3c-4.4,0-8.2,0.9-11.3,2.8c-3.1,1.8-4.6,4.7-4.6,8.5c0,3.3,0.9,5.8,2.7,7.4
	c1.8,1.7,4.7,3,8.7,4.1c2,0.5,4.2,1,6.6,1.5c2.5,0.5,5,1.1,7.8,1.7c5.9,1.5,10.3,3.9,13.3,7.4c3,3.4,4.5,8.1,4.5,14
	c0,3.4-0.7,6.7-2,9.8s-3.4,5.7-6,7.9c-2.8,2.4-6.1,4.2-9.7,5.4C474,1820.9,469.4,1821.6,464,1821.6"/>
<path id="XMLID_00000102514712434626594420000002389880978141787024_" class="st0" d="M598.8,1811.1c-1.1,0.8-2.6,2-4.4,3.4
	c-1.8,1.5-3.6,2.6-5.4,3.5c-2.4,1.2-4.7,2.2-6.9,2.8c-2.2,0.7-5.3,1-9.4,1c-3.3,0-6.4-0.6-9.4-1.8c-3-1.2-5.6-3-7.8-5.2
	c-2.2-2.2-3.9-4.9-5.1-8.1c-1.3-3.2-2-6.6-2-10.2c0-5.5,1.2-10.3,3.5-14.1c2.3-3.9,6-7,11.1-9.3c4.5-2.1,9.8-3.5,15.9-4.2
	c6.1-0.8,12.7-1.4,19.7-1.8v-2.6c0-3.1-0.5-5.7-1.4-7.6c-0.9-1.9-2.3-3.4-4-4.4c-1.7-1.1-3.8-1.8-6.3-2.2c-2.5-0.4-5-0.6-7.6-0.6
	c-3.1,0-6.8,0.5-11,1.4c-4.2,0.9-8.4,2.3-12.5,4.1h-0.8v-13.7c2.5-0.7,6-1.5,10.6-2.3s9.2-1.3,13.7-1.3c5.5,0,10.1,0.4,13.8,1.3
	c3.8,0.9,7.1,2.4,10.2,4.6c2.9,2.2,5,5,6.5,8.5c1.5,3.5,2.2,7.8,2.2,12.7v54.6h-13.3V1811.1 M598.8,1799.9v-22.1
	c-3.2,0.2-7.3,0.7-12.1,1.2c-4.9,0.5-8.9,1.2-11.9,2.1c-3.6,1.1-6.5,2.8-8.9,5c-2.3,2.3-3.5,5.4-3.5,9.5c0,4.6,1.3,8.1,3.9,10.4
	c2.6,2.3,6.3,3.5,11.3,3.5c4.2,0,8.1-0.9,11.5-2.8C592.5,1804.8,595.7,1802.6,598.8,1799.9z"/>
<rect id="XMLID_00000151540028811493419740000000521144282512960667_" x="676.8" y="1708.3" class="st0" width="13.4" height="111.3"/>
<path id="XMLID_00000067939846305776505980000014418663946253382568_" class="st0" d="M776,1779.7c0,13.5-3.3,23.9-9.7,31.1
	c-6.5,7.3-15.1,11-25.9,11c-11.1,0-19.9-3.8-26.2-11.3c-6.4-7.6-9.5-17.8-9.5-30.8c0-13.3,3.3-23.7,9.8-31.1
	c6.6-7.4,15.2-11.1,25.9-11.1c10.8,0,19.4,3.7,25.9,11.1C772.7,1755.9,776,1766.3,776,1779.7 M762.1,1779.7c0-10.3-1.9-18-5.7-23.1
	c-3.8-5-9.1-7.6-16.1-7.6c-7,0-12.4,2.5-16.2,7.6c-3.8,5-5.7,12.7-5.7,23.1c0,10,1.9,17.6,5.7,22.8c3.8,5.2,9.2,7.8,16.2,7.8
	c6.9,0,12.2-2.5,16.1-7.6C760.2,1797.5,762.1,1789.9,762.1,1779.7z"/>
<path id="XMLID_00000095303045463358152760000010995196843882156695_" class="st0" d="M813.1,1821.2c-7.3,0-13-2.1-17.2-6.3
	c-4.1-4.1-6.2-10.8-6.2-19.8v-44.3h-9.1v-11.1h9.1v-23h13.5v23H828v11.1h-24.7v38c0,4.1,0.1,7.2,0.2,9.4c0.2,2.2,0.7,4.2,1.7,6.2
	c0.8,1.7,2.1,3,3.9,3.8c1.8,0.9,4.2,1.3,7.4,1.3c2.2,0,4.3-0.3,6.3-1c2-0.7,3.6-1.2,4.4-1.6h0.8v12.1c-2.5,0.7-5.1,1.3-7.7,1.7
	C817.6,1821,815.2,1821.2,813.1,1821.2"/>
<path id="XMLID_00000080185255017335562920000008994410356896323247_" class="st0" d="M907.1,1821.2c-7.4,0-13-2.1-17.2-6.3
	c-4.1-4.1-6.2-10.8-6.2-19.8v-44.3h-9.1v-11.1h9.1v-23h13.4v23h24.7v11.1h-24.7v38c0,4.1,0.1,7.2,0.2,9.4c0.2,2.2,0.7,4.2,1.7,6.2
	c0.8,1.7,2.1,3,3.9,3.8c1.8,0.9,4.2,1.3,7.4,1.3c2.2,0,4.3-0.3,6.3-1s3.5-1.2,4.4-1.6h0.8v12.1c-2.5,0.7-5.1,1.3-7.7,1.7
	C911.7,1821,909.3,1821.2,907.1,1821.2"/>
<path id="XMLID_00000153697894353634251960000012751303072395158659_" class="st0" d="M996.3,1779.7c0,13.5-3.3,23.9-9.7,31.1
	c-6.5,7.3-15.1,11-25.9,11c-11.1,0-19.8-3.8-26.2-11.3c-6.4-7.6-9.5-17.8-9.5-30.8c0-13.3,3.3-23.7,9.8-31.1
	c6.5-7.4,15.2-11.1,25.9-11.1c10.8,0,19.4,3.7,25.9,11.1C993.1,1755.9,996.3,1766.3,996.3,1779.7 M982.5,1779.7
	c0-10.3-1.9-18-5.7-23.1c-3.8-5-9.2-7.6-16.1-7.6c-7,0-12.4,2.5-16.2,7.6c-3.8,5-5.7,12.7-5.7,23.1c0,10,1.9,17.6,5.7,22.8
	c3.8,5.2,9.2,7.8,16.2,7.8c6.9,0,12.2-2.5,16.1-7.6C980.5,1797.5,982.5,1789.9,982.5,1779.7z"/>
<path id="XMLID_00000115512440262941011370000002538773288107234235_" class="st0" d="M1079.8,1821.2c-7.3,0-13-2.1-17.2-6.3
	c-4.1-4.1-6.2-10.8-6.2-19.8v-44.3h-9.1v-11.1h9.1v-23h13.4v23h24.7v11.1h-24.7v38c0,4.1,0.1,7.2,0.2,9.4c0.1,2.2,0.7,4.2,1.7,6.2
	c0.8,1.7,2.1,3,3.9,3.8c1.8,0.9,4.2,1.3,7.4,1.3c2.2,0,4.3-0.3,6.3-1s3.6-1.2,4.4-1.6h0.8v12.1c-2.5,0.7-5.1,1.3-7.7,1.7
	C1084.3,1821,1081.9,1821.2,1079.8,1821.2"/>
<path id="XMLID_00000095332413328008142630000006096431429648781496_" class="st0" d="M1145.6,1754.1h-0.7l-3.2-0.6
	c-1.1-0.1-2.5-0.1-4.1-0.1c-3.6,0-7.2,0.8-10.8,2.3c-3.6,1.6-7,3.9-10.2,7v56.7h-13.4v-79.9h13.4v11.9c4.9-4.4,9.2-7.4,12.9-9.2
	c3.6-1.8,7.2-2.6,10.6-2.6l3.1,0.1l2.3,0.3L1145.6,1754.1"/>
<path id="XMLID_00000023269499174372204890000010425828607815443610_" class="st0" d="M1190.9,1821.5c-12.7,0-22.6-3.6-29.7-10.8
	c-7-7.2-10.5-17.4-10.5-30.6c0-13,3.4-23.4,10.2-31.1c6.8-7.7,15.7-11.6,26.8-11.6c5,0,9.4,0.7,13.2,2.2c3.8,1.4,7.1,3.7,10,6.7
	c2.8,3.1,5,6.8,6.6,11.2c1.5,4.4,2.3,9.8,2.3,16.2v7.3h-55.4c0,9.4,2.3,16.4,7,21.3c4.7,4.9,11.1,7.4,19.4,7.4c3,0,5.8-0.4,8.7-1
	c2.8-0.7,5.4-1.5,7.7-2.6c2.4-1.1,4.5-2.2,6.2-3.2c1.7-1,3.1-2,4.2-2.9h0.8v14.6c-1.5,0.6-3.5,1.4-5.8,2.3c-2.3,0.9-4.4,1.7-6.3,2.2
	c-2.6,0.7-5,1.2-7.1,1.7C1196.8,1821.3,1194.1,1821.5,1190.9,1821.5 M1206.6,1770.8c-0.1-3.6-0.6-6.8-1.3-9.4
	c-0.8-2.6-1.8-4.9-3.3-6.6c-1.6-2-3.6-3.5-6-4.6c-2.5-1-5.5-1.5-9.1-1.5c-3.6,0-6.6,0.6-9.1,1.6c-2.5,1-4.7,2.6-6.8,4.7
	c-2,2.1-3.5,4.4-4.6,7c-1,2.5-1.7,5.5-2,8.9h42.2V1770.8z"/>
<path id="XMLID_00000052794620678038190360000015484176496521184642_" class="st0" d="M1279.2,1811.1c-1.1,0.8-2.6,2-4.4,3.4
	c-1.8,1.5-3.6,2.6-5.4,3.5c-2.3,1.2-4.7,2.2-6.9,2.8c-2.2,0.7-5.4,1-9.3,1c-3.3,0-6.5-0.6-9.4-1.8c-3-1.2-5.6-3-7.8-5.2
	c-2.2-2.2-3.9-4.9-5.2-8.1c-1.3-3.2-1.9-6.6-1.9-10.2c0-5.5,1.2-10.3,3.5-14.1c2.3-3.9,6-7,11.1-9.3c4.5-2.1,9.8-3.5,15.9-4.2
	c6.1-0.8,12.7-1.4,19.7-1.8v-2.6c0-3.1-0.5-5.7-1.4-7.6c-0.9-1.9-2.3-3.4-4-4.4c-1.7-1.1-3.8-1.8-6.3-2.2c-2.5-0.4-5-0.6-7.6-0.6
	c-3.1,0-6.8,0.5-11,1.4c-4.2,0.9-8.4,2.3-12.5,4.1h-0.8v-13.7c2.5-0.7,6-1.5,10.6-2.3s9.2-1.3,13.7-1.3c5.5,0,10.2,0.4,13.9,1.3
	c3.8,0.9,7.1,2.4,10.2,4.6c2.9,2.2,5,5,6.5,8.5c1.4,3.5,2.2,7.8,2.2,12.7v54.6h-13.3v-8.4 M1279.2,1799.9v-22.1
	c-3.2,0.2-7.3,0.7-12.1,1.2c-4.9,0.5-8.9,1.2-11.9,2.1c-3.6,1.1-6.5,2.8-8.9,5c-2.3,2.3-3.5,5.4-3.5,9.5c0,4.6,1.3,8.1,3.9,10.4
	s6.3,3.5,11.3,3.5c4.2,0,8.1-0.9,11.5-2.8C1273,1804.8,1276.2,1802.6,1279.2,1799.9z"/>
<path id="XMLID_00000042724544416365068290000016897949193294175647_" class="st0" d="M1334.8,1821.2c-7.3,0-13-2.1-17.2-6.3
	c-4.1-4.1-6.2-10.8-6.2-19.8v-44.3h-9.1v-11.1h9.1v-23h13.4v23h24.7v11.1h-24.7v38c0,4.1,0.1,7.2,0.2,9.4c0.1,2.2,0.7,4.2,1.7,6.2
	c0.8,1.7,2.1,3,3.9,3.8c1.8,0.9,4.3,1.3,7.4,1.3c2.2,0,4.3-0.3,6.3-1s3.5-1.2,4.4-1.6h0.8v12.1c-2.5,0.7-5.1,1.3-7.7,1.7
	C1339.3,1821,1336.9,1821.2,1334.8,1821.2"/>
<path id="XMLID_00000005256405518056522230000007791916560841787832_" class="st0" d="M1428.8,1821.2c-7.3,0-13-2.1-17.2-6.3
	c-4.1-4.1-6.2-10.8-6.2-19.8v-44.3h-9.1v-11.1h9.1v-23h13.4v23h24.7v11.1h-24.7v38c0,4.1,0.1,7.2,0.2,9.4c0.2,2.2,0.7,4.2,1.7,6.2
	c0.8,1.7,2.1,3,3.9,3.8c1.8,0.9,4.2,1.3,7.4,1.3c2.2,0,4.3-0.3,6.3-1s3.5-1.2,4.4-1.6h0.8v12.1c-2.5,0.7-5.1,1.3-7.7,1.7
	C1433.4,1821,1431,1821.2,1428.8,1821.2"/>
<path id="XMLID_00000092453639058688697450000016409801994055909548_" class="st0" d="M1515.1,1819.6h-13.5v-45.5
	c0-3.7-0.2-7.1-0.6-10.3c-0.4-3.2-1-5.7-2-7.6c-1.1-2-2.6-3.5-4.6-4.5c-2-1-4.6-1.5-8-1.5c-3.3,0-6.8,0.9-10.3,2.7
	c-3.6,1.8-7,4.1-10.4,7v59.7h-13.5v-111.3h13.5v40.3c4-3.6,7.9-6.3,11.9-8.2c3.9-1.9,8.1-2.8,12.4-2.8c7.9,0,14,2.6,18.5,7.8
	s6.6,12.7,6.6,22.5L1515.1,1819.6"/>
<path id="XMLID_00000148655911747936826030000000944352801657516717_" class="st0" d="M1568.9,1821.5c-12.7,0-22.6-3.6-29.7-10.8
	c-7-7.2-10.5-17.4-10.5-30.6c0-13,3.4-23.4,10.2-31.1c6.8-7.7,15.7-11.6,26.8-11.6c4.9,0,9.4,0.7,13.2,2.2c3.8,1.4,7.1,3.7,10,6.7
	c2.9,3.1,5,6.8,6.6,11.2c1.5,4.4,2.3,9.8,2.3,16.2v7.3h-55.4c0,9.4,2.3,16.4,7,21.3c4.7,4.9,11.1,7.4,19.4,7.4c3,0,5.8-0.4,8.7-1
	c2.8-0.7,5.4-1.5,7.7-2.6c2.5-1.1,4.5-2.2,6.2-3.2c1.7-1,3.1-2,4.2-2.9h0.8v14.6c-1.5,0.6-3.5,1.4-5.8,2.3c-2.3,0.9-4.4,1.7-6.3,2.2
	c-2.6,0.7-5,1.2-7.1,1.7C1574.9,1821.3,1572.2,1821.5,1568.9,1821.5 M1584.7,1770.8c-0.1-3.6-0.6-6.8-1.3-9.4
	c-0.8-2.6-1.8-4.9-3.3-6.6c-1.6-2-3.6-3.5-6-4.6c-2.5-1-5.5-1.5-9.1-1.5c-3.6,0-6.6,0.6-9.1,1.6c-2.5,1-4.8,2.6-6.8,4.7
	s-3.6,4.4-4.6,7c-1,2.5-1.7,5.5-2,8.9h42.3V1770.8z"/>
<rect id="XMLID_00000090265553895401309590000011549610364673900928_" x="1659.3" y="1708.3" class="st0" width="13.5" height="111.3"/>
<path id="XMLID_00000137131953391631485280000006826887845572138666_" class="st0" d="M1707.4,1726.3h-15.3v-14h15.3V1726.3z
	 M1706.5,1819.6h-13.4v-79.9h13.4V1819.6z"/>
<path id="XMLID_00000058580664980219172800000008400480707856987306_" class="st0" d="M1751,1821.2c-7.3,0-13-2.1-17.2-6.3
	c-4.1-4.1-6.2-10.8-6.2-19.8v-44.3h-9.1v-11.1h9.1v-23h13.4v23h24.7v11.1h-24.7v38c0,4.1,0.1,7.2,0.2,9.4c0.2,2.2,0.7,4.2,1.7,6.2
	c0.8,1.7,2.1,3,3.9,3.8c1.8,0.9,4.2,1.3,7.4,1.3c2.2,0,4.3-0.3,6.3-1s3.6-1.2,4.4-1.6h0.8v12.1c-2.5,0.7-5.1,1.3-7.7,1.7
	C1755.6,1821,1753.2,1821.2,1751,1821.2"/>
<path id="XMLID_00000067220812247162168770000010006051313869805747_" class="st0" d="M1798.7,1821.2c-7.4,0-13-2.1-17.2-6.3
	c-4.1-4.1-6.2-10.8-6.2-19.8v-44.3h-9.1v-11.1h9.1v-23h13.4v23h24.7v11.1h-24.7v38c0,4.1,0.1,7.2,0.2,9.4c0.1,2.2,0.7,4.2,1.7,6.2
	c0.8,1.7,2.1,3,3.9,3.8c1.8,0.9,4.2,1.3,7.4,1.3c2.2,0,4.3-0.3,6.3-1s3.6-1.2,4.4-1.6h0.8v12.1c-2.5,0.7-5.1,1.3-7.7,1.7
	C1803.2,1821,1800.8,1821.2,1798.7,1821.2"/>
<rect id="XMLID_00000145037856567799979140000003232450827929056654_" x="1822.4" y="1708.3" class="st0" width="13.4" height="111.3"/>
<path id="XMLID_00000183955976578817264100000006416921525408367281_" class="st0" d="M1890.6,1821.5c-12.7,0-22.6-3.6-29.7-10.8
	c-7-7.2-10.5-17.4-10.5-30.6c0-13,3.4-23.4,10.2-31.1c6.8-7.7,15.7-11.6,26.8-11.6c5,0,9.4,0.7,13.2,2.2c3.8,1.4,7.1,3.7,10,6.7
	c2.9,3.1,5,6.8,6.6,11.2c1.5,4.4,2.3,9.8,2.3,16.2v7.3h-55.4c0,9.4,2.3,16.4,7,21.3c4.7,4.9,11.1,7.4,19.4,7.4c3,0,5.8-0.4,8.7-1
	s5.4-1.5,7.7-2.6c2.4-1.1,4.5-2.2,6.2-3.2c1.7-1,3.1-2,4.2-2.9h0.8v14.6c-1.5,0.6-3.5,1.4-5.8,2.3c-2.3,0.9-4.4,1.7-6.3,2.2
	c-2.6,0.7-5,1.2-7.1,1.7C1896.5,1821.3,1893.8,1821.5,1890.6,1821.5 M1906.3,1770.8c-0.1-3.6-0.6-6.8-1.3-9.4
	c-0.8-2.6-1.8-4.9-3.3-6.6c-1.6-2-3.6-3.5-6-4.6c-2.5-1-5.5-1.5-9.1-1.5c-3.6,0-6.6,0.6-9.1,1.6c-2.5,1-4.8,2.6-6.8,4.7
	c-2,2.1-3.5,4.4-4.6,7c-1,2.5-1.7,5.5-2,8.9h42.2V1770.8z"/>
<rect id="XMLID_00000034802876596401601140000005166683329207909817_" x="1938.2" y="1799.2" class="st0" width="17.1" height="20.4"/>
<path id="XMLID_00000085947909123045766980000010667600842367143866_" class="st1" d="M72.2,669.8h13.5c24.1,0,40.6-5.3,49.8-15.8
	c9.4-10.5,13.8-22.3,13.8-35.4c0-11.5-3.7-20.7-11.1-27.5c-7.5-6.6-22.6-10.2-45.6-10.2H72.2L72.2,669.8 M17.4,822.6v-280h104.9
	c21.3,0,37.8,2.6,49,8c11.3,5.3,20.1,13.5,26.6,24.5c6.5,10.8,9.7,23.1,9.7,37c0,16.5-4.7,32-14.1,46.4
	c-9.5,14.6-22.8,25.8-40.1,33.5L245,822.6h-71.1l-69.6-114.4H72.2v114.4L17.4,822.6L17.4,822.6z"/>
<path id="XMLID_00000013887399881049887430000015055283400122316447_" class="st1" d="M386.6,770.3v-42.3h-13.3
	c-18.3,0-31.9,3.2-40.8,9.7c-9,6.6-13.5,14.6-13.5,24.5c0,7.8,2.6,14.5,8.1,19.4c5.4,5.1,11.8,7.6,19.1,7.6c6.5,0,13.2-1.5,20-4.8
	C373,781.3,379.8,776.5,386.6,770.3 M386.6,800.3c-8.2,7.8-15.1,13.5-21,16.8c-6,3.5-12.2,6-18.6,7.8c-6.3,1.7-13.2,2.5-20.3,2.5
	c-18.6,0-33.5-5.8-44.7-17.3c-11.1-11.6-16.8-25.8-16.8-42.4c0-20.5,8.4-37.6,25.2-51.3c16.7-13.7,43.8-20.5,81.3-20.5h14.9V677
	c0-12.8-3.5-21.3-10.6-25.8c-7-4.3-16-6.6-26.8-6.6c-21.5,0-43.4,6.3-65.8,18.6v-38.6c25.5-9.7,50.6-14.3,75.7-14.3
	c15.4,0,29.1,2,41.3,6.2c12.2,4.1,21.8,10.6,29,19.4c7.3,8.7,11,21.8,11,39.2V767c0,11.3,1.7,18.1,5.2,20.6c3.5,2.5,7,3.8,10.3,3.8
	c2,0,4.5-0.3,7.7-0.8l1.4,31.4c-12,3.5-22.5,5.4-31.6,5.4c-10.5,0-19.3-1.8-26.8-5.2c-7.5-3.5-13.3-10.8-17.3-22L386.6,800.3
	L386.6,800.3z"/>
<path id="XMLID_00000106848611999694383550000011907857114973826986_" class="st1" d="M512.6,614.8h56.1v207.7h-56.1V614.8z
	 M512.6,533.1h56.1v46.8h-56.1V533.1z"/>
<path id="XMLID_00000021101575920367249580000007925121397753829048_" class="st1" d="M638.7,822.6V614.8h56.1v39.1
	c10.2-15.9,21.3-27.3,33.5-34c12.3-6.6,24.7-9.8,37.3-9.8c16.5,0,30.5,5.2,42.3,15.6c11.8,10.6,17.8,27.3,17.8,50v146.8h-56.1v-133
	c0-11.3-1-19-3.1-23.1c-2-4-4.9-7-8.5-9.2c-3.5-2-7.5-3.1-12-3.1c-7.6,0-15.6,2.6-24,7.8c-8.3,5-17.5,15-27.1,30v130.7L638.7,822.6"
	/>
<path id="XMLID_00000088817781946587852340000003609256131156819346_" class="st1" d="M949.4,768.3c7.8,8.9,14.9,14.8,21.8,18
	c6.8,3.1,13.7,4.8,20.8,4.8c14.8,0,26-7.5,33.1-22.3c7.3-14.8,11-31.8,11-50.9c0-19.8-3.5-35.3-10.5-46.6
	c-7-11.3-16.8-17.2-29.7-17.2c-8,0-16,3-24.2,8.7c-8,5.8-15.4,13.5-22.5,23.3L949.4,768.3 M893.4,822.6V523.8h55.9v130.4
	c7.1-14.6,16.3-25.7,27.4-33c11.2-7.3,24.5-11,39.6-11c25.1,0,44.8,9.3,58.6,28.3c13.8,19,20.6,43.8,20.6,74.6
	c0,32.6-7.6,59.8-23.1,81.6c-15.4,21.8-37,32.8-64.6,32.8c-7.6,0-14.8-0.8-21.5-2.5c-6.5-1.8-12.7-4.3-18.5-7.8
	c-5.8-3.3-12-8.5-18.6-15.5l-10.3,21L893.4,822.6L893.4,822.6z"/>
<path id="XMLID_00000015327563964110888240000010475704595905362588_" class="st1" d="M1239,792.5c15.8,0,27.8-7,35.8-21
	c8-14,12.2-31.4,12.2-52.8c0-21-4.2-38.6-12.2-52.6c-8-14-20-21-35.8-21s-27.6,7-35.8,21c-8,14-12,31.6-12,52.6
	c0,21.3,4,38.8,12,52.8C1211.4,785.5,1223.2,792.5,1239,792.5 M1239,827.4c-22.5,0-41.8-4.3-58-13.2c-16-8.9-28.3-21.7-36.8-38.8
	c-8.3-17-12.7-35.9-12.7-56.8c0-20.7,4.2-39.4,12.5-56.4c8.3-17,20.6-30,36.8-38.8c16.2-9,35.4-13.3,58.1-13.3
	c22.6,0,42.1,4.4,58.1,13.3c16.1,8.8,28.5,21.8,36.8,38.8c8.5,17,12.7,35.8,12.7,56.4c0,20.8-4.3,39.8-12.7,56.8
	c-8.7,17.2-20.8,30-37,38.8C1280.9,823.1,1261.6,827.4,1239,827.4z"/>
<polyline id="XMLID_00000129904068512669397930000002389244469832897182_" class="st1" points="1434.6,822.6 1376.8,614.8 
	1429,614.8 1469.7,760.3 1513.4,614.8 1561.6,614.8 1600.9,761.2 1645,614.8 1684.2,614.8 1622.4,822.6 1568.6,822.6 1530.6,680.1 
	1488.4,822.6 1434.6,822.6 "/>
<path id="XMLID_00000010296129638243859140000014494039698769502389_" class="st1" d="M242.8,1203.1c-12.3,5.4-23,9-31.9,11
	c-9.2,2-19.5,3.7-30.9,5c-11.6,1.4-23,2-34.3,2c-48.9,0-85.4-13.8-109.5-41.5C11.9,1152,0,1116.7,0,1073.9
	c0-42.9,12-78.3,36.1-105.7c24-27.6,61.8-41.3,113.2-41.3c30.5,0,60.8,3.5,90.9,10.6v45.8c-14.5-5.2-26.5-8.9-35.6-11.2
	c-9.2-2.3-18-4-26.1-5.2c-8.3-1.2-16.5-1.8-24.8-1.8c-32.2,0-55.4,10.5-69.9,31.1c-14.6,20.7-21.8,46.3-21.8,76.9
	c0,31.9,8.2,57.9,24.7,77.7c16.5,19.8,41,29.7,73.6,29.7c27.1,0,54.8-6.8,82.7-20.6V1203.1"/>
<path id="XMLID_00000060015987134074825250000015116667655915831970_" class="st1" d="M293.4,1214.1v-299h56.1v130.2
	c10.2-16,21.3-27.3,33.4-34c12.3-6.5,24.9-9.8,37.3-9.8c16.5,0,30.6,5.2,42.3,15.8c11.8,10.5,17.8,27.1,17.8,49.8v147h-56.1V1081
	c0-11.3-1-18.9-3.2-23.1c-2-4-4.9-7-8.5-9.2c-3.5-2-7.5-3-12-3c-7.6,0-15.6,2.5-24,7.6c-8.3,5-17.3,15.2-27.1,30v130.9L293.4,1214.1
	"/>
<path id="XMLID_00000183960005476631401290000007653658782891070884_" class="st1" d="M548.1,1006.2h55.9v207.9h-55.9V1006.2z
	 M548.1,924.4h55.9v46.8h-55.9V924.4z"/>
<rect id="XMLID_00000149355244042339450600000008268811681102789055_" x="674.1" y="915.2" class="st1" width="56.1" height="299"/>
<path id="XMLID_00000116944588349130748710000006833787922548084864_" class="st1" d="M929.2,1060.5c-7.6-8.9-14.9-14.8-21.8-18
	c-6.6-3-13.7-4.7-20.6-4.7c-14.8,0-26,7.3-33.3,21.8c-7.3,14.6-11,31.6-11,51.2c0,19.5,3.3,34.9,10.2,46.4
	c7,11.6,16.8,17.3,29.8,17.3c8.3,0,16.5-3,24.7-8.9c8-5.8,15.4-13.5,22.1-23.1L929.2,1060.5 M929.2,1214.1v-39.4
	c-7.1,14.6-16.3,25.8-27.5,33.2c-11.1,7.3-24.5,11-39.6,11c-25.2,0-44.8-9.5-58.6-28.3c-13.8-18.8-20.6-43.8-20.6-74.6
	c0-32.8,7.6-59.9,23.1-81.8c15.5-21.8,37-32.6,64.6-32.6c7.5,0,14.3,0.7,20.7,2.3c6.2,1.5,12.1,4,17.8,7.3c5.8,3.2,12.5,8.7,20.1,16
	v-112h55.9v299h-56V1214.1z"/>
<path id="XMLID_00000001658209389183563680000011600397974646237368_" class="st1" d="M1057,1214.1v-207.9h56.1v39.1
	c6.6-13.3,15.8-24,27.5-31.9c11.5-7.8,24.5-11.9,38.8-11.9c3.3,0,6.8,0.4,10.3,1v50.1c-7.8-3-15.1-4.3-22.1-4.3
	c-11,0-21.2,2.8-30.3,8.3c-9,5.7-17.2,14.1-24.1,25.5v132H1057"/>
<path id="XMLID_00000047759373119804758700000011704641550584217276_" class="st1" d="M1272.8,1089.6h73.8c0-19-3.1-32.7-9.5-40.8
	s-14.5-12.3-24.5-12.3c-10.8,0-19.6,4.5-26.6,13.5C1278.9,1059.2,1274.6,1072.3,1272.8,1089.6 M1401.6,1207
	c-26.5,8-51.6,11.8-75.4,11.8c-22.5,0-42.1-4.1-58.9-12.7c-16.8-8.3-29.8-21.5-38.9-39.3c-9-17.8-13.7-37.3-13.7-58.3
	c0-19.3,3.8-37.3,11.6-53.8c7.6-16.5,19-29.5,33.7-38.9c14.8-9.7,33-14.3,54.4-14.3c26.5,0,47.6,8.4,63.4,25.3
	c15.8,17,23.8,48.5,23.8,94.4h-127.8c1.2,14.1,4.5,25.2,9.5,33.2c5,8.2,12,14.5,20.5,19.3c8.7,4.7,20.3,7,34.8,7
	c18.6,0,39.6-4.4,63.1-13L1401.6,1207L1401.6,1207z"/>
<path id="XMLID_00000148660312628043370430000017559859671165508506_" class="st1" d="M1460.4,1214.1v-207.9h56.1v39.1
	c10-16,21.2-27.3,33.5-34c12.1-6.5,24.6-9.8,37.3-9.8c16.3,0,30.5,5.2,42.3,15.8c11.8,10.5,17.7,27.1,17.7,49.8v147h-55.9V1081
	c0-11.3-1.2-18.9-3.2-23.1c-2-4-5-7-8.5-9.2c-3.7-2-7.7-3-12-3c-7.8,0-15.8,2.5-24.1,7.6c-8.3,5-17.3,15.2-26.9,30v130.9
	L1460.4,1214.1"/>
<path id="XMLID_00000109733929123236597660000003732594232394343079_" class="st1" d="M1720.9,975.9h-23.3v-60.8h60.8v47.1
	c0,18.8-2.3,33-6.6,42.3c-4.5,9.2-11.1,16.8-20.2,23c-9,6.2-20.3,9.2-34,9.2v-21c6.6,0,12.2-3,16.7-9c4.3-6,6.6-14.3,6.6-24.8V975.9
	"/>
<path id="XMLID_00000078737663229037768690000000051624656785120189_" class="st1" d="M1792.2,1207.5v-41.2
	c27.6,11.7,51.4,17.5,71.1,17.5c10.5,0,18.8-2.3,25.2-6.6c6.2-4.5,9.4-10,9.4-16.8c0-6-2.3-11-7-15c-4.7-4-11.8-7.8-21.3-11.6
	l-19-7.5c-19.6-7.8-34-16.5-43.2-26c-9.3-9.3-14.1-21.5-14.1-36.5c0-18.1,7.1-33,21.2-44.8c14.1-11.6,35.6-17.5,64.4-17.5
	c17,0,37.2,2.3,60.5,7.3v39.4c-22.5-7.8-41.2-11.8-55.8-11.8c-11.7,0-20.3,2-26.1,6c-5.8,4-8.9,9.2-8.9,15.3c0,5,2,9.4,5.8,13.2
	c3.6,3.8,10.3,7.5,20,11.1l16.3,6.3c26.8,10.2,44.4,20.2,52.8,29.7c8.2,9.7,12.3,21.3,12.3,34.8c0,17.7-7.5,33-22.6,46.1
	c-14.9,13.2-37,19.8-65.8,19.8C1842.7,1218.8,1817.7,1215,1792.2,1207.5"/>
<polyline id="XMLID_00000119117092013218700870000015199879456972339634_" class="st1" points="17.4,1594.4 17.4,1314.2 
	75.7,1314.2 75.7,1428.1 191.5,1428.1 191.5,1314.2 249.8,1314.2 249.8,1594.4 191.5,1594.4 191.5,1466.7 75.7,1466.7 75.7,1594.4 
	17.4,1594.4 "/>
<path id="XMLID_00000113330674249770908940000004953520041384779655_" class="st1" d="M408.6,1564.1c15.8,0,27.8-7,35.8-21
	c8-13.8,12.2-31.4,12.2-52.6c0-21.1-4.2-38.6-12.2-52.6c-8-14-20-21-35.8-21c-15.8,0-27.6,7-35.8,21c-8,14-12,31.4-12,52.6
	c0,21.2,4,38.8,12,52.6C381,1557.1,392.8,1564.1,408.6,1564.1 M408.6,1599.2c-22.5,0-41.8-4.5-57.8-13.3
	c-16.2-8.7-28.5-21.7-37-38.6c-8.3-17-12.7-35.9-12.7-56.8c0-20.6,4.1-39.4,12.5-56.6c8.3-16.8,20.6-29.8,36.8-38.6
	c16.2-9,35.4-13.5,58.1-13.5c22.6,0,42.1,4.5,58.1,13.5c16.1,8.8,28.5,21.8,36.8,38.6c8.3,17.2,12.7,36,12.7,56.6
	c0,20.9-4.3,39.8-12.9,56.8c-8.3,17-20.6,30-36.8,38.6C450.6,1594.7,431.2,1599.2,408.6,1599.2z"/>
<path id="XMLID_00000176766180254312347590000006668623270061644436_" class="st1" d="M562,1587.7v-41
	c27.8,11.5,51.4,17.3,71.1,17.3c10.5,0,18.8-2.2,25.2-6.7c6.2-4.3,9.4-10,9.4-16.8c0-5.8-2.3-10.8-7-14.8c-4.7-4-11.8-7.8-21.3-11.6
	l-18.9-7.5c-19.6-7.8-34-16.5-43.2-26c-9.5-9.3-14.1-21.5-14.1-36.6c0-18,7.1-33,21.2-44.6c14.1-11.6,35.6-17.7,64.4-17.7
	c17,0,37.1,2.5,60.4,7.5v39.3c-22.5-7.8-41.2-11.7-55.8-11.7c-11.6,0-20.3,2-26.1,5.8c-5.8,4-8.9,9.2-8.9,15.5c0,5,2,9.3,5.8,13.2
	c3.5,3.7,10.3,7.5,20,11.1l16.3,6.2c26.8,10.3,44.4,20.2,52.8,29.8c8.2,9.7,12.3,21.3,12.3,34.8c0,17.5-7.4,33-22.6,46.1
	c-15,13.2-37,19.8-65.8,19.8C612.4,1599.2,587.4,1595.4,562,1587.7"/>
<path id="XMLID_00000125594019591485201770000007688938893951770301_" class="st1" d="M842.6,1540.1c7.8,8.8,14.9,14.8,21.8,18
	c6.8,3.1,13.7,4.7,20.6,4.7c14.9,0,26.1-7.3,33.3-22.1c7.3-14.8,11-31.8,11-50.9c0-19.8-3.5-35.3-10.5-46.8c-7-11.4-16.8-17-29.7-17
	c-8,0-16.2,2.8-24.2,8.7c-8.2,5.7-15.6,13.5-22.5,23.3L842.6,1540.1 M786.5,1669.1v-282.5h56.1v39.3c7.1-14.6,16.3-25.7,27.5-33.2
	c11.1-7.3,24.3-11,39.4-11c25.3,0,44.8,9.5,58.6,28.5c13.8,18.9,20.8,43.7,20.8,74.6c0,32.4-7.9,59.7-23.1,81.6
	c-15.5,21.8-37,32.8-64.8,32.8c-7.3,0-14.1-0.8-20.5-2.5c-6.3-1.5-12.3-4-18-7.1c-5.8-3.3-12.3-8.7-20-16.2v95.7L786.5,1669.1
	L786.5,1669.1z"/>
<path id="XMLID_00000041276897911813615960000001807160522127735463_" class="st1" d="M1043.4,1386.6h56.1v207.7h-56.1V1386.6z
	 M1043.4,1304.9h56.1v46.6h-56.1V1304.9z"/>
<path id="XMLID_00000055702675381815939630000016953213736010297015_" class="st1" d="M1276.6,1593.2c-13.3,4-23.8,6-31.6,6
	c-18.3,0-32.5-2.6-42.6-7.8c-10-5.2-17.7-12.1-22.6-21.2c-5-8.8-7.7-22-7.7-39.2v-109.4h-23.1v-34.9h23.1v-35.1l56.1-6.3v41.5h44.5
	v34.9h-44.5v101.9c0,14.9,2.6,25.2,8,30.3c5.4,5.4,13,8,23.3,8c4.6,0,10.5-0.9,17.2-2.3V1593.2"/>
<path id="XMLID_00000159462802810068942950000013305157311157651861_" class="st1" d="M1428.5,1541.9v-42.1h-13.3
	c-18.3,0-31.8,3.1-40.8,9.7c-9,6.5-13.5,14.6-13.5,24.3c0,8,2.6,14.5,8.1,19.6c5.5,5.2,11.8,7.7,19.1,7.7c6.5,0,13.2-1.7,20-4.9
	C1414.8,1553.1,1421.6,1548.2,1428.5,1541.9 M1428.5,1572.1c-8.2,7.8-15.1,13.5-21,16.8c-6,3.5-12.2,6-18.6,7.6
	c-6.3,1.8-13.2,2.6-20.3,2.6c-18.6,0-33.5-5.8-44.6-17.5c-11.1-11.5-16.8-25.7-16.8-42.4c0-20.3,8.4-37.5,25.1-51.1
	c16.7-13.8,43.8-20.6,81.3-20.6h14.9v-18.8c0-12.8-3.5-21.3-10.6-25.8c-7-4.3-16-6.6-26.8-6.6c-21.5,0-43.4,6.2-65.8,18.6v-38.6
	c25.5-9.7,50.6-14.5,75.7-14.5c15.4,0,29.1,2.2,41.3,6.3c12.2,4.1,21.8,10.6,29,19.3c7.3,8.8,11,22,11,39.2v92.1
	c0,11.2,1.7,18.1,5.2,20.7c3.5,2.5,7,3.8,10.3,3.8c2,0,4.5-0.3,7.7-0.8l1.3,31.4c-12,3.5-22.5,5.3-31.6,5.3
	c-10.5,0-19.3-1.8-26.8-5.3c-7.4-3.5-13.3-10.6-17.3-21.8h-2.4V1572.1z"/>
<rect id="XMLID_00000150790533481920327230000012966446871386037141_" x="1554.5" y="1295.5" class="st1" width="56.1" height="298.9"/>
<path id="XMLID_00000053526177910897241600000008736091303843881905_" class="st1" d="M1791.8,499.9c27.9,0,48,22.5,48,50.4
	c0,27.5-20.2,49.6-47.7,49.6c-28.2,0-48.8-22.1-48.8-50C1743.3,522.4,1763.9,499.9,1791.8,499.9 M1791.8,487.2
	c-35.9,0-64.5,27.9-64.5,62.7c0,35.5,28.6,63.4,64.5,63.4c36.3,0,64.2-27.9,64.2-63.4C1856,515.2,1828,487.2,1791.8,487.2z
	 M1782.3,529.4c1.5-0.4,4.1-0.9,8-0.9c9.1,0,13.3,3.9,13.3,9.7c0,6.5-6.5,9.1-14.5,9.1h-6.8L1782.3,529.4L1782.3,529.4z
	 M1781.8,557.6h6.9c8,0,11.8,3,13,9.8c1.8,7.3,3,13,4.9,15.3h15.7c-1.5-2.3-2.7-6.1-4.6-15.6c-2-8.4-5.4-13-11.5-15.3v-0.7
	c7.6-2.4,13-7.7,13-14.5c0-6.2-2.7-11.1-6.2-13.8c-4.6-2.7-9.8-4.7-21.8-4.7c-10.3,0-18.3,0.7-24.1,2v62.6h14.5v-25.1H1781.8z"/>
<g>
	<path id="XMLID_00000156580213879464741940000006881375044789557930_" class="st2" d="M1279.3,127.1c-20.4-7-43.2-11.1-67.3-11.9
		c-55.6,44.7-111.7,103.2-166.1,172.6c-9.7,12.4-19.3,25-28.8,38c13.2-12.7,26.6-25.1,40.2-37.2
		C1130,223.6,1205.3,168.8,1279.3,127.1"/>
	<path id="XMLID_00000114040166742732781740000011589373689213346210_" class="st3" d="M1006.2,179.4
		c-16.4,30.1-31.1,65.6-44.4,106.1c-3,9.4-6,19.1-9,29c5.2-9.9,10.4-19.6,15.6-29.1c29.5-53.3,61-99.5,93.4-137.1
		C1042.4,157.1,1023.8,167.6,1006.2,179.4"/>
	<path id="XMLID_00000022543224307550030920000004072698724913211289_" class="st4" d="M1065.1,428.7
		c89.4-10.3,185.8-16.1,286.1-16.7c9-14.9,16.4-30.3,22.5-45.7c4-10.4,7.6-20.8,10.2-31.3c-18.6,4.2-37,8.5-55.4,13
		C1237.9,370,1149,397.2,1065.1,428.7"/>
	<path id="XMLID_00000083088268831588704530000014709195326191939984_" class="st5" d="M885.2,345.6c1.8-18.1,4.4-35.1,7.2-51.1
		c-4.4,7-8.6,14.2-12.4,21.6C881.5,325.4,883.2,335.2,885.2,345.6"/>
	<path id="XMLID_00000166647221400522608260000005389601306949327543_" class="st6" d="M929.4,245.7c-2.8,13-5.2,26.9-7.2,41.7
		c-1.5,12.1-2.8,24.8-3.7,38c4.2-13.3,8.6-26.3,13-38.7c10-27.4,20.9-52.6,32.5-75.3C951.8,222.2,940.1,233.6,929.4,245.7"/>
	<path id="XMLID_00000032631951549813778670000001106081583524176512_" class="st3" d="M1252,520.1c22.1-16.5,42.2-35,59.9-54.9
		c-88.4,1.5-172.9,6.2-252,13.7C1120.1,490.3,1184.4,504,1252,520.1"/>
	
		<linearGradient id="SVGID_1_" gradientUnits="userSpaceOnUse" x1="987.673" y1="1736.277" x2="1146.5515" y2="1930.3342" gradientTransform="matrix(1 0 0 -1 0 2044)">
		<stop  offset="3.726153e-03" style="stop-color:#F5CE19"/>
		<stop  offset="9.460000e-02" style="stop-color:#F0B81B"/>
		<stop  offset="0.873" style="stop-color:#B33026"/>
		<stop  offset="1" style="stop-color:#802A28"/>
	</linearGradient>
	<path class="st7" d="M986.5,314.3c37-70.4,71.6-132,117.9-182.8c0,0,36.4-12.4,68-14.6C1102.4,173.4,1037.1,246,986.5,314.3z"/>
	
		<linearGradient id="SVGID_2_" gradientUnits="userSpaceOnUse" x1="1056.1508" y1="1800.004" x2="1374.053" y2="1796.1327" gradientTransform="matrix(1 0 0 -1 0 2044)">
		<stop  offset="3.726153e-03" style="stop-color:#274775"/>
		<stop  offset="0.2898" style="stop-color:#0593C1"/>
		<stop  offset="0.6772" style="stop-color:#7DC9E4"/>
		<stop  offset="0.8071" style="stop-color:#C5E3F3"/>
	</linearGradient>
	<path class="st8" d="M1042.9,348.8c116.8-108.6,163.2-142.4,268-206.7c0,0,22.5,9.6,49.9,43.1
		C1360.9,185.2,1200.1,244.6,1042.9,348.8z"/>
	
		<linearGradient id="SVGID_3_" gradientUnits="userSpaceOnUse" x1="1058.6117" y1="1743.1355" x2="1390.6276" y2="1743.1355" gradientTransform="matrix(1 0 0 -1 0 2044)">
		<stop  offset="0.1935" style="stop-color:#255CA6"/>
		<stop  offset="0.5174" style="stop-color:#82CDD7"/>
		<stop  offset="0.6707" style="stop-color:#00A3D1"/>
		<stop  offset="0.9799" style="stop-color:#5BAD9F"/>
	</linearGradient>
	<path class="st9" d="M1058.6,384.4c59.1-39.4,232.7-136.6,319.5-167.1c0,0,12.6,17.6,12.5,70.4
		C1282.7,312.7,1220.3,323.2,1058.6,384.4z"/>
	
		<linearGradient id="SVGID_4_" gradientUnits="userSpaceOnUse" x1="1043.1704" y1="1487.7412" x2="1181.5256" y2="1487.7412" gradientTransform="matrix(1 0 0 -1 0 2044)">
		<stop  offset="0.1935" style="stop-color:#E27FB0"/>
		<stop  offset="0.4084" style="stop-color:#D32986"/>
		<stop  offset="0.6707" style="stop-color:#B31F6B"/>
		<stop  offset="0.9559" style="stop-color:#911D54"/>
	</linearGradient>
	<path class="st10" d="M1131.8,581.9c-15.5-9-88.6-51.2-88.6-51.2l138.4,31.7C1181.5,562.4,1152.1,576.7,1131.8,581.9z"/>
</g>
<line class="st11" x1="2202.7" y1="115.2" x2="2202.7" y2="1810.8"/>
<g>
	<path class="st12" d="M2930.9,873.5c0,128.5-104.2,232.5-233,232.5c-128.7,0-233-104-233-232.5c0-128.3,104-232.2,232.4-232.5h1.2
		C2827,641.3,2930.9,745.2,2930.9,873.5"/>
	<path class="st12" d="M2682.3,1153.4c-114.5,0-173.6-55.6-220.9-124.1v468.6c0,95.1,33.9,175.5,99.8,241.3
		c66.7,66.7,148.2,99.9,243.7,99.9c94.2,0,174.7-32.9,240.6-98.6c67.7-66.7,101.7-147.6,101.7-242.7c0-94.2-33.3-174.2-100.1-240.1
		c-68.2-68.8-155.3-101.1-251.5-101.4C2757.1,1156.4,2682.3,1153.4,2682.3,1153.4"/>
	<path class="st12" d="M5520,857l-4.3-56h-16.1l-9.7,27.6c-1.2,4.1-2.5,8.9-3.9,14h-0.2c-1.4-5.8-2.5-9.8-3.7-14.2l-9.7-27.4h-16.7
		l-4.1,56h10.6l2-33c0.2-5.2,0.4-10.5,0.4-15.7h0.7c1.2,5,2.8,11.6,3.9,15.9l10.1,31.9h11.5l10.1-31.1c1.7-5.1,3.3-11.7,4.7-16.7
		h0.7c0.2,6,0.2,11.3,0.4,15.7l2,33L5520,857L5520,857z M5401.3,800.9v9.3h17.9V857h11.1v-46.8h17.9v-9.3H5401.3z"/>
	<g>
		<path class="st13" d="M3239.1,1396.5c0-4.9,3.1-8.2,8.2-8.2h43.4c28,0,42.1,14.4,42.1,36.6c0,16.2-7.4,26.3-18.9,30.6v0.4
			c10.1,2.6,21.4,14,21.4,32.3c0,26.3-16.9,39.9-45.2,39.9h-42.8c-5.2,0-8.2-3.1-8.2-8.2L3239.1,1396.5L3239.1,1396.5z
			 M3290.3,1448.8c15.4,0,24.5-8.9,24.5-21.8c0-13.3-9-22-24.5-22h-31.7c-0.9,0-1.2,0.4-1.2,1.2v41.3c0,0.9,0.4,1.2,1.2,1.2H3290.3z
			 M3258.6,1511.5h32.7c16.7,0,25.7-9,25.7-23c0-13.8-9-23-25.7-23h-32.7c-0.9,0-1.2,0.4-1.2,1.2v43.6
			C3257.4,1511.1,3257.8,1511.5,3258.6,1511.5z"/>
		<path class="st13" d="M3406.2,1471.4v47.9c0,6.2-3.7,9.8-9,9.8c-5.2,0-9-3.7-9-9.8v-47.9l-38.3-70.6c-0.8-1.7-1.4-3.7-1.4-5.4
			c0-4.6,3.7-8.2,8.6-8.2c3.7,0,6.2,1.8,8,5.4l32.1,59.6h0.6l31.7-59.6c1.8-3.5,4.3-5.4,8-5.4c4.9,0,8.4,3.7,8.4,8.2
			c0,1.7-0.6,3.7-1.4,5.4L3406.2,1471.4z"/>
		<path class="st13" d="M3515.5,1519.3v-122.8c0-4.9,3.1-8.2,8.2-8.2h43.8c27.1,0,44.2,15.8,44.2,40.3c0,18.7-9.9,32.3-26.5,37.6
			l25.1,49.3c0.8,1.7,1.2,3.1,1.2,4.9c0,4.6-3.3,8.6-8.9,8.6c-3.7,0-6.6-1.8-8.9-5.7l-27.6-54.5h-31.3c-0.9,0-1.2,0.4-1.2,1.2v49.2
			c0,6.2-3.7,9.8-9,9.8C3519.3,1529.2,3515.5,1525.5,3515.5,1519.3z M3593.7,1428.7c0-14.6-9.7-23.3-25.9-23.3h-32.7
			c-0.9,0-1.2,0.4-1.2,1.2v44c0,0.8,0.4,1.2,1.2,1.2h32.7C3584.1,1451.8,3593.7,1443.2,3593.7,1428.7z"/>
		<path class="st13" d="M3632.7,1516.6l43-119.1c2.3-6.6,5.8-10.3,11.9-10.3s10.1,3.7,12.4,10.3l42.4,119.1c0.4,1.2,0.9,2.6,0.9,4.1
			c0,5.1-3.9,8.4-8.6,8.4c-4.1,0-7.4-2.3-8.9-6.6l-9.5-26.9h-57.4l-9.5,26.9c-1.4,4.3-4.7,6.6-8.9,6.6c-4.7,0-8.6-3.3-8.6-8.4
			C3631.9,1519.3,3632.3,1517.9,3632.7,1516.6z M3710.2,1478.8l-22.2-63.5h-0.6l-22.6,63.5H3710.2z"/>
		<path class="st13" d="M3767.2,1397.2c0-6.2,3.7-9.8,9.2-9.8c5.4,0,9,3.7,9,9.8v122.2c0,6.2-3.7,9.8-9,9.8c-5.5,0-9.2-3.7-9.2-9.8
			V1397.2z"/>
		<path class="st13" d="M3820,1398.4c0-6.8,3.7-11.1,10.1-11.1c5.4,0,8.9,3.5,12.4,9.5l59.6,98.5h0.9v-98.7c0-5.8,3.5-9.2,8.4-9.2
			c5.2,0,8.6,3.5,8.6,9.2V1518c0,6.8-3.7,11.1-10.1,11.1c-5.4,0-9-3.5-12.5-9.5l-59.6-98.1h-0.6v98.3c0,5.8-3.5,9.2-8.4,9.2
			c-5.2,0-8.6-3.5-8.6-9.2L3820,1398.4L3820,1398.4z"/>
		<path class="st13" d="M3954.4,1396.5c0-4.9,3.1-8.2,8.2-8.2h43.4c28,0,42.1,14.4,42.1,36.6c0,16.2-7.4,26.3-18.9,30.6v0.4
			c10.1,2.6,21.4,14,21.4,32.3c0,26.3-16.9,39.9-45.2,39.9h-42.8c-5.2,0-8.2-3.1-8.2-8.2L3954.4,1396.5L3954.4,1396.5z
			 M4005.7,1448.8c15.4,0,24.5-8.9,24.5-21.8c0-13.3-9-22-24.5-22H3974c-0.9,0-1.2,0.4-1.2,1.2v41.3c0,0.9,0.4,1.2,1.2,1.2H4005.7z
			 M3974,1511.5h32.7c16.7,0,25.7-9,25.7-23c0-13.8-9-23-25.7-23H3974c-0.9,0-1.2,0.4-1.2,1.2v43.6
			C3972.7,1511.1,3973.2,1511.5,3974,1511.5z"/>
		<path class="st13" d="M4077.6,1497.3c-3.3-10.1-3.9-19.1-3.9-39.1c0-19.9,0.6-29,3.9-39.1c7-21.3,23.3-33.1,47.3-33.1
			c24.2,0,40.5,11.7,47.5,33.1c3.3,10.1,3.9,19.1,3.9,39.1c0,19.9-0.6,29-3.9,39.1c-7,21.4-23.3,33.1-47.5,33.1
			C4100.8,1530.4,4084.6,1518.7,4077.6,1497.3z M4154.5,1491.8c2.3-6.8,3.3-15,3.3-33.5c0-18.5-1-26.8-3.3-33.5
			c-4.1-13-13.3-21.6-29.6-21.6c-16.1,0-25.3,8.6-29.4,21.6c-2.3,6.8-3.3,15-3.3,33.5c0,18.5,1,26.8,3.3,33.5
			c4.1,13,13.3,21.6,29.4,21.6C4141.1,1513.4,4150.4,1504.7,4154.5,1491.8z"/>
		<path class="st13" d="M4299.6,1519.3l-27.6-97.4h-0.4l-28,97.4c-2,7-4.9,9.8-9.9,9.8c-4.9,0-8-2.9-9.8-9.8l-30.5-119
			c-0.4-1.7-0.6-3.3-0.6-4.3c0-4.7,3.3-8.6,8.9-8.6c4.3,0,7.6,2.5,8.9,7.8l24.1,99.1h0.4l27.3-98.1c1.7-6,4.7-8.9,9.5-8.9
			s7.6,2.9,9.2,8.9l28,98.3h0.4l23.3-99.4c1.2-5.4,4.6-7.8,8.9-7.8c5.5,0,8.9,3.9,8.9,8.6c0,1-0.2,2.6-0.6,4.3l-30.5,119
			c-1.8,7-4.9,9.8-9.8,9.8C4304.6,1529.2,4301.7,1526.3,4299.6,1519.3z"/>
		<path class="st13" d="M4419.6,1397.2c0-6.2,3.7-9.8,9.2-9.8c5.4,0,9,3.7,9,9.8v50.6c0,0.9,0.4,1.2,1.2,1.2h60.7
			c0.9,0,1.2-0.4,1.2-1.2v-50.6c0-6.2,3.7-9.8,9.2-9.8c5.4,0,9,3.7,9,9.8v122.2c0,6.2-3.7,9.8-9,9.8c-5.5,0-9.2-3.7-9.2-9.8v-52
			c0-0.8-0.4-1.2-1.2-1.2h-60.7c-0.9,0-1.2,0.4-1.2,1.2v52c0,6.2-3.7,9.8-9,9.8c-5.5,0-9.2-3.7-9.2-9.8V1397.2z"/>
		<path class="st13" d="M4552.8,1497.3c-3.3-10.1-3.9-19.1-3.9-39.1c0-19.9,0.6-29,3.9-39.1c7-21.3,23.3-33.1,47.3-33.1
			c24.2,0,40.5,11.7,47.5,33.1c3.3,10.1,3.9,19.1,3.9,39.1c0,19.9-0.6,29-3.9,39.1c-7,21.4-23.3,33.1-47.5,33.1
			C4576.1,1530.4,4559.8,1518.7,4552.8,1497.3z M4629.8,1491.8c2.3-6.8,3.3-15,3.3-33.5c0-18.5-1-26.8-3.3-33.5
			c-4.1-13-13.3-21.6-29.6-21.6c-16.1,0-25.3,8.6-29.4,21.6c-2.3,6.8-3.3,15-3.3,33.5c0,18.5,1,26.8,3.3,33.5
			c4.1,13,13.3,21.6,29.4,21.6C4616.4,1513.4,4625.6,1504.7,4629.8,1491.8z"/>
		<path class="st13" d="M4679.8,1517.2c-2.9-2-4.6-4.7-4.6-8c0-4.6,3.5-8.6,8.9-8.6c2,0,4.1,0.9,5.8,1.8
			c10.1,6.4,21.4,10.9,34.8,10.9c19.7,0,31.3-9.5,31.3-23.9c0-11.9-6.6-19.3-29.2-22.8l-6.8-1c-28.2-4.3-41.3-16.9-41.3-38.9
			c0-24.9,17.7-40.7,45.6-40.7c15,0,28.6,4.3,37,9.5c3.5,2.3,4.9,4.9,4.9,8c0,4.6-3.5,8.2-8.2,8.2c-1.8,0-4.1-0.8-6-1.7
			c-8.9-3.9-18.1-7-28.4-7c-17.7,0-26.5,9.7-26.5,22.6c0,11.7,7.2,19.1,29,22.5l6.8,1c28.2,4.3,41.5,16.9,41.5,39.2
			c0,24.2-17.3,42-51.2,42C4705.2,1530.4,4689.7,1524,4679.8,1517.2z"/>
		<path class="st13" d="M4802.6,1396.5c0-4.9,3.1-8.2,8.2-8.2h43.2c28,0,44.8,16.9,44.8,41.8c0,24.9-16.9,41.8-44.8,41.8h-31.9
			c-0.9,0-1.2,0.4-1.2,1.2v46.3c0,6.2-3.7,9.8-9,9.8c-5.5,0-9.2-3.7-9.2-9.8L4802.6,1396.5L4802.6,1396.5z M4880.8,1430.1
			c0-15.2-10.1-24.7-27.4-24.7h-31.3c-0.9,0-1.2,0.4-1.2,1.2v46.9c0,0.8,0.4,1.2,1.2,1.2h31.3
			C4870.7,1454.7,4880.8,1445.3,4880.8,1430.1z"/>
		<path class="st13" d="M4924.3,1397.2c0-6.2,3.7-9.8,9.2-9.8c5.4,0,9,3.7,9,9.8v122.2c0,6.2-3.7,9.8-9,9.8c-5.5,0-9.2-3.7-9.2-9.8
			V1397.2z"/>
		<path class="st13" d="M5057.7,1388.3c5.5,0,9,3.7,9,8.6c0,4.7-3.5,8.4-9,8.4h-32.3c-0.8,0-1.2,0.4-1.2,1.2v112.7
			c0,6.2-3.7,9.8-9,9.8c-5.5,0-9.2-3.7-9.2-9.8v-112.7c0-0.8-0.4-1.2-1.2-1.2h-32.3c-5.5,0-9-3.7-9-8.4c0-4.9,3.5-8.6,9-8.6H5057.7z
			"/>
		<path class="st13" d="M5061.8,1516.6l43-119.1c2.3-6.6,5.8-10.3,11.9-10.3s10.1,3.7,12.3,10.3l42.4,119.1c0.4,1.2,0.9,2.6,0.9,4.1
			c0,5.1-3.9,8.4-8.6,8.4c-4.1,0-7.4-2.3-8.9-6.6l-9.5-26.9H5088l-9.5,26.9c-1.4,4.3-4.7,6.6-8.9,6.6c-4.7,0-8.6-3.3-8.6-8.4
			C5061,1519.3,5061.4,1517.9,5061.8,1516.6z M5139.3,1478.8l-22.2-63.5h-0.6l-22.6,63.5H5139.3z"/>
		<path class="st13" d="M5196.2,1397.2c0-6.2,3.7-9.8,9-9.8c5.4,0,9.2,3.7,9.2,9.8v112.7c0,0.8,0.4,1.2,1.2,1.2h60.7
			c5.5,0,9,3.7,9,8.4c0,4.9-3.5,8.6-9,8.6H5205c-5.5,0-8.9-3.5-8.9-9L5196.2,1397.2L5196.2,1397.2z"/>
		<path class="st13" d="M5305.6,1517.2c-2.9-2-4.6-4.7-4.6-8c0-4.6,3.5-8.6,8.9-8.6c2,0,4.1,0.9,5.8,1.8
			c10.1,6.4,21.4,10.9,34.8,10.9c19.7,0,31.3-9.5,31.3-23.9c0-11.9-6.6-19.3-29.2-22.8l-6.8-1c-28.2-4.3-41.3-16.9-41.3-38.9
			c0-24.9,17.7-40.7,45.6-40.7c15,0,28.6,4.3,37,9.5c3.5,2.3,4.9,4.9,4.9,8c0,4.6-3.5,8.2-8.2,8.2c-1.8,0-4.1-0.8-6-1.7
			c-8.9-3.9-18.1-7-28.4-7c-17.7,0-26.5,9.7-26.5,22.6c0,11.7,7.2,19.1,29,22.5l6.8,1c28.2,4.3,41.5,16.9,41.5,39.2
			c0,24.2-17.3,42-51.2,42C5330.9,1530.4,5315.5,1524,5305.6,1517.2z"/>
	</g>
	<path class="st13" d="M5402.8,1625.1H3239.9c-2.4,0-4.4-2-4.4-4.4s2-4.4,4.4-4.4h2162.9c2.4,0,4.4,2,4.4,4.4
		S5405.2,1625.1,5402.8,1625.1z"/>
	<g>
		<path class="st12" d="M3288.2,1768.3v41.8c0,5.4-3.2,8.6-7.9,8.6c-4.5,0-7.9-3.3-7.9-8.6v-41.8l-33.4-61.6
			c-0.7-1.4-1.2-3.2-1.2-4.7c0-3.9,3.2-7.2,7.6-7.2c3.2,0,5.4,1.6,7,4.7l28,52h0.6l27.7-52c1.6-3.1,3.8-4.7,7-4.7
			c4.3,0,7.4,3.3,7.4,7.2c0,1.4-0.6,3.3-1.2,4.7L3288.2,1768.3z"/>
		<path class="st12" d="M3330.5,1796.7c-2-5.9-2.9-11.9-2.9-21.9c0-9.9,0.9-15.8,2.9-21.7c4.7-14.7,17.2-23.2,34-23.2
			c16.7,0,29.3,8.4,34,23.2c2,5.9,2.9,11.9,2.9,21.7c0,10-0.9,16-2.9,21.9c-4.7,14.5-17.2,23.2-34,23.2
			C3347.7,1819.9,3335.1,1811.2,3330.5,1796.7z M3383.8,1792.4c1.4-4.7,2-9.4,2-17.6c0-8.2-0.6-12.7-2-17.4
			c-2.9-8.6-9.9-13.5-19.4-13.5s-16.5,4.9-19.4,13.5c-1.4,4.7-2,9.2-2,17.4s0.6,12.9,2,17.6c2.9,8.6,9.9,13.5,19.4,13.5
			S3380.9,1801,3383.8,1792.4z"/>
		<path class="st12" d="M3492.3,1810.7c0,5-3.2,8.1-7.6,8.1c-4.3,0-7.6-3.1-7.6-8.1v-2.5h-0.2c-4.1,6.6-12.1,11.7-23.7,11.7
			c-18.7,0-29.7-12.7-29.7-32.3v-48.5c0-5,3.2-8.1,7.6-8.1c4.3,0,7.6,3.1,7.6,8.1v44.9c0,13.8,6.1,21.9,19,21.9
			c11.7,0,19.4-8.2,19.4-21v-45.8c0-5,3.2-8.1,7.6-8.1c4.3,0,7.6,3.1,7.6,8.1V1810.7z"/>
		<path class="st12" d="M3521.2,1810.7V1739c0-5,3.3-8.1,7.6-8.1c4.3,0,7.6,3.1,7.6,8.1v3.9h0.2c3.6-7.8,11.5-13.1,22.1-13.1
			c5.9,0,9.9,1.4,12.7,3.1c3.1,1.6,4.3,3.9,4.3,6.5c0,4.3-3.1,7.6-7.6,7.6c-1.1,0-2.5-0.4-3.8-0.9c-3.2-1.2-6.3-2.2-9.9-2.2
			c-12.9,0-18.1,10.8-18.1,25.1v41.6c0,5-3.2,8.1-7.6,8.1C3524.5,1818.7,3521.2,1815.7,3521.2,1810.7z"/>
		<path class="st12" d="M3637,1810.1V1703c0-4.3,2.7-7.2,7.2-7.2h38.3c23.7,0,38.6,13.8,38.6,35.2c0,16.4-8.6,28.2-23.2,32.9
			l21.9,43.1c0.7,1.4,1,2.7,1,4.3c0,3.9-2.9,7.6-7.8,7.6c-3.2,0-5.7-1.6-7.8-5l-24.1-47.6H3654c-0.7,0-1,0.4-1,1v42.9
			c0,5.4-3.3,8.6-7.9,8.6C3640.3,1818.7,3637,1815.5,3637,1810.1z M3705.3,1731c0-12.7-8.4-20.3-22.6-20.3h-28.5c-0.7,0-1,0.4-1,1
			v38.4c0,0.7,0.4,1.1,1,1.1h28.5C3696.8,1751.3,3705.3,1743.7,3705.3,1731z"/>
		<path class="st12" d="M3744.6,1704.7c0-5.5,4.5-9.9,9.8-9.9c5.4,0,9.9,4.3,9.9,9.9c0,5.4-4.5,9.9-9.9,9.9
			C3749.1,1714.6,3744.6,1710.1,3744.6,1704.7z M3747,1739c0-5,3.3-8.1,7.6-8.1c4.3,0,7.6,3.1,7.6,8.1v71.7c0,5-3.2,8.1-7.6,8.1
			c-4.3,0-7.6-3.1-7.6-8.1V1739z"/>
		<path class="st12" d="M3841.6,1741.2v-2.2c0-5,3.2-8.1,7.6-8.1c4.3,0,7.6,3.1,7.6,8.1v74.5c0,25.7-13.7,38.6-37.5,38.6
			c-11.3,0-22.1-4.7-27.3-10.2c-1.4-1.4-2.2-3.2-2.2-4.9c0-3.9,2.9-7,6.8-7c2.2,0,4.1,0.9,6.1,2.3c4.9,3.6,10.8,5.7,17,5.7
			c13.8,0,21.9-6.8,21.9-23.3v-9.4h-0.2c-4.3,7.2-11.5,11.3-24.1,11.3c-14.4,0-24.6-7.9-28.9-21.3c-2-6.1-2.9-12.5-2.9-22.1
			c0-9.5,0.9-16,2.9-22.1c4.3-13.5,14.5-21.3,28.9-21.3c12.7,0,19.9,4.9,24.1,11.3L3841.6,1741.2L3841.6,1741.2z M3839.6,1789.5
			c1.4-4.1,2-9,2-16.2c0-7-0.6-11.9-2-16c-3.1-9-9-13.5-18.3-13.5c-9.4,0-15.3,4.5-18.3,13.5c-1.4,4.1-2,9-2,16
			c0,7.2,0.6,12.1,2,16.2c3.1,9,9,13.5,18.3,13.5C3830.6,1802.9,3836.5,1798.4,3839.6,1789.5z"/>
		<path class="st12" d="M3885.6,1703c0-5,3.3-8.1,7.6-8.1c4.3,0,7.6,3.1,7.6,8.1v38.6h0.2c4.1-6.6,12.4-11.7,24.1-11.7
			c18.6,0,29.8,12.7,29.8,32.3v48.5c0,5-3.2,8.1-7.6,8.1c-4.3,0-7.6-3.1-7.6-8.1v-44.9c0-13.8-6.3-21.9-19.2-21.9
			c-11.7,0-19.7,8.2-19.7,21v45.8c0,5-3.2,8.1-7.6,8.1c-4.3,0-7.6-3.1-7.6-8.1L3885.6,1703L3885.6,1703z"/>
		<path class="st12" d="M4008.8,1818.7c-17.6,0-24.1-7.4-24.1-25.3v-48.3c0-0.7-0.4-1-1-1h-4.9c-4.1,0-6.5-2.5-6.5-6.1
			c0-3.6,2.3-6.1,6.5-6.1h4.9c0.7,0,1-0.4,1-1.1v-18.8c0-5,3.3-8.1,7.6-8.1c4.3,0,7.6,3.1,7.6,8.1v18.8c0,0.7,0.4,1.1,1.1,1.1h11.3
			c4.1,0,6.5,2.5,6.5,6.1c0,3.6-2.3,6.1-6.5,6.1H4001c-0.7,0-1.1,0.4-1.1,1v47.7c0,9.2,2.3,11.9,11.5,11.9c4.7,0,7.4,2.9,7.4,7
			c0,4.1-2.7,7-8.1,7L4008.8,1818.7L4008.8,1818.7z"/>
		<path class="st12" d="M4108.3,1818.7c-17.6,0-24.1-7.4-24.1-25.3v-48.3c0-0.7-0.4-1-1-1h-4.9c-4.1,0-6.5-2.5-6.5-6.1
			c0-3.6,2.3-6.1,6.5-6.1h4.9c0.7,0,1-0.4,1-1.1v-18.8c0-5,3.3-8.1,7.6-8.1c4.3,0,7.6,3.1,7.6,8.1v18.8c0,0.7,0.4,1.1,1,1.1h11.3
			c4.1,0,6.5,2.5,6.5,6.1c0,3.6-2.3,6.1-6.5,6.1h-11.3c-0.7,0-1,0.4-1,1v47.7c0,9.2,2.3,11.9,11.5,11.9c4.7,0,7.4,2.9,7.4,7
			c0,4.1-2.7,7-8.1,7L4108.3,1818.7L4108.3,1818.7z"/>
		<path class="st12" d="M4136.7,1796.7c-2-5.9-2.9-11.9-2.9-21.9c0-9.9,0.9-15.8,2.9-21.7c4.7-14.7,17.2-23.2,34-23.2
			s29.3,8.4,34,23.2c2,5.9,2.9,11.9,2.9,21.7c0,10-0.9,16-2.9,21.9c-4.7,14.5-17.2,23.2-34,23.2S4141.4,1811.2,4136.7,1796.7z
			 M4190,1792.4c1.4-4.7,2-9.4,2-17.6c0-8.2-0.6-12.7-2-17.4c-2.9-8.6-9.9-13.5-19.4-13.5s-16.5,4.9-19.4,13.5
			c-1.4,4.7-2,9.2-2,17.4s0.6,12.9,2,17.6c2.9,8.6,9.9,13.5,19.4,13.5S4187.1,1801,4190,1792.4z"/>
		<path class="st12" d="M4344.4,1811.5c0,4.1-3.3,7.2-7.8,7.2c-2.7,0-4.9-1.3-6.6-3.8l-3.4-5.4h-0.2c-5.7,6.5-13.8,10.2-26.4,10.2
			c-19.2,0-30.3-9.5-30.3-25.8c0-17.8,12.2-26.6,33.6-26.6h19.6c0.7,0,1-0.4,1-1v-4.1c0-12.1-5.5-18.8-20.7-18.8
			c-6.6,0-13.5,2.2-17.6,4.3c-1.4,0.7-3.1,1.2-4.3,1.2c-3.9,0-6.5-2.5-6.5-6.5c0-2.3,1-4.7,3.6-6.1c5.4-3.6,14.3-6.5,26.2-6.5
			c23,0,33.8,11,33.8,32.1v30.9c0,4.5,0.4,6.3,1.6,8.8l3.1,5.6C4343.9,1808.5,4344.4,1810.1,4344.4,1811.5z M4324,1790v-9.5
			c0-0.7-0.4-1-1-1h-17.2c-14.7,0-21.3,4.3-21.3,14c0,9,6.5,13.5,18,13.5C4315.5,1806.9,4324,1800.6,4324,1790z"/>
		<path class="st12" d="M4409.1,1808.3c-2.5-1.8-3.9-4.1-3.9-7c0-3.9,3.1-7.6,7.8-7.6c1.8,0,3.6,0.7,5,1.6
			c8.8,5.5,18.6,9.5,30.3,9.5c17.2,0,27.3-8.2,27.3-20.9c0-10.4-5.7-16.9-25.5-19.9l-5.9-0.9c-24.6-3.8-36.1-14.7-36.1-34
			c0-21.7,15.4-35.6,39.9-35.6c13.1,0,25,3.8,32.3,8.2c3.1,2,4.3,4.3,4.3,7c0,3.9-3.1,7.2-7.2,7.2c-1.6,0-3.6-0.7-5.2-1.4
			c-7.8-3.4-15.8-6.1-24.8-6.1c-15.4,0-23.2,8.4-23.2,19.7c0,10.2,6.3,16.7,25.3,19.6l5.9,0.9c24.6,3.8,36.3,14.7,36.3,34.3
			c0,21.2-15.1,36.6-44.7,36.6C4431.2,1819.9,4417.7,1814.3,4409.1,1808.3z"/>
		<path class="st12" d="M4585.8,1811.5c0,4.1-3.3,7.2-7.8,7.2c-2.7,0-4.9-1.3-6.6-3.8l-3.4-5.4h-0.2c-5.7,6.5-13.8,10.2-26.4,10.2
			c-19.2,0-30.3-9.5-30.3-25.8c0-17.8,12.2-26.6,33.6-26.6h19.6c0.7,0,1-0.4,1-1v-4.1c0-12.1-5.5-18.8-20.7-18.8
			c-6.6,0-13.5,2.2-17.6,4.3c-1.4,0.7-3.1,1.2-4.3,1.2c-3.9,0-6.5-2.5-6.5-6.5c0-2.3,1-4.7,3.6-6.1c5.4-3.6,14.3-6.5,26.2-6.5
			c23,0,33.8,11,33.8,32.1v30.9c0,4.5,0.4,6.3,1.6,8.8l3.1,5.6C4585.3,1808.5,4585.8,1810.1,4585.8,1811.5z M4565.4,1790v-9.5
			c0-0.7-0.4-1-1-1h-17.2c-14.7,0-21.3,4.3-21.3,14c0,9,6.5,13.5,18,13.5C4556.9,1806.9,4565.4,1800.6,4565.4,1790z"/>
		<path class="st12" d="M4640.1,1731.9c4.1,0,6.5,2.5,6.5,6.1c0,3.6-2.3,6.1-6.5,6.1h-12.7c-0.7,0-1,0.4-1,1v65.5
			c0,5-3.2,8.1-7.6,8.1s-7.6-3.1-7.6-8.1v-65.5c0-0.7-0.4-1-1.1-1h-4.9c-4.1,0-6.5-2.5-6.5-6.1c0-3.6,2.3-6.1,6.5-6.1h4.9
			c0.7,0,1.1-0.4,1.1-1.1v-7.6c0-20.7,8.6-27.4,26.6-27.4h1.2c5.2,0,7.9,2.9,7.9,7c0,4.1-2.7,7-7.4,7c-11.1,0-13.3,2.2-13.3,12.5
			v8.4c0,0.7,0.4,1.1,1,1.1H4640.1z"/>
		<path class="st12" d="M4662,1796.5c-1.8-5.4-2.9-11.5-2.9-21.7c0-10.2,0.9-16.4,2.7-21.7c4.9-14.9,17.2-23.2,33.6-23.2
			c16.9,0,29.1,8.2,33.8,23c2,5.7,2.9,12.4,2.9,20.9c0,3.4-2.3,5.7-5.9,5.7h-50.4c-0.7,0-1,0.4-1,1c0,4.1,0.4,7,1.4,10.4
			c3.3,9.9,11.1,14.9,21.7,14.9c8.4,0,14.1-2.5,20.7-7.4c1.8-1.4,3.4-2.2,5.2-2.2c3.6,0,6.3,2.7,6.3,6.3c0,2.2-0.9,3.9-2.3,5.4
			c-7.4,6.8-17.6,11.9-30.9,11.9C4678.9,1819.9,4666.9,1811.5,4662,1796.5z M4715.5,1767.4c0.7,0,1-0.4,1-1c0-3.9-0.4-7-1.2-9.7
			c-2.9-8.6-10-13.5-19.7-13.5c-9.7,0-16.9,4.9-19.7,13.5c-0.9,2.7-1.2,5.7-1.2,9.7c0,0.7,0.4,1,1,1H4715.5z"/>
		<path class="st12" d="M4799,1703c0-4.3,2.7-7.2,7.2-7.2h31.1c23.7,0,38.3,9.4,44.2,27.8c2.7,7.9,3.6,15.6,3.6,33.2
			c0,17.6-0.9,25.3-3.6,33.2c-5.9,18.5-20.5,27.8-44.2,27.8h-31.1c-4.5,0-7.2-2.9-7.2-7.2V1703z M4816,1802.9h20.1
			c16.2,0,25.5-5,29.8-18.3c2-6.3,2.9-13.3,2.9-27.8c0-14.5-0.9-21.5-2.9-27.8c-4.3-13.3-13.7-18.3-29.8-18.3H4816c-0.7,0-1,0.4-1,1
			v90.1C4815,1802.6,4815.4,1802.9,4816,1802.9z"/>
		<path class="st12" d="M4907.7,1796.5c-1.8-5.4-2.9-11.5-2.9-21.7c0-10.2,0.9-16.4,2.7-21.7c4.9-14.9,17.2-23.2,33.6-23.2
			c16.9,0,29.1,8.2,33.8,23c2,5.7,2.9,12.4,2.9,20.9c0,3.4-2.3,5.7-5.9,5.7h-50.4c-0.7,0-1,0.4-1,1c0,4.1,0.4,7,1.4,10.4
			c3.3,9.9,11.1,14.9,21.7,14.9c8.4,0,14.1-2.5,20.7-7.4c1.8-1.4,3.4-2.2,5.2-2.2c3.6,0,6.3,2.7,6.3,6.3c0,2.2-0.9,3.9-2.3,5.4
			c-7.4,6.8-17.6,11.9-30.9,11.9C4924.6,1819.9,4912.5,1811.5,4907.7,1796.5z M4961.2,1767.4c0.7,0,1-0.4,1-1c0-3.9-0.4-7-1.2-9.7
			c-2.9-8.6-10-13.5-19.7-13.5c-9.7,0-16.9,4.9-19.7,13.5c-0.9,2.7-1.2,5.7-1.2,9.7c0,0.7,0.4,1,1,1H4961.2z"/>
		<path class="st12" d="M5022.1,1818.7c-15.4,0-21-7.6-21-23v-92.8c0-5,3.2-8.1,7.6-8.1c4.3,0,7.6,3.1,7.6,8.1v91.9
			c0,7.2,2.3,9.9,8.2,9.9c4.3,0,7,2.9,7,7c0,4.1-2.7,7-7.8,7H5022.1z"/>
		<path class="st12" d="M5048.6,1704.7c0-5.5,4.5-9.9,9.8-9.9c5.4,0,9.9,4.3,9.9,9.9c0,5.4-4.5,9.9-9.9,9.9
			C5053.1,1714.6,5048.6,1710.1,5048.6,1704.7z M5051,1739c0-5,3.3-8.1,7.6-8.1s7.6,3.1,7.6,8.1v71.7c0,5-3.2,8.1-7.6,8.1
			c-4.3,0-7.6-3.1-7.6-8.1V1739z"/>
		<path class="st12" d="M5113.3,1809.4l-26-67.5c-0.6-1.4-0.7-2.5-0.7-3.8c0-3.9,2.9-7.2,7.4-7.2c3.6,0,5.9,2.2,7.2,5.4l22.3,59.8
			h0.4l21.7-59.8c1.2-3.3,3.6-5.4,7.2-5.4c4.5,0,7.4,3.3,7.4,7.2c0,1.2-0.2,2.3-0.7,3.8l-26.2,67.5c-2.7,7-5,9.4-9.8,9.4
			C5118.3,1818.7,5116,1816.4,5113.3,1809.4z"/>
		<path class="st12" d="M5177.8,1796.5c-1.8-5.4-2.9-11.5-2.9-21.7c0-10.2,0.9-16.4,2.7-21.7c4.9-14.9,17.2-23.2,33.6-23.2
			c16.9,0,29.1,8.2,33.8,23c2,5.7,2.9,12.4,2.9,20.9c0,3.4-2.3,5.7-5.9,5.7h-50.4c-0.7,0-1,0.4-1,1c0,4.1,0.4,7,1.4,10.4
			c3.3,9.9,11.1,14.9,21.7,14.9c8.4,0,14.1-2.5,20.7-7.4c1.8-1.4,3.4-2.2,5.2-2.2c3.6,0,6.3,2.7,6.3,6.3c0,2.2-0.9,3.9-2.3,5.4
			c-7.4,6.8-17.6,11.9-30.9,11.9C5194.7,1819.9,5182.6,1811.5,5177.8,1796.5z M5231.3,1767.4c0.7,0,1-0.4,1-1c0-3.9-0.4-7-1.2-9.7
			c-2.9-8.6-10-13.5-19.7-13.5c-9.7,0-16.9,4.9-19.7,13.5c-0.9,2.7-1.2,5.7-1.2,9.7c0,0.7,0.4,1,1,1H5231.3z"/>
		<path class="st12" d="M5271.5,1810.7V1739c0-5,3.3-8.1,7.6-8.1s7.6,3.1,7.6,8.1v3.9h0.2c3.6-7.8,11.5-13.1,22.1-13.1
			c5.9,0,9.9,1.4,12.7,3.1c3.1,1.6,4.3,3.9,4.3,6.5c0,4.3-3.1,7.6-7.6,7.6c-1.1,0-2.5-0.4-3.8-0.9c-3.2-1.2-6.3-2.2-9.9-2.2
			c-12.9,0-18.1,10.8-18.1,25.1v41.6c0,5-3.2,8.1-7.6,8.1C5274.8,1818.7,5271.5,1815.7,5271.5,1810.7z"/>
		<path class="st12" d="M5347.7,1850.2c-4.7,0-7.4-3.1-7.4-7s2.7-7,7.4-7c7,0,11.1-2.7,14.9-12.9l2.9-7.9l-29.3-73.8
			c-0.4-1.1-0.7-2.3-0.7-3.6c0-3.9,3.2-7,7.6-7c3.6,0,5.9,1.8,7.2,5.4l22.5,59.4h0.4l21.5-59.4c1.2-3.6,3.6-5.4,7-5.4
			c4.5,0,7.4,3.1,7.4,7c0,1.2-0.4,2.5-0.7,3.6l-32.3,84.8c-7.6,19.4-14.4,23.9-26.8,23.9L5347.7,1850.2L5347.7,1850.2z"/>
	</g>
	<g>
		<path class="st12" d="M3239.2,861.4c0-17.7,10.2-29.3,27-29.3h107c72.3,0,108,39.9,108,99.7c0,39.3-15.8,66.4-40.2,80.3v1.1
			c25.5,11.1,46.4,42.6,46.4,86.9c0,70.9-43.8,108.5-116.2,108.5h-105c-16.8,0-27-11.1-27-28.8L3239.2,861.4L3239.2,861.4z
			 M3371.7,988.7c30.6,0,49.4-19.9,49.4-49.3c0-29.9-18.8-49.8-49.4-49.8h-69.3c-2,0-3.1,1.1-3.1,3.3v92.5c0,2.2,1,3.3,3.1,3.3
			H3371.7z M3302.4,1151h72.3c33.7,0,52.5-21,52.5-52.6c0-31-18.8-52-52.5-52h-72.3c-2,0-3.1,1.1-3.1,3.3v98
			C3299.3,1149.9,3300.3,1151,3302.4,1151z"/>
		<path class="st12" d="M3576.1,827.1c18.8,0,34.1,16.6,34.1,37.1s-15.3,37.1-34.1,37.1c-18.9,0-34.1-16.6-34.1-37.1
			C3541.9,843.7,3557.2,827.1,3576.1,827.1z M3547.5,1178.7V971.6c0-20.5,11.7-32.7,28.5-32.7c16.8,0,28.5,12.2,28.5,32.7v207.1
			c0,20.5-11.7,32.7-28.5,32.7C3559.2,1211.4,3547.5,1199.2,3547.5,1178.7z"/>
		<path class="st12" d="M3736.1,972.7h0.5c10.7-20.5,33.2-37.1,62.2-37.1c13.8,0,23.4,3.3,31.1,7.2c10.7,6.1,15.3,14.9,15.3,25.5
			c0,18.3-11.2,31.6-28.1,31.6c-4.1,0-8.7-1.1-13.2-2.8c-7.1-2.2-15.3-4.4-22.9-4.4c-31.6,0-44.8,27.1-44.8,67.5v118.5
			c0,20.5-11.7,32.7-28.5,32.7c-16.3,0-28.5-12.2-28.5-32.7V971.6c0-20.5,11.8-32.7,28.5-32.7c16.8,0,28.5,12.2,28.5,32.7V972.7z"/>
		<path class="st12" d="M3885.9,989.8c-14.3,0-23.4-9.4-23.4-23.8s9.2-24.4,23.4-24.4h7.1c2,0,3.6-1.1,3.6-3.3v-48.7
			c0-20.5,12.2-32.7,29-32.7c16.3,0,28.1,12.2,28.1,32.7v48.7c0,2.2,1,3.3,3.1,3.3h26c14.3,0,23.4,10,23.4,24.4s-9.2,23.8-23.4,23.8
			h-26c-2,0-3.1,1.1-3.1,3.3V1126c0,21.6,5.6,28.2,26.5,30.5c17.8,1.7,26,13.8,26,27.7c0,15.5-10.2,27.7-31.1,27.7h-4.6
			c-53.5,0-73.9-26-73.9-84.2V993.2c0-2.2-1.5-3.3-3.6-3.3L3885.9,989.8L3885.9,989.8z"/>
		<path class="st12" d="M4217.7,1178.7v-129.6c0-34.3-15.3-58.1-46.4-58.1c-30.1,0-46.9,23.8-46.9,58.1v129.6
			c0,20.5-11.7,32.7-28.5,32.7c-16.8,0-28.5-12.2-28.5-32.7V861.9c0-20.5,11.8-32.7,28.5-32.7s28.5,12.2,28.5,32.7v104.6h0.5
			c12.7-19.4,35.7-31,64.7-31c52.5,0,85.1,42.1,85.1,99.1v144c0,20.5-11.8,32.7-28.5,32.7
			C4229.3,1211.4,4217.7,1199.2,4217.7,1178.7z"/>
		<path class="st12" d="M4538.2,1190.9l-62.7-134.5h-64.7c-2,0-3.1,1.1-3.1,3.3V1177c0,21-12.2,34.3-30.1,34.3
			c-17.3,0-30.1-13.3-30.1-34.3V861.4c0-17.7,10.2-29.3,27-29.3h112.1c63.7,0,110.6,46,110.6,112.4c0,47.6-24.5,84.2-61.6,101.3
			l56.5,114.6c3.1,6.1,4.6,13.3,4.6,19.9c0,17.2-11.2,31-29,31C4555,1211.4,4544.8,1205.3,4538.2,1190.9z M4537.7,944.4
			c0-32.7-21.4-53.7-53-53.7h-73.9c-2,0-3.1,1.1-3.1,3.3v100.2c0,2.2,1,3.3,3.1,3.3h73.9C4516.3,997.6,4537.7,976.6,4537.7,944.4z"
			/>
		<path class="st12" d="M4680.3,827.1c18.8,0,34.1,16.6,34.1,37.1s-15.3,37.1-34.1,37.1c-18.9,0-34.1-16.6-34.1-37.1
			C4646.2,843.7,4661.5,827.1,4680.3,827.1z M4651.8,1178.7V971.6c0-20.5,11.7-32.7,28.5-32.7c16.8,0,28.5,12.2,28.5,32.7v207.1
			c0,20.5-11.8,32.7-28.5,32.7C4663.5,1211.4,4651.8,1199.2,4651.8,1178.7z"/>
		<path class="st12" d="M4778.2,1283.9c-5.1-6.1-7.6-13.8-7.6-20.5c0-14.4,10.2-27.1,24.5-27.1c8.2,0,15.3,3.3,22.9,8.9
			c12.2,8.9,27,13.8,42.3,13.8c35.2,0,54.5-19.4,54.5-64.2v-24.4h-0.5c-12.2,20.5-32.6,31-65.2,31c-40.8,0-69.3-23.8-82.1-66.4
			c-5.6-18.8-8.2-38.8-8.2-65.9c0-27.1,2.5-48.2,8.2-67c12.7-42.1,41.3-66.4,82.1-66.4c34.6,0,55.1,14.9,66.3,33.8h0.5v-6.1
			c2.5-13.3,11.7-24.4,27.5-24.4c16.8,0,28.5,12.2,28.5,32.7V1187c0,85.3-40.2,127.3-114.7,127.3
			C4824.5,1314.4,4791.9,1300,4778.2,1283.9z M4909.2,1026.4c-7.1-23.8-20.4-35.4-43.3-35.4c-22.9,0-36.2,11.6-43.3,35.4
			c-3.6,11.1-5.6,24.9-5.6,42.1c0,17.7,2,31.6,5.6,42.6c7.1,23.8,20.4,35.4,43.3,35.4c22.9,0,36.2-11.6,43.3-35.4
			c3.6-11.1,5.6-24.9,5.6-42.6C4914.8,1051.3,4912.8,1037.5,4909.2,1026.4z"/>
		<path class="st12" d="M5186.4,1178.7v-129.6c0-34.3-15.3-58.1-46.4-58.1c-30.1,0-46.9,23.8-46.9,58.1v129.6
			c0,20.5-11.8,32.7-28.5,32.7c-16.8,0-28.5-12.2-28.5-32.7V861.9c0-20.5,11.7-32.7,28.5-32.7c16.8,0,28.5,12.2,28.5,32.7v104.6h0.5
			c12.7-19.4,35.7-31,64.7-31c52.5,0,85.1,42.1,85.1,99.1v144c0,20.5-11.7,32.7-28.5,32.7
			C5198.1,1211.4,5186.4,1199.2,5186.4,1178.7z"/>
		<path class="st12" d="M5308.2,989.8c-14.3,0-23.4-9.4-23.4-23.8s9.2-24.4,23.4-24.4h7.1c2,0,3.6-1.1,3.6-3.3v-48.7
			c0-20.5,12.2-32.7,29-32.7c16.3,0,28.1,12.2,28.1,32.7v48.7c0,2.2,1,3.3,3.1,3.3h26c14.3,0,23.4,10,23.4,24.4s-9.2,23.8-23.4,23.8
			h-26c-2,0-3.1,1.1-3.1,3.3V1126c0,21.6,5.6,28.2,26.5,30.5c17.8,1.7,26,13.8,26,27.7c0,15.5-10.2,27.7-31.1,27.7h-4.6
			c-53.5,0-73.9-26-73.9-84.2V993.2c0-2.2-1.5-3.3-3.6-3.3L5308.2,989.8L5308.2,989.8z"/>
	</g>
</g>
</svg>
