<?xml version="1.0" encoding="UTF-8"?>
<svg version="1.1" xmlns="http://www.w3.org/2000/svg" width="917" height="259">
<path d="M0 0 C1.23192912 0.00334608 1.23192912 0.00334608 2.48874569 0.00675976 C3.35460765 0.00519977 4.22046961 0.00363978 5.11256981 0.00203252 C8.03688819 -0.0019813 10.96115537 0.00121363 13.88547421 0.00434887 C15.97264289 0.002995 18.05981134 0.00121515 20.14697933 -0.00096118 C25.83276227 -0.0055372 31.51852715 -0.00374527 37.20431042 -0.0005821 C43.14026852 0.00194064 49.07622503 -0.00039579 55.01218319 -0.00196826 C64.98264501 -0.00379021 74.95309944 -0.00138299 84.92356014 0.00337231 C96.46892387 0.00881498 108.01426995 0.00705234 119.55963326 0.00154591 C129.45258231 -0.00298451 139.34552604 -0.00363613 149.2384758 -0.00101542 C155.15571348 0.00054775 161.07294286 0.00074002 166.99018002 -0.00255191 C172.55178184 -0.00542959 178.11336079 -0.00345686 183.67496014 0.00234234 C185.72248833 0.0036705 187.77001844 0.00327489 189.81754589 0.00107968 C192.60006213 -0.00162965 195.38250381 0.00174662 198.16501522 0.00675976 C198.9863013 0.00452904 199.80758738 0.00229832 200.65376091 0 C206.21273062 0.01959357 206.21273062 0.01959357 207.32688046 1.13374341 C207.42681883 3.62297346 207.46129561 6.08451893 207.4538641 8.57429516 C207.45542409 9.36256963 207.45698408 10.15084409 207.45859134 10.96300566 C207.46260452 13.62475454 207.45941048 16.28644715 207.45627499 18.94819653 C207.45762889 20.84817551 207.45940875 22.74815423 207.46158504 24.64813244 C207.46616072 29.82360166 207.46436927 34.99905103 207.46120596 40.17452061 C207.45868305 45.57796165 207.4610197 50.98140094 207.46259212 56.38484204 C207.46441402 65.46081358 207.46200698 74.536777 207.45725155 83.61274731 C207.45180889 94.12201173 207.45357153 104.63125675 207.45907795 115.14052069 C207.46360851 124.14600379 207.46425992 133.15148103 207.46163929 142.1569649 C207.46007619 147.543235 207.45988362 152.92949597 207.46317577 158.3157655 C207.46605366 163.37833646 207.46408033 168.44088228 207.45828152 173.50345051 C207.45695347 175.36714714 207.45734878 177.23084586 207.45954418 179.09454167 C207.46225395 181.62745405 207.45887671 184.16028456 207.4538641 186.69319165 C207.45609482 187.44054971 207.45832554 188.18790777 207.46062386 188.95791304 C207.44103031 194.01959355 207.44103031 194.01959355 206.32688046 195.13374341 C203.59801913 195.23382773 200.89439606 195.26814041 198.16501522 195.26072705 C197.29915326 195.26228704 196.4332913 195.26384703 195.5411911 195.26545429 C192.61687272 195.26946811 189.69260554 195.26627318 186.76828671 195.26313794 C184.68111802 195.26449181 182.59394957 195.26627166 180.50678158 195.268448 C174.82099864 195.27302401 169.13523376 195.27123208 163.44945049 195.26806891 C157.51349239 195.26554617 151.57753588 195.2678826 145.64157772 195.26945508 C135.6711159 195.27127702 125.70066147 195.2688698 115.73020077 195.2641145 C104.18483704 195.25867183 92.63949096 195.26043447 81.09412766 195.2659409 C71.2011786 195.27047132 61.30823487 195.27112294 51.41528511 195.26850224 C45.49804743 195.26693906 39.58081805 195.26674679 33.66358089 195.27003872 C28.10197907 195.2729164 22.54040012 195.27094367 16.97880077 195.26514447 C14.93127258 195.26381631 12.88374247 195.26421192 10.83621502 195.26640713 C8.05369878 195.26911646 5.2712571 195.26574019 2.48874569 195.26072705 C1.66745961 195.26295777 0.84617353 195.26518849 0 195.26748681 C-5.55896971 195.24789324 -5.55896971 195.24789324 -6.67311954 194.13374341 C-6.77305792 191.64451335 -6.8075347 189.18296788 -6.80010319 186.69319165 C-6.80166318 185.90491718 -6.80322317 185.11664272 -6.80483043 184.30448115 C-6.80884361 181.64273227 -6.80564957 178.98103966 -6.80251408 176.31929028 C-6.80386798 174.4193113 -6.80564784 172.51933258 -6.80782413 170.61935437 C-6.81239981 165.44388515 -6.81060836 160.26843578 -6.80744505 155.0929662 C-6.80492214 149.68952516 -6.80725879 144.28608588 -6.80883121 138.88264477 C-6.81065311 129.80667323 -6.80824607 120.73070981 -6.80349064 111.6547395 C-6.79804798 101.14547508 -6.79981062 90.63623006 -6.80531704 80.12696612 C-6.8098476 71.12148302 -6.81049901 62.11600578 -6.80787838 53.11052191 C-6.80631528 47.72425181 -6.80612271 42.33799084 -6.80941486 36.95172131 C-6.81229275 31.88915035 -6.81031942 26.82660453 -6.80452061 21.7640363 C-6.80319256 19.90033967 -6.80358787 18.03664095 -6.80578327 16.17294514 C-6.80849304 13.64003276 -6.8051158 11.10720225 -6.80010319 8.57429516 C-6.80233391 7.8269371 -6.80456463 7.07957904 -6.80686295 6.30957377 C-6.78243169 -0.00184997 -6.2587686 0.02206014 0 0 Z " fill="#E3242A" transform="translate(61.67311954498291,32.8662565946579)"/>
<path d="M0 0 C70.62 0 141.24 0 214 0 C214 17.16 214 34.32 214 52 C212.19620806 53.80379194 209.7284584 53.12527862 207.32688046 53.13374341 C206.50559438 53.13151268 205.6843083 53.12928196 204.83813477 53.12698364 C203.97227281 53.12854363 203.10641085 53.13010362 202.21431065 53.13171089 C199.28999227 53.1357247 196.36572509 53.13252977 193.44140625 53.12939453 C191.35423756 53.1307484 189.26706911 53.13252825 187.17990112 53.13470459 C181.49411819 53.1392806 175.80835331 53.13748868 170.12257004 53.1343255 C164.18661193 53.13180276 158.25065543 53.1341392 152.31469727 53.13571167 C142.34423544 53.13753362 132.37378101 53.13512639 122.40332031 53.13037109 C110.85795658 53.12492843 99.3126105 53.12669107 87.7672472 53.1321975 C77.87429814 53.13672791 67.98135442 53.13737953 58.08840466 53.13475883 C52.17116697 53.13319566 46.2539376 53.13300338 40.33670044 53.13629532 C34.77509861 53.13917299 29.21351966 53.13720026 23.65192032 53.13140106 C21.60439212 53.1300729 19.55686202 53.13046852 17.50933456 53.13266373 C14.72681833 53.13537306 11.94437665 53.13199679 9.16186523 53.12698364 C7.92993612 53.13032973 7.92993612 53.13032973 6.67311954 53.13374341 C1.11414983 53.11414983 1.11414983 53.11414983 0 52 C0 34.84 0 17.68 0 0 Z " fill="#77C047" transform="translate(55,175)"/>
<path d="M0 0 C10.56 0 21.12 0 32 0 C38.6309946 14.42532159 44.80723523 29.00704824 50.85766602 43.68261719 C51.1747905 44.44976044 51.49191498 45.21690369 51.81864929 46.0072937 C52.41547037 47.45155634 53.01042054 48.89659415 53.60310364 50.34255981 C55.24611797 54.31722563 57.02959692 58.17719537 59 62 C61.85678295 55.30877716 64.70840538 48.61538021 67.55351925 41.91918659 C68.87487976 38.8097097 70.19798422 35.70099971 71.52514648 32.59399414 C73.05118303 29.01897351 74.57109946 25.44140479 76.08984375 21.86328125 C76.56590561 20.75165115 77.04196747 19.64002106 77.53245544 18.4947052 C77.97283646 17.45400375 78.41321747 16.41330231 78.86694336 15.34106445 C79.25555038 14.4283931 79.64415741 13.51572174 80.04454041 12.57539368 C80.97983791 10.05434592 81.55190347 7.64712775 82 5 C79.69 5 77.38 5 75 5 C75 3.35 75 1.7 75 0 C82.18567744 -0.12769107 89.37105798 -0.21472226 96.55761719 -0.2746582 C98.99783258 -0.29966702 101.43797409 -0.33368527 103.87792969 -0.37719727 C107.40318117 -0.43844959 110.92743495 -0.46634755 114.453125 -0.48828125 C116.06637665 -0.52699089 116.06637665 -0.52699089 117.71221924 -0.56648254 C126.32427643 -0.56960932 134.80285938 1.16042628 141.33575439 7.13676453 C146.48670299 12.84123763 147.29719043 16.36129007 147.21484375 24.01953125 C146.75995273 30.33011035 143.64526702 33.97410192 139 38 C134.3578849 41.40485715 130.78508124 43.24291967 125 44 C130.60554594 51.36093611 136.27389934 58.6403717 142.1875 65.7578125 C144 68 144 68 146 71 C150.4493795 65.94175804 154.527636 60.734338 158.4375 55.25 C158.99115234 54.49589844 159.54480469 53.74179688 160.11523438 52.96484375 C160.63279297 52.23910156 161.15035156 51.51335937 161.68359375 50.765625 C162.38826782 49.78770996 162.38826782 49.78770996 163.10717773 48.79003906 C164.34066633 46.84464611 164.34066633 46.84464611 163 44 C160.03 43.67 157.06 43.34 154 43 C153.61781233 41.34385343 153.28604898 39.67542976 153 38 C154 37 154 37 157.32641602 36.88647461 C158.80225556 36.88663371 160.27810069 36.89232686 161.75390625 36.90234375 C162.52935287 36.9037587 163.3047995 36.90517365 164.10374451 36.90663147 C166.59003494 36.91224655 169.0762366 36.92480154 171.5625 36.9375 C173.24413933 36.94251306 174.92578006 36.9470763 176.60742188 36.95117188 C180.73831566 36.96222087 184.86914276 36.97949555 189 37 C189 38.65 189 40.3 189 42 C187.11197917 42.390625 185.22395833 42.78125 183.3359375 43.171875 C177.13796325 45.36915015 173.23848397 49.64268128 169.1875 54.5625 C168.67268066 55.17585205 168.15786133 55.7892041 167.62744141 56.42114258 C166.07652422 58.27393386 164.53715283 60.13578272 163 62 C162.09773701 63.0860046 161.19539813 64.17194616 160.29296875 65.2578125 C155.96062891 70.48960338 155.96062891 70.48960338 152 76 C152.34913416 79.12707833 153.57069227 81.06829569 155.484375 83.51171875 C156.0014502 84.17929199 156.51852539 84.84686523 157.05126953 85.53466797 C157.61185059 86.24510254 158.17243164 86.95553711 158.75 87.6875 C159.92996085 89.20421446 161.1096398 90.72114827 162.2890625 92.23828125 C162.89911133 93.01896973 163.50916016 93.7996582 164.13769531 94.60400391 C165.99091867 96.98831618 167.82325709 99.38713866 169.6484375 101.79296875 C170.52290527 102.94502808 170.52290527 102.94502808 171.41503906 104.12036133 C172.53518083 105.5973044 173.65435809 107.07497958 174.77246094 108.5534668 C175.28325195 109.22418213 175.79404297 109.89489746 176.3203125 110.5859375 C176.76648926 111.1742334 177.21266602 111.7625293 177.67236328 112.36865234 C181.09081936 116.5691164 183.63132633 117.68315551 189 119 C189 120.32 189 121.64 189 123 C175.8 123 162.6 123 149 123 C149 121.68 149 120.36 149 119 C152.63 118.67 156.26 118.34 160 118 C157.90913772 112.69768258 155.3456928 108.19079883 152.125 103.5 C151.70347656 102.87480469 151.28195313 102.24960938 150.84765625 101.60546875 C147.96850211 97.35277318 144.99814227 93.1694595 142 89 C138.12771352 92.66484256 135.03575276 96.50161867 132 100.875 C131.16666667 102.05989583 130.33333333 103.24479167 129.5 104.4296875 C129.09394531 105.01459961 128.68789062 105.59951172 128.26953125 106.20214844 C127.3897958 107.44798918 126.48980468 108.67967801 125.57421875 109.89941406 C122.7096064 113.5441676 122.7096064 113.5441676 122 118 C125.3 118.33 128.6 118.66 132 119 C132.33 120.32 132.66 121.64 133 123 C132 124 132 124 128.67358398 124.11352539 C127.19774444 124.11336629 125.72189931 124.10767314 124.24609375 124.09765625 C123.47064713 124.0962413 122.6952005 124.09482635 121.89625549 124.09336853 C119.40996506 124.08775345 116.9237634 124.07519846 114.4375 124.0625 C112.75586067 124.05748694 111.07421994 124.0529237 109.39257812 124.04882812 C105.26168434 124.03777913 101.13085724 124.02050445 97 124 C97 122.68 97 121.36 97 120 C97.56847656 119.93683594 98.13695312 119.87367188 98.72265625 119.80859375 C109.09384367 118.16374766 113.5062414 110.53582386 119.57470703 102.63037109 C122.09015702 99.36486593 124.66727246 96.19917578 127.41015625 93.12109375 C127.96743408 92.49340088 128.52471191 91.86570801 129.09887695 91.21899414 C130.18192089 90.00943761 131.27524653 88.80899277 132.37963867 87.61889648 C134.04785797 85.80677336 134.04785797 85.80677336 136 83 C135.67134654 79.83086966 134.42703366 77.96855677 132.41015625 75.56640625 C131.87777344 74.92364746 131.34539062 74.28088867 130.796875 73.61865234 C130.22453125 72.94012207 129.6521875 72.2615918 129.0625 71.5625 C127.87488161 70.13008278 126.68870139 68.69647204 125.50390625 67.26171875 C124.9123877 66.54677246 124.32086914 65.83182617 123.71142578 65.09521484 C120.44555114 61.09696432 117.33807843 56.98000067 114.21875 52.8671875 C112.59573702 50.76984327 110.94682731 48.76378988 109.21875 46.7578125 C107 44 107 44 107 42 C107.6290625 41.98582031 108.258125 41.97164062 108.90625 41.95703125 C115.40483396 41.59491136 120.06051786 40.35903608 125 36 C129.20106223 30.85369876 129.62989868 26.45963475 129.3828125 19.87890625 C128.6716094 14.53036865 126.84032713 11.42625353 122.5 8.0625 C117.38654773 6.51020199 112.30453197 6.41060756 107 7 C106.01 7.66 105.02 8.32 104 9 C103.54540849 12.01732557 103.54540849 12.01732557 103.62768555 15.62109375 C103.62403488 16.30092316 103.62038422 16.98075256 103.61662292 17.68118286 C103.60850163 19.93354089 103.62213978 22.18518301 103.63671875 24.4375 C103.63723717 25.99926757 103.63672017 27.56103581 103.63520813 29.12280273 C103.63529792 32.39804814 103.64574164 35.67304776 103.66381836 38.94824219 C103.68650594 43.15185365 103.68705046 47.35510577 103.68030071 51.5587616 C103.67696325 54.78433439 103.68358658 58.00982488 103.69342995 61.23538208 C103.6972861 62.78556895 103.69842845 64.33576496 103.6968441 65.88595581 C103.69647428 68.05045087 103.70906973 70.21448088 103.7253418 72.37890625 C103.72994919 73.6119751 103.73455658 74.84504395 103.73930359 76.11547852 C103.70110187 79.12816134 103.70110187 79.12816134 106 81 C108.20250992 81.46006346 108.20250992 81.46006346 110.625 81.625 C111.44226563 81.69976562 112.25953125 81.77453125 113.1015625 81.8515625 C114.04128906 81.92503906 114.04128906 81.92503906 115 82 C115 83.65 115 85.3 115 87 C101.47 87 87.94 87 74 87 C74 85.35 74 83.7 74 82 C74.61488281 81.96261719 75.22976562 81.92523438 75.86328125 81.88671875 C76.67152344 81.82097656 77.47976562 81.75523438 78.3125 81.6875 C79.11300781 81.62949219 79.91351563 81.57148437 80.73828125 81.51171875 C83.51445337 80.88360381 84.29780271 80.26882467 86 78 C86.43620749 75.23448575 86.43620749 75.23448575 86.34057617 72.05981445 C86.34034958 70.83877518 86.34012299 69.6177359 86.33988953 68.35969543 C86.32440567 67.04087875 86.30892181 65.72206207 86.29296875 64.36328125 C86.28737243 62.99993862 86.2831025 61.63658996 86.28010559 60.27323914 C86.26865949 56.68756408 86.23919486 53.10225446 86.20599365 49.51672363 C86.17528739 45.8569025 86.1615991 42.19702223 86.14648438 38.53710938 C86.11432449 31.35790644 86.06313153 24.17900446 86 17 C84.12598704 21.21514247 82.25552554 25.43184075 80.38809204 29.64990234 C79.71366794 31.17277581 79.03868168 32.69540043 78.36312866 34.21777344 C74.48953631 42.95199761 70.67706469 51.70476144 67.02734375 60.53515625 C66.71210754 61.29416733 66.39687134 62.05317841 66.07208252 62.83518982 C64.5552658 66.48796079 63.05167538 70.14516047 61.56982422 73.81225586 C61.02241799 75.13550563 60.47443514 76.45851706 59.92578125 77.78125 C59.45567627 78.93689453 58.98557129 80.09253906 58.5012207 81.28320312 C56.91771406 84.14891493 56.05206836 84.97321253 53 86 C50.3928944 81.92815623 48.47840684 77.66982844 46.62890625 73.21875 C46.31009995 72.45994537 45.99129364 71.70114075 45.66282654 70.91934204 C44.62562258 68.4477852 43.59396575 65.97395642 42.5625 63.5 C41.84857509 61.79529798 41.13438025 60.09070898 40.41992188 58.38623047 C34.23220947 43.61061218 28.10428807 28.81024468 22 14 C21.90713021 21.58889362 21.83614925 29.17772797 21.79275131 36.76706123 C21.77191731 40.29152694 21.74367798 43.81560253 21.69824219 47.33984375 C21.64628044 51.39587043 21.62702033 55.45149029 21.609375 59.5078125 C21.58872986 60.76739777 21.56808472 62.02698303 21.54681396 63.32473755 C21.49076457 71.98896841 21.49076457 71.98896841 26 79 C29.44450737 81.29633824 31.93812283 81.54016485 36 82 C36.33 83.65 36.66 85.3 37 87 C24.46 87 11.92 87 -1 87 C-0.67 85.35 -0.34 83.7 0 82 C0.60328125 81.90203125 1.2065625 81.8040625 1.828125 81.703125 C2.62734375 81.55359375 3.4265625 81.4040625 4.25 81.25 C5.43335937 81.04117188 5.43335937 81.04117188 6.640625 80.828125 C9.69045841 79.75765367 10.97091404 78.51645536 13 76 C13.61093537 73.05671325 13.61093537 73.05671325 13.53344727 69.75024414 C13.5492836 68.4853566 13.56511993 67.22046906 13.58143616 65.91725159 C13.57759442 64.53988272 13.57255522 63.16251675 13.56640625 61.78515625 C13.57164301 60.36795137 13.57791969 58.95074998 13.58518982 57.53355408 C13.59559132 54.56525253 13.59103741 51.59743044 13.57641602 48.62915039 C13.55923642 44.83123912 13.58271164 41.03484193 13.61790562 37.23709965 C13.63990276 34.31072527 13.63843266 31.38471183 13.6301403 28.45828056 C13.62932186 27.05847959 13.63616502 25.65865183 13.65091133 24.2589283 C13.66839249 22.29906917 13.65047429 20.33899175 13.63110352 18.37915039 C13.63014175 17.26536514 13.62917999 16.1515799 13.62818909 15.00404358 C12.7996151 11.04174557 11.07639438 9.54098514 8 7 C5.6025129 6.00484354 5.6025129 6.00484354 3.1875 5.6875 C2.39730469 5.54699219 1.60710937 5.40648437 0.79296875 5.26171875 C0.20128906 5.17535156 -0.39039062 5.08898438 -1 5 C-0.67 3.35 -0.34 1.7 0 0 Z " fill="#FEF9F7" transform="translate(66,43)"/>
<path d="M0 0 C70.62 0 141.24 0 214 0 C214 4.29 214 8.58 214 13 C212.19620806 14.80379194 209.7284584 14.12527862 207.32688046 14.13374341 C206.50559438 14.13151268 205.6843083 14.12928196 204.83813477 14.12698364 C203.97227281 14.12854363 203.10641085 14.13010362 202.21431065 14.13171089 C199.28999227 14.1357247 196.36572509 14.13252977 193.44140625 14.12939453 C191.35423756 14.1307484 189.26706911 14.13252825 187.17990112 14.13470459 C181.49411819 14.1392806 175.80835331 14.13748868 170.12257004 14.1343255 C164.18661193 14.13180276 158.25065543 14.1341392 152.31469727 14.13571167 C142.34423544 14.13753362 132.37378101 14.13512639 122.40332031 14.13037109 C110.85795658 14.12492843 99.3126105 14.12669107 87.7672472 14.1321975 C77.87429814 14.13672791 67.98135442 14.13737953 58.08840466 14.13475883 C52.17116697 14.13319566 46.2539376 14.13300338 40.33670044 14.13629532 C34.77509861 14.13917299 29.21351966 14.13720026 23.65192032 14.13140106 C21.60439212 14.1300729 19.55686202 14.13046852 17.50933456 14.13266373 C14.72681833 14.13537306 11.94437665 14.13199679 9.16186523 14.12698364 C7.92993612 14.13032973 7.92993612 14.13032973 6.67311954 14.13374341 C1.11414983 14.11414983 1.11414983 14.11414983 0 13 C0 8.71 0 4.42 0 0 Z " fill="#E02829" transform="translate(55,214)"/>
<path d="M0 0 C3.3 0 6.6 0 10 0 C12.41902034 2.81281434 13.50208006 4.69885159 15 8 C15.61141159 9.19567949 16.22906269 10.38818064 16.8515625 11.578125 C22 21.51137 22 21.51137 22 24 C24.61980117 21.64924131 26.09234576 19.23250529 27.69921875 16.11328125 C28.42915039 14.7065918 28.42915039 14.7065918 29.17382812 13.27148438 C29.67333984 12.29501953 30.17285156 11.31855469 30.6875 10.3125 C31.19861328 9.32443359 31.70972656 8.33636719 32.23632812 7.31835938 C33.49595134 4.8815182 34.74864539 2.44109754 36 0 C39.63 0 43.26 0 47 0 C47 15.18 47 30.36 47 46 C43.7 46 40.4 46 37 46 C36.505 33.625 36.505 33.625 36 21 C33.08111218 26.54862286 33.08111218 26.54862286 30.16625977 32.09936523 C29.80330811 32.78716064 29.44035645 33.47495605 29.06640625 34.18359375 C28.69459229 34.89056396 28.32277832 35.59753418 27.93969727 36.32592773 C27 38 27 38 26 39 C24.02 39 22.04 39 20 39 C15.545 30.585 15.545 30.585 11 22 C10.67 29.92 10.34 37.84 10 46 C6.7 46 3.4 46 0 46 C0 30.82 0 15.64 0 0 Z " fill="#E22328" transform="translate(303,44)"/>
<path d="M0 0 C3.63 0 7.26 0 11 0 C14.96 7.59 18.92 15.18 23 23 C26.15684889 17.3019259 26.15684889 17.3019259 29.31176758 11.6027832 C30.1482421 10.09503239 30.99789012 8.59454326 31.85791016 7.10009766 C33.12369587 4.8928399 33.12369587 4.8928399 34.13671875 1.91796875 C34.75160156 1.28503906 35.36648438 0.65210937 36 0 C39.63 0 43.26 0 47 0 C47 15.18 47 30.36 47 46 C43.7 46 40.4 46 37 46 C36.505 33.625 36.505 33.625 36 21 C33.03 26.61 30.06 32.22 27 38 C24.69 38 22.38 38 20 38 C15.545 29.585 15.545 29.585 11 21 C10.67 29.25 10.34 37.5 10 46 C6.7 46 3.4 46 0 46 C0 30.82 0 15.64 0 0 Z " fill="#E22328" transform="translate(686,115)"/>
<path d="M0 0 C9 0 9 0 11.08813477 1.29418945 C11.53471436 1.89448975 11.98129395 2.49479004 12.44140625 3.11328125 C12.95872314 3.77972656 13.47604004 4.44617188 14.0090332 5.1328125 C14.52167725 5.85210937 15.03432129 6.57140625 15.5625 7.3125 C16.11188232 8.03566406 16.66126465 8.75882813 17.22729492 9.50390625 C18.84719335 11.64950487 20.42642211 13.82029946 22 16 C22.86816798 17.17177765 23.73780725 18.34246764 24.609375 19.51171875 C26.4344733 21.98725101 28.22225659 24.4902446 30 27 C30.33 18.09 30.66 9.18 31 0 C34.3 0 37.6 0 41 0 C41 15.18 41 30.36 41 46 C32 46 32 46 29.80419922 44.58227539 C29.06194092 43.59988892 29.06194092 43.59988892 28.3046875 42.59765625 C27.73363281 41.87126953 27.16257812 41.14488281 26.57421875 40.39648438 C26.01347656 39.62626953 25.45273437 38.85605469 24.875 38.0625 C24.30652344 37.32708984 23.73804688 36.59167969 23.15234375 35.83398438 C22.06801689 34.42632648 20.99456244 33.01015913 19.93701172 31.58227539 C17.0108371 27.68132393 13.9938605 23.84924921 11 20 C10.67 28.58 10.34 37.16 10 46 C6.7 46 3.4 46 0 46 C0 30.82 0 15.64 0 0 Z " fill="#E22328" transform="translate(779,115)"/>
<path d="M0 0 C9 0 9 0 11.96875 2.640625 C12.84193902 3.82255764 13.68475932 5.02737722 14.5 6.25 C15.17929565 7.18996826 15.17929565 7.18996826 15.87231445 8.14892578 C16.80616499 9.44355624 17.72845995 10.7465985 18.63916016 12.05761719 C20.32590684 14.46518027 22.09237344 16.80513322 23.8737793 19.14306641 C25.59842188 21.4167357 27.29669062 23.71030542 29 26 C29.33 17.42 29.66 8.84 30 0 C33.3 0 36.6 0 40 0 C40 15.18 40 30.36 40 46 C32 46 32 46 29.8203125 44.48828125 C29.26085937 43.77027344 28.70140625 43.05226562 28.125 42.3125 C27.14853516 41.09433594 27.14853516 41.09433594 26.15234375 39.8515625 C25.44207031 38.91054687 24.73179687 37.96953125 24 37 C23.12795842 35.88151914 22.25418152 34.76438963 21.37890625 33.6484375 C17.8626369 29.14119646 14.42996424 24.57328565 11 20 C10.67 28.58 10.34 37.16 10 46 C6.7 46 3.4 46 0 46 C0 30.82 0 15.64 0 0 Z " fill="#E22328" transform="translate(321,115)"/>
<path d="M0 0 C25.41176471 0 25.41176471 0 33.25 5.125 C38.30750282 10.41238932 40.21848244 15.63681115 40.5 22.9375 C40.22393787 29.70964906 39.02391769 36.01258836 34.05859375 40.91796875 C29.14541621 44.72726478 25.5001663 46.12944247 19.23828125 46.09765625 C17.72681519 46.09390991 17.72681519 46.09390991 16.18481445 46.09008789 C14.2680188 46.07643188 14.2680188 46.07643188 12.3125 46.0625 C6.2178125 46.0315625 6.2178125 46.0315625 0 46 C0 30.82 0 15.64 0 0 Z M10 9 C10 18.57 10 28.14 10 38 C19.71270621 38.38323714 19.71270621 38.38323714 27 34 C30.4016598 29.28156867 30.72710557 24.62496949 30 19 C28.71632192 15.22028121 27.38685632 13.3675135 24.5 10.625 C19.98028977 8.2279626 19.98028977 8.2279626 10 9 Z " fill="#E22328" transform="translate(396,44)"/>
<path d="M0 0 C4.16625 -0.0825 8.3325 -0.165 12.625 -0.25 C13.92775879 -0.28641602 15.23051758 -0.32283203 16.57275391 -0.36035156 C27.32352623 -0.46354832 27.32352623 -0.46354832 32 4 C35.29603837 7.9414767 36.32270945 12.0432626 36.0625 17.125 C35.32732789 22.08741175 33.65276323 24.61451213 30 28 C29.34 28 28.68 28 28 28 C28.45439453 28.7113208 28.45439453 28.7113208 28.91796875 29.43701172 C30.28331246 31.58007621 31.64172139 33.72745138 33 35.875 C33.47695313 36.62136719 33.95390625 37.36773437 34.4453125 38.13671875 C34.89648438 38.85214844 35.34765625 39.56757813 35.8125 40.3046875 C36.23144531 40.96452637 36.65039062 41.62436523 37.08203125 42.30419922 C38 44 38 44 38 46 C34.04985002 46.9303157 30.90992551 47.20032687 27 46 C24.6946068 43.10357447 22.95244211 40.3831181 21.34594727 37.06787109 C19.44667895 33.33664958 19.44667895 33.33664958 15.95068359 31.33544922 C13.48628177 30.98750638 13.48628177 30.98750638 10 31 C10 35.95 10 40.9 10 46 C6.7 46 3.4 46 0 46 C0 30.82 0 15.64 0 0 Z M10 8 C10 12.62 10 17.24 10 22 C11.918125 22.061875 13.83625 22.12375 15.8125 22.1875 C16.89144531 22.22230469 17.97039063 22.25710937 19.08203125 22.29296875 C21.97984037 22.2506275 21.97984037 22.2506275 23.82421875 20.66796875 C25.667258 18.0534247 26 16.18940134 26 13 C24.38300481 9.87916526 24.38300481 9.87916526 21 8 C17.22812996 7.58207892 13.81589415 7.77012686 10 8 Z " fill="#E22328" transform="translate(527,115)"/>
<path d="M0 0 C5.6925 -0.12375 5.6925 -0.12375 11.5 -0.25 C12.68013672 -0.28641602 13.86027344 -0.32283203 15.07617188 -0.36035156 C22.3107886 -0.43606835 28.07359943 0.3434052 33.51708984 5.4128418 C39.3753198 11.99044807 39.52931093 18.75027066 39.30078125 27.10546875 C38.92690566 31.94642934 38.30959736 35.37436682 35 39 C23.68535924 48.40464635 16.57671742 46 0 46 C0 30.82 0 15.64 0 0 Z M10 8 C10 17.57 10 27.14 10 37 C19.31202436 37.79072689 19.31202436 37.79072689 26 34 C29.10466634 30.11916707 30.14507059 25.92333326 30 21 C29.11091804 16.62603427 27.72930017 13.72930017 24.5625 10.5625 C19.31550317 7.36311169 16.70236268 8 10 8 Z " fill="#E22328" transform="translate(370,115)"/>
<path d="M0 0 C6.02491073 3.51864664 10.0726184 8.71869841 12.21875 15.3359375 C13.93178391 23.01603951 12.61153169 29.70886789 8.50390625 36.3515625 C4.22687272 42.04619638 -1.48806764 44.66277364 -8.453125 45.78125 C-14.36138372 46.06038033 -19.61490252 44.52544045 -24.265625 40.92578125 C-30.30258 35.28198929 -32.43882756 30.29788704 -32.8125 22.125 C-32.62600964 15.63513562 -31.35959236 10.59172797 -27.3125 5.4375 C-19.56745842 -1.20885792 -9.78583393 -4.42062768 0 0 Z M-20.3125 12.4375 C-23.0567455 16.91446023 -22.8209627 21.3367313 -22.3125 26.4375 C-21.01186832 30.33939503 -19.69461634 32.08267769 -16.6875 34.875 C-12.85618034 36.6487591 -10.614485 36.91416989 -6.5 36.25390625 C-2.62457813 34.80754345 -0.4258274 31.89429982 1.6875 28.4375 C3.39554763 23.31335712 3.23620435 19.08370549 1 14.1875 C-0.92150933 10.73280029 -2.49011861 8.82745687 -6.3125 7.4375 C-13.03176627 6.58425984 -15.6531278 7.55625294 -20.3125 12.4375 Z " fill="#E22328" transform="translate(590.3125,45.5625)"/>
<path d="M0 0 C23 0 23 0 31 4 C34.58632683 8.57256671 35.60425764 12.06654525 35.328125 17.85546875 C34.62338793 22.46142887 32.50829233 25.99289229 29 29 C30.72052101 33.65208836 33.13317329 37.60484829 35.7578125 41.79296875 C37 44 37 44 37 46 C33.04985002 46.9303157 29.90992551 47.20032687 26 46 C23.6946068 43.10357447 21.95244211 40.3831181 20.34594727 37.06787109 C18.44667895 33.33664958 18.44667895 33.33664958 14.95068359 31.33544922 C12.48628177 30.98750638 12.48628177 30.98750638 9 31 C9 35.95 9 40.9 9 46 C6.03 46 3.06 46 0 46 C0 30.82 0 15.64 0 0 Z M9 9 C9 13.62 9 18.24 9 23 C16.36917357 23.54087952 16.36917357 23.54087952 23.1875 21.375 C25.21685915 19.08500343 25.21685915 19.08500343 25.5625 16 C24.8685357 12.29885708 23.95080406 11.29017628 21 9 C17.95559865 8.51804725 17.95559865 8.51804725 14.75 8.75 C12.8525 8.8325 10.955 8.915 9 9 Z " fill="#E22328" transform="translate(609,44)"/>
<path d="M0 0 C-0.55728913 3.34373475 -1.35173889 6.03312999 -3 9 C-3.556875 8.7834375 -4.11375 8.566875 -4.6875 8.34375 C-10.05048072 6.38698677 -14.29476745 5.5996328 -20 6 C-20.99 6.495 -20.99 6.495 -22 7 C-21.67 8.65 -21.34 10.3 -21 12 C-19.74703125 12.38671875 -18.4940625 12.7734375 -17.203125 13.171875 C-15.551878 13.69727177 -13.90084749 14.22334927 -12.25 14.75 C-11.425 15.00265625 -10.6 15.2553125 -9.75 15.515625 C-5.27663984 16.95864441 -1.91801716 18.09907179 1 22 C2.61386527 26.84159581 2.83616487 31.20821813 0.6875 35.8125 C0.130625 36.534375 -0.42625 37.25625 -1 38 C-1.4125 38.556875 -1.825 39.11375 -2.25 39.6875 C-7.2765252 43.4573939 -13.97093497 43.64702161 -20 43 C-25.4429117 41.81570029 -30.39767691 40.22162616 -35 37 C-33.88243734 33.13151386 -32.97126708 30.71077243 -30 28 C-29.45730469 28.27714844 -28.91460938 28.55429688 -28.35546875 28.83984375 C-27.64003906 29.20207031 -26.92460938 29.56429687 -26.1875 29.9375 C-25.47980469 30.29714844 -24.77210938 30.65679687 -24.04296875 31.02734375 C-19.88969104 33.00471689 -16.56371209 33.16595317 -12 33 C-11.01 32.505 -11.01 32.505 -10 32 C-9.88669007 29.57515101 -9.88669007 29.57515101 -11 27 C-13.64160085 25.71840142 -15.97418152 24.79516926 -18.75 23.9375 C-23.90968863 22.28101723 -27.97292089 20.81957694 -32 17 C-33.72575116 13.54849768 -33.36104194 9.7810938 -33 6 C-31.24318129 1.83911358 -28.67300073 -0.42889949 -25 -3 C-16.29964117 -5.90011961 -7.98501701 -3.95717657 0 0 Z " fill="#E22328" transform="translate(553,48)"/>
<path d="M0 0 C10.56 0 21.12 0 32 0 C32 2.64 32 5.28 32 8 C24.74 8 17.48 8 10 8 C10 11.3 10 14.6 10 18 C16.27 18 22.54 18 29 18 C29 20.64 29 23.28 29 26 C22.73 26 16.46 26 10 26 C10 29.63 10 33.26 10 37 C17.26 37 24.52 37 32 37 C32 39.97 32 42.94 32 46 C21.44 46 10.88 46 0 46 C0 30.82 0 15.64 0 0 Z " fill="#E22328" transform="translate(741,115)"/>
<path d="M0 0 C10.56 0 21.12 0 32 0 C32 2.97 32 5.94 32 9 C24.74 9 17.48 9 10 9 C10 12.3 10 15.6 10 19 C16.27 19 22.54 19 29 19 C29 21.64 29 24.28 29 27 C22.73 27 16.46 27 10 27 C10 30.63 10 34.26 10 38 C17.26 38 24.52 38 32 38 C32 40.64 32 43.28 32 46 C21.44 46 10.88 46 0 46 C0 30.82 0 15.64 0 0 Z " fill="#E22328" transform="translate(358,44)"/>
<path d="M0 0 C10.23 0 20.46 0 31 0 C31 2.64 31 5.28 31 8 C23.74 8 16.48 8 9 8 C9 11.3 9 14.6 9 18 C15.27 18 21.54 18 28 18 C28 20.64 28 23.28 28 26 C21.73 26 15.46 26 9 26 C9 29.63 9 33.26 9 37 C16.59 37 24.18 37 32 37 C32 39.97 32 42.94 32 46 C21.44 46 10.88 46 0 46 C0 30.82 0 15.64 0 0 Z " fill="#E22328" transform="translate(570,115)"/>
<path d="M0 0 C3.3 0 6.6 0 10 0 C13.73924844 8.0060641 16.79266386 16.24131466 19.85595703 24.52270508 C20.75745122 26.95762563 21.66557014 29.39000713 22.57421875 31.82226562 C23.14883356 33.36964465 23.72306647 34.91716556 24.296875 36.46484375 C24.56868591 37.19186996 24.84049683 37.91889618 25.12054443 38.66795349 C27 43.77026751 27 43.77026751 27 46 C23.7 46 20.4 46 17 46 C15.68 42.7 14.36 39.4 13 36 C7.72 35.67 2.44 35.34 -3 35 C-3.99 38.63 -4.98 42.26 -6 46 C-9.3 46 -12.6 46 -16 46 C-15.34427545 40.73108513 -13.72768833 36.10907898 -11.875 31.171875 C-11.56804199 30.34165833 -11.26108398 29.51144165 -10.94482422 28.65606689 C-9.96820308 26.01882986 -8.98407257 23.38446433 -8 20.75 C-7.33807672 18.96371389 -6.67661348 17.17725723 -6.015625 15.390625 C-1.19014577 2.38029153 -1.19014577 2.38029153 0 0 Z M5 12 C4.34865075 13.56020867 3.70417036 15.12328579 3.0625 16.6875 C2.70285156 17.55761719 2.34320312 18.42773438 1.97265625 19.32421875 C1.0429688 21.88179265 0.45837375 24.3221323 0 27 C3.3 27 6.6 27 10 27 C8.91266548 21.87399439 7.77362508 16.94081272 6 12 C5.67 12 5.34 12 5 12 Z " fill="#E22328" transform="translate(620,115)"/>
<path d="M0 0 C1.37478516 0.01740234 1.37478516 0.01740234 2.77734375 0.03515625 C3.69644531 0.04417969 4.61554688 0.05320312 5.5625 0.0625 C6.27277344 0.07410156 6.98304688 0.08570312 7.71484375 0.09765625 C10.06792886 6.09007877 12.39765691 12.09126404 14.71484375 18.09765625 C15.11574219 19.1350293 15.51664062 20.17240234 15.9296875 21.24121094 C17.1782237 24.4821542 18.4164727 27.72686472 19.65234375 30.97265625 C20.05380615 32.01228516 20.45526855 33.05191406 20.86889648 34.12304688 C21.23958252 35.10208984 21.61026855 36.08113281 21.9921875 37.08984375 C22.32468506 37.9597998 22.65718262 38.82975586 22.99975586 39.72607422 C23.71484375 42.09765625 23.71484375 42.09765625 23.71484375 46.09765625 C20.41484375 46.09765625 17.11484375 46.09765625 13.71484375 46.09765625 C12.72484375 42.46765625 11.73484375 38.83765625 10.71484375 35.09765625 C2.79484375 35.59265625 2.79484375 35.59265625 -5.28515625 36.09765625 C-7.26515625 41.04765625 -7.26515625 41.04765625 -9.28515625 46.09765625 C-12.58515625 46.09765625 -15.88515625 46.09765625 -19.28515625 46.09765625 C-16.83691774 37.37030244 -13.72901855 28.92920344 -10.55957031 20.44458008 C-9.65110968 18.01092157 -8.74909247 15.57493983 -7.84765625 13.13867188 C-7.27251348 11.59230725 -6.69700627 10.04607811 -6.12109375 8.5 C-5.85130707 7.77094955 -5.58152039 7.04189911 -5.30355835 6.29075623 C-2.99369033 0.12793548 -2.99369033 0.12793548 0 0 Z M1.71484375 12.09765625 C1.04264024 14.03324224 0.37726298 15.97119997 -0.28515625 17.91015625 C-0.65640625 18.98910156 -1.02765625 20.06804687 -1.41015625 21.1796875 C-2.42877137 24.06886427 -2.42877137 24.06886427 -2.28515625 27.09765625 C1.01484375 27.09765625 4.31484375 27.09765625 7.71484375 27.09765625 C7.2618951 25.34625482 6.80225627 23.59658281 6.33984375 21.84765625 C6.08460938 20.873125 5.829375 19.89859375 5.56640625 18.89453125 C4.81885866 16.43928322 3.94360558 14.3414822 2.71484375 12.09765625 C2.38484375 12.09765625 2.05484375 12.09765625 1.71484375 12.09765625 Z " fill="#E22328" transform="translate(448.28515625,114.90234375)"/>
<path d="M0 0 C3.3 0 6.6 0 10 0 C13.63 10.23 17.26 20.46 21 31 C23.07869528 27.88195708 24.13755549 25.11025943 25.3828125 21.58203125 C25.60194305 20.96478683 25.82107361 20.34754242 26.04684448 19.71159363 C26.74345193 17.74657972 27.43429372 15.77959496 28.125 13.8125 C28.59727699 12.47707935 29.06992899 11.14179127 29.54296875 9.80664062 C30.69966237 6.53928541 31.85119497 3.2701384 33 0 C36.3 0 39.6 0 43 0 C41.73543124 6.25500212 40.04743747 12.02955504 37.7421875 17.97265625 C37.43427277 18.78117538 37.12635803 19.58969452 36.80911255 20.42271423 C35.83689228 22.97157922 34.85611732 25.5170483 33.875 28.0625 C33.20906376 29.80381795 32.54369392 31.54535261 31.87890625 33.28710938 C30.25913426 37.52727048 28.63168856 41.76441111 27 46 C23.37 46 19.74 46 16 46 C13.71283831 40.0950473 11.43442335 34.18682338 9.1640625 28.27539062 C8.39042043 26.26470008 7.61439258 24.25492581 6.8359375 22.24609375 C5.71767335 19.35914651 4.60801927 16.46901715 3.5 13.578125 C3.15001953 12.68007141 2.80003906 11.78201782 2.43945312 10.85675049 C1.95895508 9.5958963 1.95895508 9.5958963 1.46875 8.30957031 C1.04239258 7.20370575 1.04239258 7.20370575 0.60742188 6.07550049 C0 4 0 4 0 0 Z " fill="#E22328" transform="translate(456,44)"/>
<path d="M0 0 C12.87 0 25.74 0 39 0 C39 2.64 39 5.28 39 8 C34.05 8 29.1 8 24 8 C24 20.54 24 33.08 24 46 C20.7 46 17.4 46 14 46 C14 33.46 14 20.92 14 8 C9.38 8 4.76 8 0 8 C0 5.36 0 2.72 0 0 Z " fill="#E22328" transform="translate(484,115)"/>
<path d="M0 0 C12.54 0 25.08 0 38 0 C38 2.64 38 5.28 38 8 C33.38 8 28.76 8 24 8 C24 20.54 24 33.08 24 46 C20.7 46 17.4 46 14 46 C14 33.46 14 20.92 14 8 C9.38 8 4.76 8 0 8 C0 5.36 0 2.72 0 0 Z " fill="#E22328" transform="translate(643,115)"/>
<path d="M0 0 C12.87 0 25.74 0 39 0 C39 2.64 39 5.28 39 8 C34.05 8 29.1 8 24 8 C24 20.54 24 33.08 24 46 C21.03 46 18.06 46 15 46 C15 33.46 15 20.92 15 8 C10.05 8 5.1 8 0 8 C0 5.36 0 2.72 0 0 Z " fill="#E22328" transform="translate(824,115)"/>
<path d="M0 0 C3.3 0 6.6 0 10 0 C10 15.18 10 30.36 10 46 C6.7 46 3.4 46 0 46 C0 30.82 0 15.64 0 0 Z " fill="#E22328" transform="translate(415,115)"/>
<path d="M0 0 C3.3 0 6.6 0 10 0 C10 15.18 10 30.36 10 46 C6.7 46 3.4 46 0 46 C0 30.82 0 15.64 0 0 Z " fill="#E22328" transform="translate(303,115)"/>
<path d="M0 0 C3.3 0 6.6 0 10 0 C10 15.18 10 30.36 10 46 C6.7 46 3.4 46 0 46 C0 30.82 0 15.64 0 0 Z " fill="#E22328" transform="translate(503,44)"/>
<path d="M0 0 C3.3 0 6.6 0 10 0 C10 15.18 10 30.36 10 46 C6.7 46 3.4 46 0 46 C0 30.82 0 15.64 0 0 Z " fill="#E22328" transform="translate(442,44)"/>
<path d="M0 0 C0.66 0 1.32 0 2 0 C3.32 0 4.64 0 6 0 C5.46984529 3.23533769 4.89523393 6.46125278 4.3125 9.6875 C4.16361328 10.59951172 4.01472656 11.51152344 3.86132812 12.45117188 C2.82356842 18.04693497 1.80412603 21.47601534 -3 25 C-6.46979315 26.28582651 -9.87504716 26.34613933 -13.4375 25.25 C-15 24 -15 24 -16 21 C-15.01 20.34 -14.02 19.68 -13 19 C-12.34 19.66 -11.68 20.32 -11 21 C-8 21.41666667 -8 21.41666667 -5 21 C-4.34 20.01 -3.68 19.02 -3 18 C-3.9075 18.226875 -4.815 18.45375 -5.75 18.6875 C-9 19 -9 19 -11.3125 18.0625 C-13.8224144 14.99482684 -14.32061109 11.85461964 -14 8 C-10.47864134 1.20880831 -7.48218229 -0.27207936 0 0 Z M-4 3 C-7.56021742 5.47980602 -7.56021742 5.47980602 -9.9375 9 C-10.01559731 11.49911402 -9.28317658 12.8865327 -8 15 C-5.06556598 14.73343428 -5.06556598 14.73343428 -2 14 C0.29013653 10.5647952 0.17842973 9.014669 0 5 C-1.32 4.34 -2.64 3.68 -4 3 Z " fill="#606161" transform="translate(688,198)"/>
<path d="M0 0 C1.18851562 0.00902344 2.37703125 0.01804688 3.6015625 0.02734375 C4.51679688 0.03894531 5.43203125 0.05054688 6.375 0.0625 C4.88875598 17.89742823 4.88875598 17.89742823 0.55078125 23.359375 C-2.90430862 26.06389777 -6.32381992 26.27558599 -10.625 26.0625 C-13.1875 24.8125 -13.1875 24.8125 -14.625 23.0625 C-14.625 22.0725 -14.625 21.0825 -14.625 20.0625 C-13.635 19.7325 -12.645 19.4025 -11.625 19.0625 C-11.625 19.7225 -11.625 20.3825 -11.625 21.0625 C-6.83191658 21.52772293 -6.83191658 21.52772293 -2.6875 19.5625 C-2.336875 19.0675 -1.98625 18.5725 -1.625 18.0625 C-2.5325 18.26875 -3.44 18.475 -4.375 18.6875 C-7.74536846 19.07638867 -8.90661375 18.97543847 -11.625 17.0625 C-13.35369779 13.60510443 -13.11466895 9.84274432 -12.625 6.0625 C-9.02099677 0.29609483 -6.54710828 -0.06418734 0 0 Z M-2.625 3.0625 C-5.1998212 4.07166823 -5.1998212 4.07166823 -7.625 6.0625 C-8.69716639 9.56528106 -8.69716639 9.56528106 -8.625 13.0625 C-7.965 13.7225 -7.305 14.3825 -6.625 15.0625 C-3.32785207 14.73278521 -2.0023161 14.4398161 0.375 12.0625 C0.77264263 10.07428687 1.11275349 8.07305661 1.375 6.0625 C0.055 5.0725 -1.265 4.0825 -2.625 3.0625 Z " fill="#606161" transform="translate(419.625,197.9375)"/>
<path d="M0 0 C2.26979665 -0.10794277 4.54105196 -0.18556176 6.8125 -0.25 C8.07707031 -0.29640625 9.34164063 -0.3428125 10.64453125 -0.390625 C14 0 14 0 15.953125 1.796875 C17.56172679 5.18214146 16.95260918 7.44359239 16 11 C14.9171875 11.928125 14.9171875 11.928125 13.8125 12.875 C13.214375 13.57625 12.61625 14.2775 12 15 C12.25597408 18.1261515 13.05644954 21.01634044 14 24 C12.35 24 10.7 24 9 24 C8.608125 22.865625 8.21625 21.73125 7.8125 20.5625 C6.41389118 16.79660949 6.41389118 16.79660949 3.3125 16.0625 C2.549375 16.041875 1.78625 16.02125 1 16 C0.67 18.64 0.34 21.28 0 24 C-1.32 24 -2.64 24 -4 24 C-3.4533512 15.81911794 -1.82876132 7.98214061 0 0 Z M4 3 C3.34 5.97 2.68 8.94 2 12 C3.918125 12.0928125 3.918125 12.0928125 5.875 12.1875 C6.59429687 12.22230469 7.31359375 12.25710937 8.0546875 12.29296875 C8.69664062 12.19628906 9.33859375 12.09960938 10 12 C12.1519437 8.77208445 12.20086443 7.71599191 12 4 C9.29120665 2.64560332 6.99066732 2.93498549 4 3 Z " fill="#606161" transform="translate(305,192)"/>
<path d="M0 0 C2.29109597 -0.08075665 4.58299267 -0.13907731 6.875 -0.1875 C8.78925781 -0.23970703 8.78925781 -0.23970703 10.7421875 -0.29296875 C12.35480469 -0.14794922 12.35480469 -0.14794922 14 0 C16.51250583 3.76875875 16.53016086 5.53150134 16 10 C14.54006686 12.32978877 12.93880985 14.0127199 11 16 C11.33 16.763125 11.66 17.52625 12 18.3125 C13 21 13 21 13 24 C11.35 23.67 9.7 23.34 8 23 C7.34 20.69 6.68 18.38 6 16 C4.35 16 2.7 16 1 16 C0.67 18.31 0.34 20.62 0 23 C-1.65 23.33 -3.3 23.66 -5 24 C-4.35755277 20.56185817 -3.71046074 17.12460665 -3.0625 13.6875 C-2.78889648 12.22280273 -2.78889648 12.22280273 -2.50976562 10.72851562 C-2.33251953 9.79072266 -2.15527344 8.85292969 -1.97265625 7.88671875 C-1.81031494 7.02264404 -1.64797363 6.15856934 -1.48071289 5.26831055 C-1 3 -1 3 0 0 Z M4 3 C2.43727811 7.39253773 2.43727811 7.39253773 2 12 C6.70353479 12.38514787 6.70353479 12.38514787 11 10.8125 C12.24501278 8.95865763 12.24501278 8.95865763 11.75 6.375 C11.22254355 4.0687593 11.22254355 4.0687593 10 3 C8.00041636 2.95919217 5.99954746 2.95745644 4 3 Z " fill="#606161" transform="translate(556,192)"/>
<path d="M0 0 C12.43882384 -0.36947002 12.43882384 -0.36947002 14.88671875 1.2421875 C17.02573076 4.61957489 16.68484502 8.17139024 16 12 C14.66411283 14.86770446 13.52346995 15.852366 11 18 C7.52055924 18.83986501 4.56067855 19 1 19 C0.34 20.98 -0.32 22.96 -1 25 C-2.32 25 -3.64 25 -5 25 C-3.35 16.75 -1.7 8.5 0 0 Z M4.8125 4.0625 C2.38992296 6.65215132 2.1459896 8.49624953 2 12 C2.99 13.485 2.99 13.485 4 15 C6.98828314 14.67694236 8.61321245 14.34810879 10.875 12.3125 C12.38380949 9.21105827 11.81980367 7.27921467 11 4 C8.37607698 2.9691731 7.3958465 2.8077317 4.8125 4.0625 Z " fill="#606161" transform="translate(769,198)"/>
<path d="M0 0 C12.43882384 -0.36947002 12.43882384 -0.36947002 14.88671875 1.2421875 C17.02573076 4.61957489 16.68484502 8.17139024 16 12 C14.66411283 14.86770446 13.52346995 15.852366 11 18 C7.52055924 18.83986501 4.56067855 19 1 19 C0.34 20.98 -0.32 22.96 -1 25 C-2.32 25 -3.64 25 -5 25 C-3.35 16.75 -1.7 8.5 0 0 Z M4.8125 4.0625 C2.38992296 6.65215132 2.1459896 8.49624953 2 12 C2.99 13.485 2.99 13.485 4 15 C6.98828314 14.67694236 8.61321245 14.34810879 10.875 12.3125 C12.38380949 9.21105827 11.81980367 7.27921467 11 4 C8.37607698 2.9691731 7.3958465 2.8077317 4.8125 4.0625 Z " fill="#606161" transform="translate(749,198)"/>
<path d="M0 0 C1.65 0 3.3 0 5 0 C4.34 3.3 3.68 6.6 3 10 C6.63 10 10.26 10 14 10 C14.33 6.7 14.66 3.4 15 0 C16.65 0 18.3 0 20 0 C18.35 7.92 16.7 15.84 15 24 C13.68 24 12.36 24 11 24 C11.14107747 22.54119891 11.28802415 21.08296449 11.4375 19.625 C11.55931641 18.40683594 11.55931641 18.40683594 11.68359375 17.1640625 C12 15 12 15 13 13 C9.37 13 5.74 13 2 13 C1.34 16.63 0.68 20.26 0 24 C-1.65 24 -3.3 24 -5 24 C-3.35 16.08 -1.7 8.16 0 0 Z " fill="#606161" transform="translate(707,192)"/>
<path d="M0 0 C1.32 0 2.64 0 4 0 C3.34 3.3 2.68 6.6 2 10 C5.63 10 9.26 10 13 10 C13.66 6.7 14.32 3.4 15 0 C16.32 0 17.64 0 19 0 C17.89184084 8.20037776 16.38318475 16.07193875 14 24 C12.68 24 11.36 24 10 24 C10.66 20.37 11.32 16.74 12 13 C8.37 13 4.74 13 1 13 C0.855625 14.258125 0.71125 15.51625 0.5625 16.8125 C0.26251314 19.42667123 -0.15813297 21.47439892 -1 24 C-2.32 24 -3.64 24 -5 24 C-4.39496146 18.3444819 -3.37814297 12.99786009 -1.9375 7.5 C-1.75123047 6.77296875 -1.56496094 6.0459375 -1.37304688 5.296875 C-0.91973545 3.53012276 -0.4604998 1.76489225 0 0 Z " fill="#606161" transform="translate(440,192)"/>
<path d="M0 0 C0.66 0 1.32 0 2 0 C3.32 0 4.64 0 6 0 C5.69012383 2.25036286 5.37700182 4.50027894 5.0625 6.75 C4.80146484 8.62945312 4.80146484 8.62945312 4.53515625 10.546875 C4.13950662 13.09982593 3.69553578 15.5186291 3 18 C2.13375 17.979375 1.2675 17.95875 0.375 17.9375 C-2.98374045 17.88899355 -2.98374045 17.88899355 -6.125 18.6875 C-9 19 -9 19 -11.3125 18 C-13.80546734 15.04537205 -13.93514991 12.82615546 -14 9 C-11.2074355 1.35719189 -7.96495926 -0.44249774 0 0 Z M-4 3 C-6.62157423 4.59593616 -6.62157423 4.59593616 -9 7 C-9.5838196 10.0850745 -9.5838196 10.0850745 -9 13 C-8.34 13.66 -7.68 14.32 -7 15 C-4.46048456 14.90888062 -4.46048456 14.90888062 -2 14 C0.29013653 10.5647952 0.17842973 9.014669 0 5 C-1.32 4.34 -2.64 3.68 -4 3 Z " fill="#606161" transform="translate(490,198)"/>
<path d="M0 0 C2.248125 0.04125 4.49625 0.0825 6.8125 0.125 C5.8225 6.065 4.8325 12.005 3.8125 18.125 C-7.24547101 19.70471014 -7.24547101 19.70471014 -11.4375 17.125 C-13.61173626 13.39773783 -13.79543276 11.38052934 -13.1875 7.125 C-10.15608028 0.62910059 -6.88054292 -0.12624849 0 0 Z M-5.3125 3.75 C-7.56833506 5.40427904 -8.34865876 6.45595969 -9.1875 9.125 C-8.88371948 11.81493053 -8.88371948 11.81493053 -8.1875 14.125 C-6.5375 14.455 -4.8875 14.785 -3.1875 15.125 C-0.01123073 11.71558546 -0.01123073 11.71558546 1.0625 7.3125 C0.98 6.590625 0.8975 5.86875 0.8125 5.125 C-2.05051795 3.27309822 -2.05051795 3.27309822 -5.3125 3.75 Z " fill="#606161" transform="translate(739.1875,197.875)"/>
<path d="M0 0 C1.32 0 2.64 0 4 0 C3.67 2.64 3.34 5.28 3 8 C3.33 7.67 3.66 7.34 4 7 C6.33297433 6.95907063 8.66705225 6.95758277 11 7 C14.26326325 13.18302511 11.8908063 18.71764358 10 25 C8.68 25 7.36 25 6 25 C6.66 20.38 7.32 15.76 8 11 C6.02 11.33 4.04 11.66 2 12 C1.01 16.29 0.02 20.58 -1 25 C-2.32 25 -3.64 25 -5 25 C-3.56790123 3.56790123 -3.56790123 3.56790123 0 0 Z " fill="#606161" transform="translate(522,191)"/>
<path d="M0 0 C0.7940625 -0.01417969 1.588125 -0.02835938 2.40625 -0.04296875 C4.5 0.1875 4.5 0.1875 6.5 2.1875 C6.625 5.3125 6.625 5.3125 6.5 8.1875 C1.94573816 10.85340937 -1.23946963 11.50313182 -6.5 11.1875 C-6.17 12.5075 -5.84 13.8275 -5.5 15.1875 C-1.42035719 13.88594994 -1.42035719 13.88594994 2.5 12.1875 C3.49 12.8475 4.48 13.5075 5.5 14.1875 C3.15111345 17.10011932 1.70476538 18.12793189 -1.9375 19.1875 C-5.5 19.1875 -5.5 19.1875 -8.4375 17.8125 C-11.03190212 14.51053367 -11.15702649 12.48871448 -10.93359375 8.37890625 C-10.29893065 5.17128465 -8.84911827 3.39843484 -6.5 1.1875 C-4.14653604 0.01076802 -2.6193967 0.02126134 0 0 Z M-4.25 4.5625 C-5.70323692 6.11001592 -5.70323692 6.11001592 -5.5 8.1875 C-2.035 7.6925 -2.035 7.6925 1.5 7.1875 C1.5 5.8675 1.5 4.5475 1.5 3.1875 C-2.34671473 2.77561897 -2.34671473 2.77561897 -4.25 4.5625 Z " fill="#606161" transform="translate(823.5,197.8125)"/>
<path d="M0 0 C1.17755859 -0.00773438 1.17755859 -0.00773438 2.37890625 -0.015625 C4.4375 0.25 4.4375 0.25 6.4375 2.25 C6.6875 5.25 6.6875 5.25 6.4375 8.25 C3.33847677 11.34902323 1.04602615 11.2398579 -3.3125 11.3125 C-4.385 11.291875 -5.4575 11.27125 -6.5625 11.25 C-5.5725 12.735 -5.5725 12.735 -4.5625 14.25 C-1.79973823 13.72731534 0.7635876 13.14130413 3.4375 12.25 C4.0975 12.58 4.7575 12.91 5.4375 13.25 C4.43360425 15.98789749 3.7421066 17.07231282 1.1875 18.5625 C-2.17749293 19.40374823 -4.24663421 19.25917654 -7.5625 18.25 C-10.31011052 15.86873755 -10.54078067 14.44909389 -10.9375 10.8125 C-10.5407558 7.04343007 -9.85658672 5.22381612 -7.5625 2.25 C-4.42838698 0.16059132 -3.58799528 -0.02364412 0 0 Z M-4.375 4.625 C-5.7591722 6.18368783 -5.7591722 6.18368783 -5.5625 8.25 C-2.0975 7.755 -2.0975 7.755 1.4375 7.25 C1.7675 5.93 2.0975 4.61 2.4375 3.25 C-1.23521044 2.92164344 -1.23521044 2.92164344 -4.375 4.625 Z " fill="#606161" transform="translate(582.5625,197.75)"/>
<path d="M0 0 C2.0625 1.125 2.0625 1.125 3 3 C3 6.0625 3 6.0625 2 9 C-1.79431399 11.45514435 -5.59038348 11.17292614 -10 11 C-9.67 11.99 -9.34 12.98 -9 14 C-5.28400809 14.20086443 -4.22791555 14.1519437 -1 12 C-0.34 12.33 0.32 12.66 1 13 C0.06788763 15.33028092 -0.69003398 16.75891532 -2.6875 18.3125 C-6.18642736 19.35272165 -8.51226097 19.01461499 -12 18 C-14.17186044 15.30162794 -15.07059828 13.47126813 -14.90234375 9.96484375 C-14.21253512 6.38185719 -13.25946785 4.3052563 -10.875 1.5 C-6.85690553 -0.59639712 -4.50863896 -0.50903988 0 0 Z M-8.25 4.9375 C-10.10782957 6.67627058 -10.10782957 6.67627058 -10 8 C-7.36 7.67 -4.72 7.34 -2 7 C-2 5.68 -2 4.36 -2 3 C-5.9896947 2.56498458 -5.9896947 2.56498458 -8.25 4.9375 Z " fill="#606161" transform="translate(473,198)"/>
<path d="M0 0 C2.0625 1.1875 2.0625 1.1875 3 3 C2.75546876 6.34192692 2.39456443 7.60543557 0 10 C-2.3828125 10.6328125 -2.3828125 10.6328125 -5.125 11.125 C-6.03507812 11.29257813 -6.94515625 11.46015625 -7.8828125 11.6328125 C-8.58148438 11.75398437 -9.28015625 11.87515625 -10 12 C-9.67 12.66 -9.34 13.32 -9 14 C-5.28400809 14.20086443 -4.22791555 14.1519437 -1 12 C-0.34 12.33 0.32 12.66 1 13 C-0.00389575 15.73789749 -0.6953934 16.82231282 -3.25 18.3125 C-6.64610436 19.16152609 -8.66732128 19.08674306 -12 18 C-14.10740054 15.75663813 -14.90298037 14.14344558 -15.1640625 11.06640625 C-14.96027908 6.92019733 -14.20133087 5.23570443 -11.4375 2 C-7.01843763 -0.57109083 -5.02885816 -0.65952238 0 0 Z M-8.25 4.9375 C-10.10782957 6.67627058 -10.10782957 6.67627058 -10 8 C-7.36 7.67 -4.72 7.34 -2 7 C-2 5.68 -2 4.36 -2 3 C-5.9896947 2.56498458 -5.9896947 2.56498458 -8.25 4.9375 Z " fill="#606161" transform="translate(336,198)"/>
<path d="M0 0 C2.0625 1.5625 2.0625 1.5625 3 4 C3.55202481 8.25847709 3.27069422 10.46863726 1.3125 14.3125 C-1.1461306 17.16982745 -2.34545832 18.21688392 -6 19 C-9.0965858 18.81420485 -11.17189927 18.64016298 -13.65234375 16.72265625 C-15.79049548 13.98954057 -15.46718592 11.58432394 -15.36328125 8.2265625 C-14.83094418 4.96385145 -13.3693469 3.22997356 -11 1 C-7.54729316 -0.72635342 -3.77570243 -0.48406441 0 0 Z M-6 3 C-9.81793071 6.18537648 -9.81793071 6.18537648 -11.4375 10.6875 C-11.18973497 13.18582291 -11.18973497 13.18582291 -9 15 C-5.88124302 14.84006374 -4.42199559 14.39386255 -2.125 12.25 C-0.79430898 10.02772116 -0.79430898 10.02772116 -1.0625 7.375 C-1.79057667 4.84947882 -1.79057667 4.84947882 -4.0625 3.6875 C-4.701875 3.460625 -5.34125 3.23375 -6 3 Z " fill="#606161" transform="translate(632,198)"/>
<path d="M0 0 C0.78375 0.185625 1.5675 0.37125 2.375 0.5625 C4.97089775 1.25962266 4.97089775 1.25962266 7 0 C9.3329866 -0.04022391 11.66706666 -0.04320247 14 0 C15.32488714 2.64977429 14.95401517 4.37287745 14.6875 7.3125 C14.56955078 8.72982422 14.56955078 8.72982422 14.44921875 10.17578125 C13.99476902 13.03288694 13.17547696 15.36597205 12 18 C10.68 17.67 9.36 17.34 8 17 C8.66 13.04 9.32 9.08 10 5 C8.35 5.33 6.7 5.66 5 6 C4.79503906 6.61488281 4.59007812 7.22976562 4.37890625 7.86328125 C3.25260417 11.2421875 2.12630208 14.62109375 1 18 C-0.32 18 -1.64 18 -3 18 C-2.41509121 11.85845775 -1.45933748 5.99320151 0 0 Z " fill="#606161" transform="translate(658,198)"/>
<path d="M0 0 C2.14576637 -0.02685938 4.29162645 -0.04633088 6.4375 -0.0625 C7.63246094 -0.07410156 8.82742188 -0.08570313 10.05859375 -0.09765625 C13 0 13 0 14 1 C14.56334799 6.98721 13.6678216 12.26686324 12 18 C10.68 18 9.36 18 8 18 C8.96355353 8.58997722 8.96355353 8.58997722 10 4 C7.00689577 4.15820897 7.00689577 4.15820897 4 6 C2.5248147 9.57178566 1.72228895 13.21115095 1 17 C-0.65 17.33 -2.3 17.66 -4 18 C-3.52450066 15.37428665 -3.04477433 12.7494696 -2.5625 10.125 C-2.42779297 9.37863281 -2.29308594 8.63226563 -2.15429688 7.86328125 C-1.11328125 2.2265625 -1.11328125 2.2265625 0 0 Z " fill="#606161" transform="translate(391,198)"/>
<path d="M0 0 C2.14576637 -0.02685938 4.29162645 -0.04633088 6.4375 -0.0625 C7.63246094 -0.07410156 8.82742188 -0.08570313 10.05859375 -0.09765625 C13 0 13 0 14 1 C14.56334799 6.98721 13.6678216 12.26686324 12 18 C10.68 18 9.36 18 8 18 C8.96355353 8.58997722 8.96355353 8.58997722 10 4 C7.00689577 4.15820897 7.00689577 4.15820897 4 6 C2.5248147 9.57178566 1.72228895 13.21115095 1 17 C-0.65 17.33 -2.3 17.66 -4 18 C-3.52450066 15.37428665 -3.04477433 12.7494696 -2.5625 10.125 C-2.42779297 9.37863281 -2.29308594 8.63226563 -2.15429688 7.86328125 C-1.11328125 2.2265625 -1.11328125 2.2265625 0 0 Z " fill="#606161" transform="translate(797,198)"/>
<path d="M0 0 C1.17755859 0.02320313 1.17755859 0.02320313 2.37890625 0.046875 C4.4375 0.25 4.4375 0.25 6.4375 1.25 C6.1075 2.57 5.7775 3.89 5.4375 5.25 C2.4675 4.92 -0.5025 4.59 -3.5625 4.25 C-2.63283509 6.6763724 -2.63283509 6.6763724 0.9375 7.5625 C4.4375 9.25 4.4375 9.25 5.5625 11.6875 C5.4375 14.25 5.4375 14.25 4.5 16.5 C1.4765983 19.06531053 -1.72150388 19.34714582 -5.5625 19.25 C-8.5625 18.3125 -8.5625 18.3125 -10.5625 17.25 C-10.2325 15.93 -9.9025 14.61 -9.5625 13.25 C-6.5925 13.58 -3.6225 13.91 -0.5625 14.25 C-0.5625 13.59 -0.5625 12.93 -0.5625 12.25 C-2.8725 11.26 -5.1825 10.27 -7.5625 9.25 C-7.92896567 3.75301498 -7.92896567 3.75301498 -6.3359375 1.56640625 C-4.07399488 -0.11261283 -2.78874949 -0.09188631 0 0 Z " fill="#606161" transform="translate(855.5625,197.75)"/>
<path d="M0 0 C2 1.5 2 1.5 3 3 C0.42786866 4.61949011 -0.67669159 5.04408751 -3.75 4.625 C-4.4925 4.41875 -5.235 4.2125 -6 4 C-6.33 4.66 -6.66 5.32 -7 6 C-5.865625 6.474375 -4.73125 6.94875 -3.5625 7.4375 C0 9 0 9 1 10 C1.28534319 12.71076028 1.37081965 14.38923823 -0.0625 16.75 C-2.99867908 18.64430908 -5.54181006 18.82112811 -9 19 C-11.9375 18.0625 -11.9375 18.0625 -14 17 C-14 16.01 -14 15.02 -14 14 C-11 14 -8 14 -5 14 C-4.67 13.01 -4.34 12.02 -4 11 C-4.94875 10.87625 -5.8975 10.7525 -6.875 10.625 C-10 10 -10 10 -12 8 C-11.8125 5 -11.8125 5 -11 2 C-7.22364747 -0.51756835 -4.43634442 -0.63772451 0 0 Z " fill="#606161" transform="translate(603,198)"/>
<path d="M0 0 C0.66 0.33 1.32 0.66 2 1 C1.67 2.32 1.34 3.64 1 5 C-1.97 4.67 -4.94 4.34 -8 4 C-7.07033509 6.4263724 -7.07033509 6.4263724 -3.5 7.3125 C0 9 0 9 1.125 11.4375 C1 14 1 14 0.0625 16.25 C-2.96041728 18.81489951 -6.14895029 19.22476944 -10 19 C-13 17.5625 -13 17.5625 -15 16 C-14.67 15.01 -14.34 14.02 -14 13 C-11.03 13.33 -8.06 13.66 -5 14 C-4.67 13.01 -4.34 12.02 -4 11 C-4.94875 10.855625 -5.8975 10.71125 -6.875 10.5625 C-10 10 -10 10 -12 9 C-12.48 3.6 -12.48 3.6 -10.5 1.125 C-6.82909094 -0.52690908 -4.01673077 -0.25914392 0 0 Z " fill="#606161" transform="translate(844,198)"/>
<path d="M0 0 C1.65 0 3.3 0 5 0 C5.66 3.96 6.32 7.92 7 12 C8.98 8.04 10.96 4.08 13 0 C14.32 0 15.64 0 17 0 C15.25722582 6.46660944 12.89295292 13.23106202 8 18 C6.35 18 4.7 18 3 18 C2.01 12.06 1.02 6.12 0 0 Z " fill="#606161" transform="translate(364,198)"/>
<path d="M0 0 C1.32 0 2.64 0 4 0 C4.66 3.63 5.32 7.26 6 11 C9.09592835 7.4912812 10.74194623 4.50802601 12 0 C13.32 0 14.64 0 16 0 C15.6437915 6.76796147 11.73652774 13.26347226 7 18 C5.35 17.67 3.7 17.34 2 17 C1.34 11.39 0.68 5.78 0 0 Z " fill="#606161" transform="translate(340,198)"/>
<path d="M0 0 C1.32 0 2.64 0 4 0 C3.67 1.98 3.34 3.96 3 6 C3.99 6 4.98 6 6 6 C6 6.99 6 7.98 6 9 C4.68 9 3.36 9 2 9 C1.34 12.96 0.68 16.92 0 21 C1.32 20.67 2.64 20.34 4 20 C4 21.32 4 22.64 4 24 C-1.75 25.125 -1.75 25.125 -4 24 C-4.19392201 18.47322267 -3.7479503 14.24385089 -2 9 C-2.66 9 -3.32 9 -4 9 C-4 8.01 -4 7.02 -4 6 C-3.01 6 -2.02 6 -1 6 C-0.67 4.02 -0.34 2.04 0 0 Z " fill="#606161" transform="translate(611,192)"/>
<path d="M0 0 C1.32 0 2.64 0 4 0 C3.67 1.98 3.34 3.96 3 6 C3.99 6 4.98 6 6 6 C6 6.99 6 7.98 6 9 C4.68 9 3.36 9 2 9 C1.93941406 9.61488281 1.87882813 10.22976562 1.81640625 10.86328125 C1.73261719 11.67152344 1.64882813 12.47976562 1.5625 13.3125 C1.48128906 14.11300781 1.40007813 14.91351563 1.31640625 15.73828125 C1 18 1 18 0 21 C1.32 20.67 2.64 20.34 4 20 C4 21.32 4 22.64 4 24 C0.71303767 24.79953138 -0.71023192 25.09658936 -4 24 C-4.22577402 18.5814234 -3.46670113 14.22512279 -2 9 C-2.66 9 -3.32 9 -4 9 C-4 8.01 -4 7.02 -4 6 C-3.01 6 -2.02 6 -1 6 C-0.67 4.02 -0.34 2.04 0 0 Z " fill="#606161" transform="translate(511,192)"/>
<path d="M0 0 C0.66 0 1.32 0 2 0 C2 5.28 2 10.56 2 16 C-5 17 -5 17 -6.9375 16.0625 C-8.69182699 12.65704172 -8.30171117 9.8015607 -8 6 C-7.34 5.34 -6.68 4.68 -6 4 C-2.875 4.375 -2.875 4.375 0 5 C0 3.35 0 1.7 0 0 Z " fill="#FAD9CD" transform="translate(108,137)"/>
<path d="M0 0 C2.9375 0.8125 2.9375 0.8125 4.9375 3.8125 C4.75 7.375 4.75 7.375 3.9375 10.8125 C0.9375 12.8125 0.9375 12.8125 -2.1875 12.5625 C-3.610625 12.19125 -3.610625 12.19125 -5.0625 11.8125 C-6.16897808 9.59954384 -6.25838368 8.26577301 -6.3125 5.8125 C-6.33828125 5.11125 -6.3640625 4.41 -6.390625 3.6875 C-6.28234375 3.06875 -6.1740625 2.45 -6.0625 1.8125 C-3.0625 -0.1875 -3.0625 -0.1875 0 0 Z " fill="#FADBD2" transform="translate(152.0625,141.1875)"/>
<path d="M0 0 C1.32 0 2.64 0 4 0 C3.3622098 7.52592433 1.80110167 14.67098882 0 22 C0.99 22 1.98 22 3 22 C3 22.99 3 23.98 3 25 C-1.75 26.125 -1.75 26.125 -4 25 C-4.24795864 19.22721294 -3.33663941 14.16645104 -2 8.5625 C-1.80921875 7.73556641 -1.6184375 6.90863281 -1.421875 6.05664062 C-0.95471563 4.03617634 -0.47830626 2.01785453 0 0 Z " fill="#606161" transform="translate(501,191)"/>
<path d="M0 0 C3.3 0 6.6 0 10 0 C9.67 1.32 9.34 2.64 9 4 C8.19175781 4.28617188 7.38351562 4.57234375 6.55078125 4.8671875 C3.71129866 5.77486729 3.71129866 5.77486729 2.85546875 8.8203125 C2.63503906 9.91085938 2.41460938 11.00140625 2.1875 12.125 C1.95417969 13.22070312 1.72085938 14.31640625 1.48046875 15.4453125 C1.32191406 16.28835937 1.16335938 17.13140625 1 18 C-0.65 18 -2.3 18 -4 18 C-2.68 12.06 -1.36 6.12 0 0 Z " fill="#606161" transform="translate(639,198)"/>
<path d="M0 0 C1.8125 1.8125 1.8125 1.8125 3 4 C3 4.99 3 5.98 3 7 C0.03 7 -2.94 7 -6 7 C-5.67 7.99 -5.34 8.98 -5 10 C-2.36 9.67 0.28 9.34 3 9 C1.8125 11 1.8125 11 0 13 C-2.84869344 13.49852135 -4.31219126 13.40319823 -6.8125 11.9375 C-8.67036623 8.90624457 -8.37133265 6.46577141 -8 3 C-5.96513637 -0.32004065 -3.73886079 -0.65430064 0 0 Z " fill="#FCECE7" transform="translate(95,141)"/>
<path d="M0 0 C2.4375 0.25 2.4375 0.25 5 1 C5.66 1.99 6.32 2.98 7 4 C8.32 3.67 9.64 3.34 11 3 C11 2.34 11 1.68 11 1 C9.68 1.33 8.36 1.66 7 2 C7.33 1.34 7.66 0.68 8 0 C9.65 0.33 11.3 0.66 13 1 C13 3.31 13 5.62 13 8 C11.02 8 9.04 8 7 8 C7 7.34 7 6.68 7 6 C6.01 6.66 5.02 7.32 4 8 C0.48275862 7.48275862 0.48275862 7.48275862 -1 6 C-1.125 3.5 -1.125 3.5 -1 1 C-0.67 0.67 -0.34 0.34 0 0 Z " fill="#C8E3B0" transform="translate(228,191)"/>
<path d="M0 0 C2.66666667 0 5.33333333 0 8 0 C8 0.66 8 1.32 8 2 C8.99 1.34 9.98 0.68 11 0 C12.65 0.33 14.3 0.66 16 1 C16 4.63 16 8.26 16 12 C15.67 12 15.34 12 15 12 C14.67 9.03 14.34 6.06 14 3 C12.68 3.33 11.36 3.66 10 4 C9.67 6.64 9.34 9.28 9 12 C8.67 12 8.34 12 8 12 C7.67 8.7 7.34 5.4 7 2 C6.01 2.33 5.02 2.66 4 3 C3.67 6.3 3.34 9.6 3 13 C2.01 13 1.02 13 0 13 C0 8.71 0 4.42 0 0 Z " fill="#FAD7CE" transform="translate(68,141)"/>
<path d="M0 0 C1.32 0 2.64 0 4 0 C2.07289294 12.66970387 2.07289294 12.66970387 0 18 C-1.32 18 -2.64 18 -4 18 C-3.52450066 15.37428665 -3.04477433 12.7494696 -2.5625 10.125 C-2.42779297 9.37863281 -2.29308594 8.63226563 -2.15429688 7.86328125 C-1.11328125 2.2265625 -1.11328125 2.2265625 0 0 Z " fill="#606161" transform="translate(651,198)"/>
<path d="M0 0 C1.32 0 2.64 0 4 0 C2.07289294 12.66970387 2.07289294 12.66970387 0 18 C-1.32 18 -2.64 18 -4 18 C-3.52450066 15.37428665 -3.04477433 12.7494696 -2.5625 10.125 C-2.42779297 9.37863281 -2.29308594 8.63226563 -2.15429688 7.86328125 C-1.11328125 2.2265625 -1.11328125 2.2265625 0 0 Z " fill="#606161" transform="translate(359,198)"/>
<path d="M0 0 C1.32 0 2.64 0 4 0 C3.51679152 6.2054142 2.66681876 11.99945246 1 18 C-0.32 18 -1.64 18 -3 18 C-2.41509121 11.85845775 -1.45933748 5.99320151 0 0 Z " fill="#606161" transform="translate(789,198)"/>
<path d="M0 0 C1.32 0 2.64 0 4 0 C3.51679152 6.2054142 2.66681876 11.99945246 1 18 C-0.32 18 -1.64 18 -3 18 C-2.41509121 11.85845775 -1.45933748 5.99320151 0 0 Z " fill="#606161" transform="translate(383,198)"/>
<path d="M0 0 C0.33 0 0.66 0 1 0 C1 20.79 1 41.58 1 63 C0.67 63 0.34 63 0 63 C-0.33 44.52 -0.66 26.04 -1 7 C-1.99 7.495 -1.99 7.495 -3 8 C-1.125 2.25 -1.125 2.25 0 0 Z " fill="#E8533F" transform="translate(152,58)"/>
<path d="M0 0 C1.2065625 0.0309375 1.2065625 0.0309375 2.4375 0.0625 C3.0975 1.3825 3.7575 2.7025 4.4375 4.0625 C3.7775 4.0625 3.1175 4.0625 2.4375 4.0625 C2.4375 3.4025 2.4375 2.7425 2.4375 2.0625 C0.4575 3.0525 0.4575 3.0525 -1.5625 4.0625 C1.9025 5.5475 1.9025 5.5475 5.4375 7.0625 C5.1075 8.7125 4.7775 10.3625 4.4375 12.0625 C2.1275 12.3925 -0.1825 12.7225 -2.5625 13.0625 C-3.2225 11.7425 -3.8825 10.4225 -4.5625 9.0625 C-2.2525 9.3925 0.0575 9.7225 2.4375 10.0625 C2.7675 9.4025 3.0975 8.7425 3.4375 8.0625 C2.48875 7.93875 1.54 7.815 0.5625 7.6875 C-2.5625 7.0625 -2.5625 7.0625 -4.5625 5.0625 C-3.80953264 0.09291543 -3.80953264 0.09291543 0 0 Z " fill="#FAD8CE" transform="translate(138.5625,140.9375)"/>
<path d="M0 0 C3.27275026 0 5.846632 0.29925156 9 1 C9 2.98 9 4.96 9 7 C5.90680414 7.85329541 3.20663885 8 0 8 C0 5.36 0 2.72 0 0 Z " fill="#CFE7B9" transform="translate(136,191)"/>
<path d="M0 0 C3.3 0 6.6 0 10 0 C10.33 1.32 10.66 2.64 11 4 C9.35 4 7.7 4 6 4 C6 4.66 6 5.32 6 6 C7.65 5.67 9.3 5.34 11 5 C10.67 5.99 10.34 6.98 10 8 C8.35 7.67 6.7 7.34 5 7 C4.67 5.35 4.34 3.7 4 2 C3.34 2 2.68 2 2 2 C2 3.98 2 5.96 2 8 C1.34 8 0.68 8 0 8 C0 5.36 0 2.72 0 0 Z " fill="#C7E3AF" transform="translate(90,191)"/>
<path d="M0 0 C1.65 0 3.3 0 5 0 C5.66 0.66 6.32 1.32 7 2 C6.625 4.625 6.625 4.625 6 7 C4.68 7.33 3.36 7.66 2 8 C2 8.66 2 9.32 2 10 C1.34 10 0.68 10 0 10 C0 6.7 0 3.4 0 0 Z " fill="#B9DC9C" transform="translate(124,191)"/>
<path d="M0 0 C1.67542976 0.28604898 3.34385343 0.61781233 5 1 C5 3.31 5 5.62 5 8 C3.34385343 8.38218767 1.67542976 8.71395102 0 9 C-1 8 -1 8 -1.125 4.5 C-1 1 -1 1 0 0 Z " fill="#E42A2D" transform="translate(149,143)"/>
<path d="M0 0 C0.66 0 1.32 0 2 0 C2 0.99 2 1.98 2 3 C3.32 3 4.64 3 6 3 C6 5.31 6 7.62 6 10 C5.67 10 5.34 10 5 10 C5 8.02 5 6.04 5 4 C4.01 4.495 4.01 4.495 3 5 C2.34227572 8.02934491 2.34227572 8.02934491 2 11 C0.35 11 -1.3 11 -3 11 C-3.9765625 4.9453125 -3.9765625 4.9453125 -4 3 C-3.34 2.34 -2.68 1.68 -2 1 C-0.90341064 4.28976808 -1.20046862 5.71303767 -2 9 C-1.34 9 -0.68 9 0 9 C0 6.03 0 3.06 0 0 Z " fill="#D7EAC5" transform="translate(249,188)"/>
<path d="M0 0 C0.99 0.33 1.98 0.66 3 1 C4.1875 4.0625 4.1875 4.0625 5 7 C6.32 4.69 7.64 2.38 9 0 C9.66 0 10.32 0 11 0 C9.66666667 4 8.33333333 8 7 12 C6.01 12 5.02 12 4 12 C3.32645501 10.56570999 2.66140299 9.12742943 2 7.6875 C1.62875 6.88699219 1.2575 6.08648437 0.875 5.26171875 C0 3 0 3 0 0 Z " fill="#FAD7CE" transform="translate(117,141)"/>
<path d="M0 0 C2.875 -0.125 2.875 -0.125 6 0 C6.66 0.66 7.32 1.32 8 2 C7.625 4.125 7.625 4.125 7 6 C5.02 6 3.04 6 1 6 C0.67 7.32 0.34 8.64 0 10 C0 6.7 0 3.4 0 0 Z " fill="#C1E1A8" transform="translate(81,188)"/>
<path d="M0 0 C3.69230769 0.69230769 3.69230769 0.69230769 5 2 C5.1875 4.4375 5.1875 4.4375 5 7 C4.34 7.66 3.68 8.32 3 9 C0.875 8.625 0.875 8.625 -1 8 C-1.04241723 5.66705225 -1.04092937 3.33297433 -1 1 C-0.67 0.67 -0.34 0.34 0 0 Z " fill="#E42B2D" transform="translate(103,143)"/>
<path d="M0 0 C0.625 2.375 0.625 2.375 1 5 C0.34 5.66 -0.32 6.32 -1 7 C-4.53571429 6.46428571 -4.53571429 6.46428571 -6 5 C-6.04063832 3.33382885 -6.042721 1.66611905 -6 0 C-3.50907189 -1.24546405 -2.58919267 -0.7767578 0 0 Z " fill="#B6DC99" transform="translate(203,192)"/>
<path d="M0 0 C2.625 0.375 2.625 0.375 5 1 C5.125 3.375 5.125 3.375 5 6 C4.34 6.66 3.68 7.32 3 8 C0.875 7.625 0.875 7.625 -1 7 C-1.625 4.625 -1.625 4.625 -2 2 C-1.34 1.34 -0.68 0.68 0 0 Z " fill="#B9DD9D" transform="translate(191,191)"/>
<path d="M0 0 C0.78375 0.04125 1.5675 0.0825 2.375 0.125 C2.375 1.115 2.375 2.105 2.375 3.125 C0.725 3.125 -0.925 3.125 -2.625 3.125 C-2.625 4.775 -2.625 6.425 -2.625 8.125 C-0.975 8.455 0.675 8.785 2.375 9.125 C2.375 8.465 2.375 7.805 2.375 7.125 C1.715 7.125 1.055 7.125 0.375 7.125 C0.375 6.465 0.375 5.805 0.375 5.125 C1.695 5.125 3.015 5.125 4.375 5.125 C4.045 6.775 3.715 8.425 3.375 10.125 C1.0625 10.75 1.0625 10.75 -1.625 11.125 C-2.615 10.465 -3.605 9.805 -4.625 9.125 C-4.9375 5.625 -4.9375 5.625 -4.625 2.125 C-2.625 0.125 -2.625 0.125 0 0 Z " fill="#DDEDCD" transform="translate(183.625,187.875)"/>
<path d="M0 0 C2.3125 -0.25 2.3125 -0.25 5 0 C6.8125 1.8125 6.8125 1.8125 8 4 C8 4.99 8 5.98 8 7 C5.03 6.67 2.06 6.34 -1 6 C-0.67 4.02 -0.34 2.04 0 0 Z " fill="#F2978E" transform="translate(90,141)"/>
<path d="M0 0 C2.125 0.375 2.125 0.375 4 1 C4.625 3.375 4.625 3.375 5 6 C4.34 6.66 3.68 7.32 3 8 C0.875 7.625 0.875 7.625 -1 7 C-1.625 4.625 -1.625 4.625 -2 2 C-1.34 1.34 -0.68 0.68 0 0 Z " fill="#B6DC99" transform="translate(164,191)"/>
<path d="M0 0 C2.125 0.375 2.125 0.375 4 1 C2.68 1.33 1.36 1.66 0 2 C0 3.32 0 4.64 0 6 C1.65 5.67 3.3 5.34 5 5 C5 3.35 5 1.7 5 0 C6.32 0.33 7.64 0.66 9 1 C8.34 1 7.68 1 7 1 C7 3.31 7 5.62 7 8 C3.88742431 8 1.89234315 7.82638376 -1 7 C-1.625 4.625 -1.625 4.625 -2 2 C-1.34 1.34 -0.68 0.68 0 0 Z " fill="#D3E8BE" transform="translate(111,191)"/>
<path d="M0 0 C0.33 0 0.66 0 1 0 C1 3.3 1 6.6 1 10 C-0.32 10.33 -1.64 10.66 -3 11 C-5 9 -5 9 -5.125 6.375 C-5.08375 5.59125 -5.0425 4.8075 -5 4 C-4.0409375 3.8453125 -4.0409375 3.8453125 -3.0625 3.6875 C-2.381875 3.460625 -1.70125 3.23375 -1 3 C-0.67 2.01 -0.34 1.02 0 0 Z " fill="#C0E1A8" transform="translate(210,188)"/>
<path d="M0 0 C0.33 1.32 0.66 2.64 1 4 C2.98 4 4.96 4 7 4 C7.33 2.68 7.66 1.36 8 0 C8 3.3 8 6.6 8 10 C7.34 10 6.68 10 6 10 C6 8.68 6 7.36 6 6 C4.68 6 3.36 6 2 6 C2 7.65 2 9.3 2 11 C1.34 11 0.68 11 0 11 C0 7.37 0 3.74 0 0 Z " fill="#D4E9C0" transform="translate(217,188)"/>
<path d="M0 0 C0.66 0 1.32 0 2 0 C5.125 6.625 5.125 6.625 4 10 C4 9.34 4 8.68 4 8 C1.69 8.66 -0.62 9.32 -3 10 C-2.01 6.7 -1.02 3.4 0 0 Z " fill="#CEE6B8" transform="translate(71,188)"/>
<path d="M0 0 C1.98 0 3.96 0 6 0 C6 0.66 6 1.32 6 2 C5.01 2.33 4.02 2.66 3 3 C2.67 5.97 2.34 8.94 2 12 C1.34 12 0.68 12 0 12 C0 8.04 0 4.08 0 0 Z " fill="#FDF0EC" transform="translate(159,141)"/>
<path d="M0 0 C2.97 0 5.94 0 9 0 C7.3125 2.0625 7.3125 2.0625 5 4 C2.25 3.75 2.25 3.75 0 3 C0 2.01 0 1.02 0 0 Z " fill="#E53B35" transform="translate(89,148)"/>
<path d="M0 0 C1.32 0 2.64 0 4 0 C3.34 2.31 2.68 4.62 2 7 C1.01 7 0.02 7 -1 7 C-0.67 4.69 -0.34 2.38 0 0 Z " fill="#606161" transform="translate(536,212)"/>
<path d="M0 0 C1.32 0.33 2.64 0.66 4 1 C4.33 3.31 4.66 5.62 5 8 C4.01 8.33 3.02 8.66 2 9 C1.855625 7.88625 1.71125 6.7725 1.5625 5.625 C1.21627965 2.17857953 1.21627965 2.17857953 0 0 Z " fill="#F9D0C5" transform="translate(152,142)"/>
<path d="M0 0 C1.67542976 0.28604898 3.34385343 0.61781233 5 1 C5 1.99 5 2.98 5 4 C3.35 4 1.7 4 0 4 C-0.33 4.66 -0.66 5.32 -1 6 C-1.042721 4.33388095 -1.04063832 2.66617115 -1 1 C-0.67 0.67 -0.34 0.34 0 0 Z " fill="#D5EAC3" transform="translate(228,191)"/>
<path d="M0 0 C0.66 0 1.32 0 2 0 C3.1577506 3.47325181 3.06866652 6.36067448 3 10 C2.01 9.67 1.02 9.34 0 9 C0 6.03 0 3.06 0 0 Z " fill="#CDE5B5" transform="translate(132,189)"/>
<path d="M0 0 C-0.33 0.99 -0.66 1.98 -1 3 C-3.64 2.67 -6.28 2.34 -9 2 C-9 1.34 -9 0.68 -9 0 C-5.52176885 -1.15941038 -3.54104422 -0.70820884 0 0 Z " fill="#E63B37" transform="translate(142,149)"/>
<path d="M0 0 C1.32 0 2.64 0 4 0 C3.67 1.65 3.34 3.3 3 5 C1.68 5 0.36 5 -1 5 C-0.67 3.35 -0.34 1.7 0 0 Z " fill="#606161" transform="translate(791,191)"/>
<path d="M0 0 C1.32 0 2.64 0 4 0 C3.67 1.65 3.34 3.3 3 5 C1.68 5 0.36 5 -1 5 C-0.67 3.35 -0.34 1.7 0 0 Z " fill="#606161" transform="translate(385,191)"/>
<path d="M0 0 C1.98 0 3.96 0 6 0 C5.34 1.32 4.68 2.64 4 4 C2.68 3.67 1.36 3.34 0 3 C0 2.01 0 1.02 0 0 Z " fill="#A7D483" transform="translate(228,195)"/>
<path d="M0 0 C1.32 0 2.64 0 4 0 C3.67 1.65 3.34 3.3 3 5 C1.35 5.33 -0.3 5.66 -2 6 C-1.67 5.34 -1.34 4.68 -1 4 C-0.01 4 0.98 4 2 4 C2 3.34 2 2.68 2 2 C1.34 2 0.68 2 0 2 C0 1.34 0 0.68 0 0 Z " fill="#CCE4B5" transform="translate(184,193)"/>
<path d="M0 0 C1.32 0 2.64 0 4 0 C4 1.65 4 3.3 4 5 C2.68 5 1.36 5 0 5 C0 3.35 0 1.7 0 0 Z " fill="#606161" transform="translate(652,191)"/>
<path d="M0 0 C1.32 0 2.64 0 4 0 C4 1.65 4 3.3 4 5 C2.68 5 1.36 5 0 5 C0 3.35 0 1.7 0 0 Z " fill="#606161" transform="translate(360,191)"/>
<path d="M0 0 C0.598125 0.20625 1.19625 0.4125 1.8125 0.625 C1.19375 0.83125 0.575 1.0375 -0.0625 1.25 C-3.03403645 3.17275888 -3.31774659 5.29094527 -4.1875 8.625 C-4.5175 8.625 -4.8475 8.625 -5.1875 8.625 C-5.375 5.25 -5.375 5.25 -5.1875 1.625 C-2.1875 -0.375 -2.1875 -0.375 0 0 Z " fill="#FCE6E0" transform="translate(151.1875,141.375)"/>
<path d="M0 0 C1.98 0.495 1.98 0.495 4 1 C3.34 1 2.68 1 2 1 C2 3.31 2 5.62 2 8 C1.34 8 0.68 8 0 8 C-1.09658936 4.71023192 -0.79953138 3.28696233 0 0 Z " fill="#CAE4B3" transform="translate(116,191)"/>
<path d="M0 0 C0.33 0 0.66 0 1 0 C1 4.29 1 8.58 1 13 C0.67 13 0.34 13 0 13 C-0.309375 12.05125 -0.61875 11.1025 -0.9375 10.125 C-1.87394742 7.13919592 -1.87394742 7.13919592 -3 5 C-2.01 5 -1.02 5 0 5 C0 3.35 0 1.7 0 0 Z " fill="#FDF4F1" transform="translate(108,137)"/>
<path d="M0 0 C0.99 0.33 1.98 0.66 3 1 C3 2.32 3 3.64 3 5 C1.68 5 0.36 5 -1 5 C-0.67 3.35 -0.34 1.7 0 0 Z " fill="#7CC34D" transform="translate(141,192)"/>
<path d="M0 0 C2.125 0.375 2.125 0.375 4 1 C3.01 1.66 2.02 2.32 1 3 C0.26656572 6.06556598 0.26656572 6.06556598 0 9 C-0.33 9 -0.66 9 -1 9 C-1.625 5.625 -1.625 5.625 -2 2 C-1.34 1.34 -0.68 0.68 0 0 Z " fill="#F9CFC3" transform="translate(102,141)"/>
<path d="M0 0 C2.64 0.66 5.28 1.32 8 2 C7.67 2.66 7.34 3.32 7 4 C5.35 4 3.7 4 2 4 C1.34 2.68 0.68 1.36 0 0 Z " fill="#FADDD4" transform="translate(134,150)"/>
</svg>
